{
.appVersion = "3141";
.formatVersion = 3;
customParameters = (
{
name = vendorID;
value = MONO;
},
{
name = panose;
value = (
2,
2,
6,
0,
6,
5,
0,
2,
2,
0
);
},
{
name = unicodeRanges;
value = (
0,
1,
2,
3,
4,
5,
6,
7,
9,
29,
30,
31,
32,
33,
34,
35,
36,
37,
38,
39,
43,
44,
45,
46,
60,
62,
64,
67,
69
);
},
{
name = codePageRanges;
value = (
"1252"
);
}
);
date = "2020-10-31 04:20:23 +0000";
familyName = "Khmer Thin";
featurePrefixes = (
{
code = "lookup SUB_0 {
	sub uni17B7 by uni17B7.r;
	sub uni17B8 by uni17B8.r;
	sub uni17B9 by uni17B9.r;
	sub uni17BA by uni17BA.r;
	sub uni17BE by uni17B8.r;
	sub uni17C6 by uni17C6.r;
	sub uni17C9 by uni17C9.r;
	sub uni17CD by uni17CD.r;
	sub uni17B7_17CD by iMark_17CDkhmer.r;
} SUB_0;
lookup SUB_1 {
	sub uni17B7 by uni17B7.a;
	sub uni17B8 by uni17B8.a;
	sub uni17B9 by uni17B9.a;
	sub uni17BA by uni17BA.a;
	sub uni17BE by uni17B8.a;
	sub uni17C6 by uni17C6.a;
	sub uni17CE by uni17CE.a;
	sub uni17D0 by uni17D0.a;
} SUB_1;
lookup SUB_10 {
	sub uni17C9 uni17B6 by uni17C9;
	sub uni17C9 uni17C4 by uni17C9;
	sub uni17C9 uni17C5 by uni17C9;
	sub uni17CA uni17B6 by uni17CA;
	sub uni17CA uni17C4 by uni17CA;
	sub uni17CA uni17C5 by uni17CA;
	sub uni17CC uni17B6 by uni17CC;
	sub uni17CC uni17C4 by uni17CC;
	sub uni17CC uni17C5 by uni17CC;
	sub uni17C9.r uni17B6 by uni17C9.r;
	sub uni17C9.r uni17C4 by uni17C9.r;
	sub uni17C9.r uni17C5 by uni17C9.r;
} SUB_10;
lookup SUB_11 {
	sub uni17D2_178A by coeng_178Akhmer.r;
	sub uni17D2_178F by coeng_178Akhmer.r;
	sub uni17D2_1797 by coeng_1797khmer.r;
	sub uni17D2_1798 by coeng_1798khmer.r;
} SUB_11;
lookup SUB_12 {
	sub uni17BB by uni17BB.b;
	sub uni17BC by uni17BC.b;
	sub uni17BD by uni17BD.b;
} SUB_12;
lookup SUB_13 {
	sub uni17BF by uni17BF.b;
	sub uni17C0 by uni17C0.b;
} SUB_13;
lookup SUB_14 {
	sub uni17CA by uni17BB;
} SUB_14;
lookup SUB_15 {
	sub uni17C9 by uni17BB;
	sub uni17C9.r by uni17BB;
} SUB_15;
lookup SUB_16 {
	sub uni1789 by uni1789.a;
} SUB_16;
lookup SUB_17 {

glyphs = (
{
glyphname = A;
layers = (
{
layerId = m01;
shapes = (
{
closed = 1;
nodes = (
(364,54,l),
(221,54,l),
(363,435,l),
(1075,435,l),
(1218,54,l),
(1075,54,l),
(1075,0,l),
(1384,0,l),
(1384,54,l),
(1277,54,l),
(752,1456,l),
(686,1456,l),
(162,54,l),
(55,54,l),
(55,0,l),
(364,0,l)
);
},
{
closed = 1;
nodes = (
(716,1391,l),
(722,1391,l),
(750,1309,l),
(1055,489,l),
(383,489,l),
(689,1309,l)
);
}
);
width = 1472;
}
);
note = A;
unicode = 65;
},
{
glyphname = B;
layers = (
{
layerId = m01;
shapes = (
{
closed = 1;
nodes = (
(912,0,o),
(1159,210,o),
(1159,401,qs),
(1159,489,o),
(1074,640,o),
(928,741,o),
(837,753,q),
(959,775,o),
(1093,953,o),
(1093,1083,qs),
(1093,1270,o),
(843,1456,o),
(617,1456,qs),
(234,1456,l),
(71,1456,l),
(71,1402,l),
(234,1402,l),
(234,54,l),
(71,54,l),
(71,0,l),
(709,0,ls)
);
},
{
closed = 1;
nodes = (
(719,719,ls),
(841,719,o),
(1014,633,o),
(1105,488,o),
(1105,399,qs),
(1105,236,o),
(893,54,o),
(709,54,qs),
(288,54,l),
(288,719,l)
);
},
{
closed = 1;
nodes = (
(617,1402,ls),
(825,1402,o),
(1038,1243,o),
(1038,1087,qs),
(1038,928,o),
(836,773,o),
(637,773,qs),
(288,773,l),
(288,1402,l)
);
}
);
width = 1247;
}
);
note = B;
unicode = 66;
},
{
glyphname = C;
layers = (
{
layerId = m01;
shapes = (
{
closed = 1;
nodes = (
(1137,40,o),
(1231,103,q),
(1231,372,l),
(1176,372,l),
(1176,137,l),
(1105,89,o),
(901,33,o),
(791,33,qs),
(601,33,o),
(329,206,o),
(184,515,o),
(184,719,qs),
(184,739,ls),
(184,943,o),
(332,1251,o),
(595,1423,o),
(767,1423,qs),
(863,1423,o),
(998,1393,o),
(1107,1337,o),
(1161,1296,q),
(1161,1062,l),
(1216,1062,l),
(1216,1319,l),
(1127,1397,o),
(925,1477,o),
(767,1477,qs),
(577,1477,o),
(290,1290,o),
(130,957,o),
(130,737,qs),
(130,719,ls),
(130,499,o),
(285,166,o),
(582,-21,o),
(794,-21,qs),
(917,-21,o)
);
}
);
width = 1348;
}
);
note = C;
unicode = 67;
},
{
glyphname = D;
layers = (
{
layerId = m01;
shapes = (
{
closed = 1;
nodes = (
(808,0,o),
(1087,185,o),
(1248,509,o),
(1248,719,qs),
(1248,737,ls),
(1248,947,o),
(1087,1271,o),
(808,1456,o),
(629,1456,qs),
(234,1456,l),
(71,1456,l),
(71,1402,l),
(234,1402,l),
(234,54,l),
(71,54,l),
(71,0,l),
(629,0,ls)
);
},
{
closed = 1;
nodes = (
(629,1402,ls),
(792,1402,o),
(1047,1229,o),
(1194,930,o),
(1194,740,qs),
(1194,719,ls),
(1194,528,o),
(1047,227,o),
(792,54,o),
(629,54,qs),
(288,54,l),
(288,1402,l)
);
}
);
width = 1386;
}
);
note = D;
unicode = 68;
},
{
glyphname = E;
layers = (
{
layerId = m01;
shapes = (
{
closed = 1;
nodes = (
(1120,293,l),
(1066,293,l),
(1066,54,l),
(288,54,l),
(288,732,l),
(918,732,l),
(918,786,l),
(288,786,l),
(288,1402,l),
(1036,1402,l),
(1036,1163,l),
(1090,1163,l),
(1090,1456,l),
(71,1456,l),
(71,1402,l),
(234,1402,l),
(234,54,l),
(71,54,l),
(71,0,l),
(1120,0,l)
);
}
);
width = 1270;
}
);
note = E;
unicode = 69;
},
{
glyphname = F;
layers = (
{
layerId = m01;
shapes = (
{
closed = 1;
nodes = (
(451,54,l),
(288,54,l),
(288,716,l),
(934,716,l),
(934,772,l),
(288,772,l),
(288,1402,l),
(1082,1402,l),
(1082,1163,l),
(1136,1163,l),
(1136,1456,l),
(71,1456,l),
(71,1402,l),
(234,1402,l),
(234,54,l),
(71,54,l),
(71,0,l),
(451,0,l)
);
}
);
width = 1246;
}
);
note = F;
unicode = 70;
},
{
glyphname = G;
layers = (
{
layerId = m01;
shapes = (
{
closed = 1;
nodes = (
(1157,56,o),
(1248,111,q),
(1248,620,l),
(879,620,l),
(879,565,l),
(1194,565,l),
(1194,141,l),
(1118,98,o),
(902,33,o),
(768,33,qs),
(584,33,o),
(323,207,o),
(184,517,o),
(184,720,qs),
(184,760,ls),
(184,956,o),
(334,1254,o),
(592,1423,o),
(754,1423,qs),
(900,1423,o),
(1085,1354,o),
(1159,1296,q),
(1159,1072,l),
(1213,1072,l),
(1213,1324,l),
(1123,1394,o),
(908,1477,o),
(754,1477,qs),
(574,1477,o),
(292,1295,o),
(130,971,o),
(130,758,qs),
(130,720,ls),
(130,500,o),
(284,166,o),
(571,-21,o),
(770,-21,qs),
(925,-21,o)
);
}
);
width = 1417;
}
);
note = G;
unicode = 71;
},
{
glyphname = H;
layers = (
{
layerId = m01;
shapes = (
{
closed = 1;
nodes = (
(451,54,l),
(288,54,l),
(288,695,l),
(1218,695,l),
(1218,54,l),
(1055,54,l),
(1055,0,l),
(1435,0,l),
(1435,54,l),
(1272,54,l),
(1272,1402,l),
(1435,1402,l),
(1435,1456,l),
(1272,1456,l),
(1218,1456,l),
(1055,1456,l),
(1055,1402,l),
(1218,1402,l),
(1218,749,l),
(288,749,l),
(288,1402,l),
(451,1402,l),
(451,1456,l),
(71,1456,l),
(71,1402,l),
(234,1402,l),
(234,54,l),
(71,54,l),
(71,0,l),
(451,0,l)
);
}
);
width = 1506;
}
);
note = H;
unicode = 72;
},
{
glyphname = I;
layers = (
{
layerId = m01;
shapes = (
{
closed = 1;
nodes = (
(451,54,l),
(288,54,l),
(288,1402,l),
(451,1402,l),
(451,1456,l),
(71,1456,l),
(71,1402,l),
(234,1402,l),
(234,54,l),
(71,54,l),
(71,0,l),
(451,0,l)
);
}
);
width = 522;
}
);
note = I;
unicode = 73;
},
{
glyphname = J;
layers = (
{
layerId = m01;
shapes = (
{
closed = 1;
nodes = (
(776,88,o),
(880,287,o),
(880,422,qs),
(880,1402,l),
(1043,1402,l),
(1043,1456,l),
(640,1456,l),
(640,1402,l),
(826,1402,l),
(826,422,ls),
(826,303,o),
(734,128,o),
(573,33,o),
(471,33,qs),
(288,33,o),
(94,223,o),
(94,401,q),
(48,401,l),
(46,395,l),
(43,259,o),
(145,74,o),
(338,-21,o),
(471,-21,qs),
(591,-21,o)
);
}
);
width = 1137;
}
);
note = J;
unicode = 74;
},
{
glyphname = K;
layers = (
{
layerId = m01;
shapes = (
{
closed = 1;
nodes = (
(1282,1402,l),
(1282,1456,l),
(921,1456,l),
(921,1402,l),
(1089,1402,l),
(1091,1397,l),
(250,453,l),
(270,391,l),
(1167,1402,l)
);
},
{
closed = 1;
nodes = (
(451,54,l),
(288,54,l),
(288,1402,l),
(451,1402,l),
(451,1456,l),
(71,1456,l),
(71,1402,l),
(234,1402,l),
(234,54,l),
(71,54,l),
(71,0,l),
(451,0,l)
);
},
{
closed = 1;
nodes = (
(1328,54,l),
(1210,54,l),
(641,832,l),
(591,803,l),
(1133,60,l),
(1130,54,l),
(967,54,l),
(967,0,l),
(1328,0,l)
);
}
);
width = 1388;
}
);
note = K;
unicode = 75;
},
{
glyphname = L;
layers = (
{
layerId = m01;
shapes = (
{
closed = 1;
nodes = (
(1036,293,l),
(982,293,l),
(982,54,l),
(289,54,l),
(289,1402,l),
(452,1402,l),
(452,1456,l),
(289,1456,l),
(234,1456,l),
(71,1456,l),
(71,1402,l),
(234,1402,l),
(234,54,l),
(71,54,l),
(71,0,l),
(1036,0,l)
);
}
);
width = 1161;
}
);
note = L;
unicode = 76;
},
{
glyphname = M;
layers = (
{
layerId = m01;
shapes = (
{
closed = 1;
nodes = (
(451,54,l),
(288,54,l),
(288,872,l),
(288,1354,l),
(294,1356,l),
(889,0,l),
(932,0,l),
(1530,1363,l),
(1536,1361,l),
(1536,845,l),
(1536,54,l),
(1373,54,l),
(1373,0,l),
(1753,0,l),
(1753,54,l),
(1590,54,l),
(1590,1402,l),
(1753,1402,l),
(1753,1456,l),
(1511,1456,l),
(913,86,l),
(907,86,l),
(311,1456,l),
(234,1456,l),
(71,1456,l),
(71,1402,l),
(234,1402,l),
(234,54,l),
(71,54,l),
(71,0,l),
(451,0,l)
);
}
);
width = 1824;
}
);
note = M;
unicode = 77;
},
{
glyphname = N;
layers = (
{
layerId = m01;
shapes = (
{
closed = 1;
nodes = (
(452,54,l),
(289,54,l),
(289,1354,l),
(295,1356,l),
(1229,0,l),
(1283,0,l),
(1283,1402,l),
(1446,1402,l),
(1446,1456,l),
(1283,1456,l),
(1066,1456,l),
(1066,1402,l),
(1229,1402,l),
(1229,105,l),
(1223,103,l),
(289,1456,l),
(234,1456,l),
(71,1456,l),
(71,1402,l),
(234,1402,l),
(234,54,l),
(71,54,l),
(71,0,l),
(452,0,l)
);
}
);
width = 1517;
}
);
note = N;
unicode = 78;
},
{
glyphname = O;
layers = (
{
layerId = m01;
shapes = (
{
closed = 1;
nodes = (
(1099,84,o),
(1260,278,o),
(1348,551,o),
(1348,719,qs),
(1348,737,ls),
(1348,905,o),
(1260,1177,o),
(1097,1372,o),
(873,1477,o),
(738,1477,qs),
(602,1477,o),
(379,1372,o),
(217,1177,o),
(130,905,o),
(130,737,qs),
(130,719,ls),
(130,551,o),
(218,279,o),
(380,84,o),
(604,-21,o),
(740,-21,qs),
(875,-21,o)
);
},
{
closed = 1;
nodes = (
(322,203,o),
(185,512,o),
(185,719,qs),
(185,739,ls),
(185,945,o),
(322,1253,o),
(570,1423,o),
(738,1423,qs),
(907,1423,o),
(1157,1253,o),
(1294,945,o),
(1294,739,qs),
(1294,719,ls),
(1294,512,o),
(1158,203,o),
(909,33,o),
(740,33,qs),
(571,33,o)
);
}
);
width = 1488;
}
);
note = O;
unicode = 79;
},
{
glyphname = P;
layers = (
{
layerId = m01;
shapes = (
{
closed = 1;
nodes = (
(451,54,l),
(288,54,l),
(288,625,l),
(639,625,ls),
(790,625,o),
(1000,727,o),
(1109,914,o),
(1109,1041,qs),
(1109,1166,o),
(1000,1353,o),
(790,1456,o),
(639,1456,qs),
(234,1456,l),
(71,1456,l),
(71,1402,l),
(234,1402,l),
(234,54,l),
(71,54,l),
(71,0,l),
(451,0,l)
);
},
{
closed = 1;
nodes = (
(639,1402,ls),
(847,1402,o),
(1055,1197,o),
(1055,1039,qs),
(1055,885,o),
(846,679,o),
(639,679,qs),
(288,679,l),
(288,1402,l)
);
}
);
width = 1255;
}
);
note = P;
unicode = 80;
},
{
glyphname = Q;
layers = (
{
layerId = m01;
shapes = (
{
closed = 1;
nodes = (
(1033,56,l),
(1181,142,o),
(1348,487,o),
(1348,719,qs),
(1348,737,ls),
(1348,905,o),
(1260,1177,o),
(1097,1372,o),
(873,1477,o),
(738,1477,qs),
(602,1477,o),
(379,1372,o),
(217,1177,o),
(130,905,o),
(130,737,qs),
(130,719,ls),
(130,551,o),
(218,279,o),
(380,84,o),
(604,-21,o),
(740,-21,qs),
(804,-21,o),
(924,3,o),
(979,28,q),
(1308,-206,l),
(1343,-165,l)
);
},
{
closed = 1;
nodes = (
(322,203,o),
(185,512,o),
(185,719,qs),
(185,739,ls),
(185,945,o),
(322,1253,o),
(570,1423,o),
(738,1423,qs),
(907,1423,o),
(1157,1253,o),
(1294,945,o),
(1294,739,qs),
(1294,719,ls),
(1294,512,o),
(1158,203,o),
(909,33,o),
(740,33,qs),
(571,33,o)
);
}
);
width = 1478;
}
);
note = Q;
unicode = 81;
},
{
glyphname = R;
layers = (
{
layerId = m01;
shapes = (
{
closed = 1;
nodes = (
(451,53,l),
(288,53,l),
(288,683,l),
(652,683,ls),
(796,683,o),
(1013,772,o),
(1134,943,o),
(1134,1065,qs),
(1134,1193,o),
(1023,1366,o),
(810,1455,o),
(656,1455,qs),
(71,1455,l),
(71,1401,l),
(234,1401,l),
(234,53,l),
(71,53,l),
(71,-1,l),
(451,-1,l)
);
},
{
closed = 1;
nodes = (
(1236,53,l),
(1103,53,l),
(816,718,l),
(762,718,l),
(1067,-1,l),
(1236,-1,l)
);
},
{
closed = 1;
nodes = (
(656,1401,ls),
(867,1401,o),
(1080,1228,o),
(1080,1065,qs),
(1080,925,o),
(872,737,o),
(651,737,qs),
(288,737,l),
(288,1401,l)
);
}
);
width = 1364;
}
);
note = R;
unicode = 82;
},
{
glyphname = S;
layers = (
{
layerId = m01;
shapes = (
{
closed = 1;
nodes = (
(954,69,o),
(1083,236,o),
(1083,351,qs),
(1083,523,o),
(836,716,o),
(594,781,qs),
(428,826,o),
(252,924,o),
(186,1049,o),
(186,1131,qs),
(186,1209,o),
(278,1342,o),
(455,1423,o),
(582,1423,qs),
(699,1423,o),
(903,1357,o),
(981,1292,q),
(981,1088,l),
(1035,1088,l),
(1035,1322,l),
(950,1393,o),
(723,1477,o),
(582,1477,qs),
(447,1477,o),
(244,1389,o),
(132,1233,o),
(132,1129,qs),
(132,1023,o),
(217,879,o),
(413,775,o),
(579,729,qs),
(745,683,o),
(941,577,o),
(1028,441,o),
(1028,349,qs),
(1028,256,o),
(915,113,o),
(717,33,o),
(589,33,qs),
(484,33,o),
(262,96,o),
(154,164,q),
(154,390,l),
(100,390,l),
(100,133,l),
(219,53,o),
(472,-21,o),
(589,-21,qs),
(731,-21,o)
);
}
);
width = 1183;
}
);
note = S;
unicode = 83;
},
{
glyphname = T;
layers = (
{
layerId = m01;
shapes = (
{
closed = 1;
nodes = (
(827,54,l),
(664,54,l),
(664,1402,l),
(1140,1402,l),
(1140,1163,l),
(1194,1163,l),
(1194,1456,l),
(80,1456,l),
(80,1163,l),
(134,1163,l),
(134,1402,l),
(610,1402,l),
(610,54,l),
(447,54,l),
(447,0,l),
(827,0,l)
);
}
);
width = 1277;
}
);
note = T;
unicode = 84;
},
{
glyphname = U;
layers = (
{
layerId = m01;
shapes = (
{
closed = 1;
nodes = (
(1092,92,o),
(1218,310,o),
(1218,469,qs),
(1218,1402,l),
(1381,1402,l),
(1381,1456,l),
(1001,1456,l),
(1001,1402,l),
(1164,1402,l),
(1164,469,ls),
(1164,332,o),
(1051,137,o),
(851,33,o),
(721,33,qs),
(590,33,o),
(390,137,o),
(277,332,o),
(277,469,qs),
(277,1402,l),
(440,1402,l),
(440,1456,l),
(60,1456,l),
(60,1402,l),
(223,1402,l),
(223,469,ls),
(223,311,o),
(348,92,o),
(572,-21,o),
(721,-21,qs),
(868,-21,o)
);
}
);
width = 1441;
}
);
note = U;
unicode = 85;
},
{
glyphname = V;
layers = (
{
layerId = m01;
shapes = (
{
closed = 1;
nodes = (
(1276,1402,l),
(1383,1402,l),
(1383,1456,l),
(1064,1456,l),
(1064,1402,l),
(1217,1402,l),
(748,142,l),
(722,63,l),
(716,63,l),
(690,142,l),
(221,1402,l),
(374,1402,l),
(374,1456,l),
(55,1456,l),
(55,1402,l),
(162,1402,l),
(686,0,l),
(752,0,l)
);
}
);
width = 1434;
}
);
note = V;
unicode = 86;
},
{
glyphname = W;
layers = (
{
layerId = m01;
shapes = (
{
closed = 1;
nodes = (
(962,1214,l),
(1008,1359,l),
(1014,1359,l),
(1062,1214,l),
(1443,0,l),
(1504,0,l),
(1862,1402,l),
(1963,1402,l),
(1963,1456,l),
(1644,1456,l),
(1644,1402,l),
(1803,1402,l),
(1537,330,l),
(1472,101,l),
(1466,101,l),
(1404,330,l),
(1042,1456,l),
(982,1456,l),
(618,330,l),
(555,101,l),
(549,101,l),
(486,330,l),
(217,1402,l),
(377,1402,l),
(377,1456,l),
(57,1456,l),
(57,1402,l),
(158,1402,l),
(517,0,l),
(578,0,l)
);
}
);
width = 2000;
}
);
note = W;
unicode = 87;
},
{
glyphname = X;
layers = (
{
layerId = m01;
shapes = (
{
closed = 1;
nodes = (
(403,54,l),
(238,54,l),
(691,701,l),
(1145,54,l),
(980,54,l),
(980,0,l),
(1327,0,l),
(1327,54,l),
(1212,54,l),
(726,743,l),
(1191,1402,l),
(1306,1402,l),
(1306,1456,l),
(959,1456,l),
(959,1402,l),
(1124,1402,l),
(691,785,l),
(259,1402,l),
(425,1402,l),
(425,1456,l),
(77,1456,l),
(77,1402,l),
(192,1402,l),
(658,743,l),
(172,54,l),
(57,54,l),
(57,0,l),
(403,0,l)
);
}
);
width = 1384;
}
);
note = X;
unicode = 88;
},
{
glyphname = Y;
layers = (
{
layerId = m01;
shapes = (
{
closed = 1;
nodes = (
(907,54,l),
(744,54,l),
(744,553,l),
(1258,1402,l),
(1378,1402,l),
(1378,1456,l),
(1052,1456,l),
(1052,1402,l),
(1193,1402,l),
(742,647,l),
(716,599,l),
(715,597,l),
(689,647,l),
(240,1402,l),
(381,1402,l),
(381,1456,l),
(55,1456,l),
(55,1402,l),
(174,1402,l),
(689,553,l),
(689,54,l),
(526,54,l),
(526,0,l),
(907,0,l)
);
}
);
width = 1429;
}
);
note = Y;
unicode = 89;
},
{
glyphname = Z;
layers = (
{
layerId = m01;
shapes = (
{
closed = 1;
nodes = (
(1128,293,l),
(1074,293,l),
(1074,54,l),
(166,54,l),
(1096,1418,l),
(1096,1456,l),
(132,1456,l),
(132,1163,l),
(186,1163,l),
(186,1403,l),
(1021,1403,l),
(92,44,l),
(92,0,l),
(1128,0,l)
);
}
);
width = 1220;
}
);
note = Z;
unicode = 90;
},
{
glyphname = a;
layers = (
{
layerId = m01;
shapes = (
{
closed = 1;
nodes = (
(766,101,o),
(827,199,q),
(827,146,o),
(836,71,o),
(849,0,q),
(1046,0,l),
(1046,54,l),
(896,54,l),
(888,94,o),
(881,176,o),
(881,218,qs),
(881,740,ls),
(881,907,o),
(692,1102,o),
(505,1102,qs),
(397,1102,o),
(232,1027,o),
(165,965,q),
(165,759,l),
(219,759,l),
(219,936,l),
(270,983,o),
(416,1049,o),
(504,1049,qs),
(671,1049,o),
(827,877,o),
(827,742,qs),
(827,604,l),
(578,604,ls),
(434,604,o),
(221,520,o),
(104,371,o),
(104,274,qs),
(104,142,o),
(275,-21,o),
(417,-21,qs),
(553,-21,o)
);
},
{
closed = 1;
nodes = (
(158,169,o),
(158,270,qs),
(158,394,o),
(390,549,o),
(581,549,qs),
(827,549,l),
(827,292,l),
(770,170,o),
(540,32,o),
(417,32,qs),
(304,32,o)
);
}
);
width = 1116;
}
);
note = a;
unicode = 97;
},
{
glyphname = b;
layers = (
{
layerId = m01;
shapes = (
{
closed = 1;
nodes = (
(887,111,o),
(984,354,o),
(984,521,qs),
(984,542,ls),
(984,713,o),
(886,965,o),
(703,1102,o),
(576,1102,qs),
(447,1102,o),
(263,986,o),
(209,885,q),
(209,1560,l),
(-8,1560,l),
(-8,1506,l),
(155,1506,l),
(155,0,l),
(200,0,l),
(207,173,l),
(260,84,o),
(449,-21,o),
(578,-21,qs),
(705,-21,o)
);
},
{
closed = 1;
nodes = (
(248,164,o),
(209,274,q),
(209,770,l),
(246,887,o),
(419,1048,o),
(577,1048,qs),
(691,1048,o),
(848,920,o),
(928,692,o),
(928,542,qs),
(928,521,ls),
(928,297,o),
(750,33,o),
(579,33,qs),
(435,33,o)
);
}
);
width = 1088;
}
);
note = b;
unicode = 98;
},
{
glyphname = c;
layers = (
{
layerId = m01;
shapes = (
{
closed = 1;
nodes = (
(819,55,o),
(925,206,o),
(937,317,q),
(935,323,l),
(889,323,l),
(871,175,o),
(682,33,o),
(543,33,qs),
(427,33,o),
(254,156,o),
(158,376,o),
(158,520,qs),
(158,562,ls),
(158,705,o),
(253,924,o),
(425,1048,o),
(539,1048,qs),
(640,1048,o),
(802,973,o),
(866,905,q),
(866,693,l),
(920,693,l),
(920,925,l),
(855,999,o),
(660,1102,o),
(538,1102,qs),
(411,1102,o),
(215,967,o),
(104,724,o),
(104,562,qs),
(104,520,ls),
(104,358,o),
(218,115,o),
(416,-21,o),
(540,-21,qs),
(650,-21,o)
);
}
);
width = 1082;
}
);
note = c;
unicode = 99;
},
{
glyphname = d;
layers = (
{
layerId = m01;
shapes = (
{
closed = 1;
nodes = (
(826,84,o),
(879,173,q),
(881,0,l),
(1096,0,l),
(1096,54,l),
(933,54,l),
(933,1560,l),
(879,1560,l),
(716,1560,l),
(716,1506,l),
(879,1506,l),
(879,883,l),
(824,985,o),
(640,1102,o),
(512,1102,qs),
(384,1102,o),
(201,965,o),
(104,713,o),
(104,542,qs),
(104,521,ls),
(104,354,o),
(201,111,o),
(383,-21,o),
(510,-21,qs),
(638,-21,o)
);
},
{
closed = 1;
nodes = (
(160,297,o),
(160,521,qs),
(160,542,ls),
(160,692,o),
(240,920,o),
(396,1048,o),
(511,1048,qs),
(666,1048,o),
(840,891,o),
(879,775,q),
(879,268,l),
(837,161,o),
(650,33,o),
(509,33,qs),
(337,33,o)
);
}
);
width = 1205;
}
);
note = d;
unicode = 100;
},
{
glyphname = e;
layers = (
{
layerId = m01;
shapes = (
{
closed = 1;
nodes = (
(850,59,o),
(917,123,q),
(888,165,l),
(826,104,o),
(667,33,o),
(564,33,qs),
(448,33,o),
(268,155,o),
(166,366,o),
(166,500,qs),
(166,577,l),
(957,577,l),
(957,660,ls),
(957,795,o),
(856,993,o),
(673,1102,o),
(551,1102,qs),
(425,1102,o),
(226,962,o),
(112,719,o),
(112,564,qs),
(112,500,ls),
(112,347,o),
(230,112,o),
(434,-21,o),
(564,-21,qs),
(680,-21,o)
);
},
{
closed = 1;
nodes = (
(183,754,o),
(285,940,o),
(449,1048,o),
(551,1048,qs),
(658,1048,o),
(816,948,o),
(903,774,o),
(903,664,qs),
(903,631,l),
(177,631,l),
(174,637,l)
);
}
);
width = 1084;
}
);
note = e;
unicode = 101;
},
{
glyphname = f;
layers = (
{
layerId = m01;
shapes = (
{
closed = 1;
nodes = (
(494,54,l),
(331,54,l),
(331,1027,l),
(617,1027,l),
(617,1082,l),
(331,1082,l),
(331,1260,ls),
(331,1385,o),
(453,1527,o),
(561,1527,qs),
(599,1527,o),
(648,1520,o),
(680,1512,q),
(688,1564,l),
(658,1573,o),
(593,1581,o),
(560,1581,qs),
(426,1581,o),
(277,1413,o),
(277,1260,qs),
(277,1082,l),
(89,1082,l),
(89,1027,l),
(277,1027,l),
(277,54,l),
(114,54,l),
(114,0,l),
(494,0,l)
);
}
);
width = 722;
}
);
note = f;
unicode = 102;
},
{
glyphname = g;
layers = (
{
layerId = m01;
shapes = (
{
closed = 1;
nodes = (
(834,-327,o),
(933,-124,o),
(933,14,qs),
(933,1082,l),
(887,1082,l),
(879,882,l),
(825,984,o),
(640,1102,o),
(512,1102,qs),
(384,1102,o),
(201,965,o),
(104,714,o),
(104,542,qs),
(104,521,ls),
(104,355,o),
(201,111,o),
(383,-21,o),
(510,-21,qs),
(637,-21,o),
(824,83,o),
(878,171,q),
(878,14,ls),
(878,-171,o),
(695,-384,o),
(522,-384,qs),
(435,-384,o),
(299,-353,o),
(226,-321,q),
(210,-375,l),
(274,-404,o),
(445,-437,o),
(524,-437,qs),
(651,-437,o)
);
},
{
closed = 1;
nodes = (
(159,297,o),
(159,521,qs),
(159,542,ls),
(159,692,o),
(240,920,o),
(397,1048,o),
(511,1048,qs),
(669,1048,o),
(840,886,o),
(878,767,q),
(878,276,l),
(838,165,o),
(653,33,o),
(509,33,qs),
(337,33,o)
);
},
{
closed = 1;
nodes = (
(1076,1082,l),
(906,1082,l),
(913,1028,l),
(1076,1028,l)
);
}
);
width = 1155;
}
);
note = g;
unicode = 103;
},
{
glyphname = h;
layers = (
{
layerId = m01;
shapes = (
{
closed = 1;
nodes = (
(442,54,l),
(279,54,l),
(279,676,l),
(303,839,o),
(489,1048,o),
(664,1048,qs),
(795,1048,o),
(952,873,o),
(952,660,qs),
(952,54,l),
(789,54,l),
(789,0,l),
(1170,0,l),
(1170,54,l),
(1007,54,l),
(1007,658,ls),
(1007,888,o),
(832,1102,o),
(663,1102,qs),
(523,1102,o),
(329,972,o),
(279,854,q),
(279,1560,l),
(62,1560,l),
(62,1506,l),
(225,1506,l),
(225,54,l),
(62,54,l),
(62,0,l),
(442,0,l)
);
}
);
width = 1278;
}
);
note = h;
unicode = 104;
},
{
glyphname = i;
layers = (
{
layerId = m01;
shapes = (
{
closed = 1;
nodes = (
(469,54,l),
(306,54,l),
(306,1082,l),
(89,1082,l),
(89,1028,l),
(252,1028,l),
(252,54,l),
(89,54,l),
(89,0,l),
(469,0,l)
);
},
{
closed = 1;
nodes = (
(306,1560,l),
(234,1560,l),
(234,1420,l),
(306,1420,l)
);
}
);
width = 609;
}
);
note = i;
unicode = 105;
},
{
glyphname = j;
layers = (
{
layerId = m01;
shapes = (
{
closed = 1;
nodes = (
(393,-256,o),
(393,-89,qs),
(393,1082,l),
(176,1082,l),
(176,1028,l),
(339,1028,l),
(339,-89,ls),
(339,-230,o),
(218,-383,o),
(108,-383,qs),
(82,-383,o),
(27,-371,o),
(9,-365,q),
(-4,-417,l),
(26,-427,o),
(78,-437,o),
(108,-437,qs),
(243,-437,o)
);
},
{
closed = 1;
nodes = (
(387,1560,l),
(315,1560,l),
(315,1420,l),
(387,1420,l)
);
}
);
width = 563;
}
);
note = j;
unicode = 106;
},
{
glyphname = k;
layers = (
{
layerId = m01;
shapes = (
{
closed = 1;
nodes = (
(442,54,l),
(279,54,l),
(279,1560,l),
(62,1560,l),
(62,1506,l),
(225,1506,l),
(225,54,l),
(62,54,l),
(62,0,l),
(442,0,l)
);
},
{
closed = 1;
nodes = (
(1081,54,l),
(964,54,l),
(528,649,l),
(490,614,l),
(889,59,l),
(887,54,l),
(761,54,l),
(761,0,l),
(1081,0,l)
);
},
{
closed = 1;
nodes = (
(1038,1028,l),
(1038,1082,l),
(717,1082,l),
(717,1028,l),
(836,1028,l),
(838,1022,l),
(251,400,l),
(269,346,l),
(916,1028,l)
);
}
);
width = 1154;
}
);
note = k;
unicode = 107;
},
{
glyphname = l;
layers = (
{
layerId = m01;
shapes = (
{
closed = 1;
nodes = (
(462,54,l),
(299,54,l),
(299,1560,l),
(82,1560,l),
(82,1506,l),
(245,1506,l),
(245,54,l),
(82,54,l),
(82,0,l),
(462,0,l)
);
}
);
width = 581;
}
);
note = l;
unicode = 108;
},
{
glyphname = m;
layers = (
{
layerId = m01;
shapes = (
{
closed = 1;
nodes = (
(470,54,l),
(307,54,l),
(307,694,l),
(331,851,o),
(505,1048,o),
(673,1048,qs),
(814,1048,o),
(982,855,o),
(982,619,qs),
(982,54,l),
(819,54,l),
(819,0,l),
(1200,0,l),
(1200,54,l),
(1037,54,l),
(1037,682,l),
(1057,842,o),
(1233,1049,o),
(1405,1049,qs),
(1545,1049,o),
(1713,855,o),
(1713,620,qs),
(1713,55,l),
(1550,55,l),
(1550,1,l),
(1931,1,l),
(1931,55,l),
(1768,55,l),
(1768,618,ls),
(1768,869,o),
(1582,1103,o),
(1403,1103,qs),
(1257,1103,o),
(1062,948,o),
(1019,810,q),
(986,959,o),
(811,1102,o),
(671,1102,qs),
(539,1102,o),
(355,974,o),
(306,859,q),
(299,1082,l),
(89,1082,l),
(89,1028,l),
(252,1028,l),
(252,54,l),
(89,54,l),
(89,0,l),
(470,0,l)
);
}
);
width = 1980;
}
);
note = m;
unicode = 109;
},
{
glyphname = n;
layers = (
{
layerId = m01;
shapes = (
{
closed = 1;
nodes = (
(469,54,l),
(306,54,l),
(306,676,l),
(328,839,o),
(506,1048,o),
(681,1048,qs),
(819,1048,o),
(980,864,o),
(980,639,qs),
(980,54,l),
(817,54,l),
(817,0,l),
(1197,0,l),
(1197,54,l),
(1034,54,l),
(1034,637,ls),
(1034,879,o),
(857,1102,o),
(680,1102,qs),
(542,1102,o),
(354,975,o),
(305,859,q),
(298,1082,l),
(89,1082,l),
(89,1028,l),
(252,1028,l),
(252,54,l),
(89,54,l),
(89,0,l),
(469,0,l)
);
}
);
width = 1320;
}
);
note = n;
unicode = 110;
},
{
glyphname = o;
layers = (
{
layerId = m01;
shapes = (
{
closed = 1;
nodes = (
(931,117,o),
(1051,361,o),
(1051,520,qs),
(1051,562,ls),
(1051,721,o),
(931,964,o),
(718,1102,o),
(577,1102,qs),
(437,1102,o),
(224,964,o),
(104,721,o),
(104,562,qs),
(104,520,ls),
(104,361,o),
(224,117,o),
(438,-21,o),
(579,-21,qs),
(718,-21,o)
);
},
{
closed = 1;
nodes = (
(261,163,o),
(158,384,o),
(158,520,qs),
(158,562,ls),
(158,695,o),
(261,916,o),
(450,1048,o),
(577,1048,qs),
(704,1048,o),
(893,916,o),
(997,695,o),
(997,562,qs),
(997,520,ls),
(997,385,o),
(894,164,o),
(706,33,o),
(579,33,qs),
(450,33,o)
);
}
);
width = 1155;
}
);
note = o;
unicode = 111;
},
{
glyphname = p;
layers = (
{
layerId = m01;
shapes = (
{
closed = 1;
nodes = (
(445,-362,l),
(282,-362,l),
(282,168,l),
(335,81,o),
(524,-21,o),
(651,-21,qs),
(778,-21,o),
(960,111,o),
(1057,354,o),
(1057,521,qs),
(1057,542,ls),
(1057,713,o),
(959,965,o),
(776,1102,o),
(649,1102,qs),
(521,1102,o),
(335,988,o),
(281,888,q),
(270,1082,l),
(65,1082,l),
(65,1028,l),
(228,1028,l),
(228,-362,l),
(65,-362,l),
(65,-416,l),
(445,-416,l)
);
},
{
closed = 1;
nodes = (
(322,161,o),
(282,269,q),
(282,775,l),
(319,890,o),
(493,1048,o),
(650,1048,qs),
(764,1048,o),
(921,920,o),
(1002,692,o),
(1002,542,qs),
(1002,521,ls),
(1002,297,o),
(823,33,o),
(652,33,qs),
(510,33,o)
);
}
);
width = 1161;
}
);
note = p;
unicode = 112;
},
{
glyphname = q;
layers = (
{
layerId = m01;
shapes = (
{
closed = 1;
nodes = (
(1096,-362,l),
(933,-362,l),
(933,1082,l),
(884,1082,l),
(879,886,l),
(824,987,o),
(639,1102,o),
(512,1102,qs),
(384,1102,o),
(201,965,o),
(104,713,o),
(104,542,qs),
(104,521,ls),
(104,354,o),
(201,111,o),
(383,-21,o),
(510,-21,qs),
(637,-21,o),
(825,82,o),
(879,170,q),
(879,-362,l),
(716,-362,l),
(716,-416,l),
(1096,-416,l)
);
},
{
closed = 1;
nodes = (
(160,297,o),
(160,521,qs),
(160,542,ls),
(160,692,o),
(240,920,o),
(396,1048,o),
(511,1048,qs),
(665,1048,o),
(841,883,o),
(879,768,q),
(879,274,l),
(839,164,o),
(652,33,o),
(509,33,qs),
(337,33,o)
);
}
);
width = 1136;
}
);
note = q;
unicode = 113;
},
{
glyphname = r;
layers = (
{
layerId = m01;
shapes = (
{
closed = 1;
nodes = (
(469,54,l),
(306,54,l),
(306,709,l),
(333,862,o),
(514,1049,o),
(659,1049,q),
(749,1042,l),
(755,1090,l),
(741,1094,o),
(682,1102,o),
(659,1102,qs),
(529,1102,o),
(351,973,o),
(306,857,q),
(306,894,l),
(296,1082,l),
(89,1082,l),
(89,1028,l),
(252,1028,l),
(252,54,l),
(89,54,l),
(89,0,l),
(469,0,l)
);
}
);
width = 823;
}
);
note = r;
unicode = 114;
},
{
glyphname = s;
layers = (
{
layerId = m01;
shapes = (
{
closed = 1;
nodes = (
(867,137,o),
(867,264,qs),
(867,394,o),
(681,544,o),
(499,584,qs),
(368,613,o),
(232,682,o),
(183,770,o),
(183,828,qs),
(183,912,o),
(331,1048,o),
(478,1048,qs),
(584,1048,o),
(726,986,o),
(778,928,q),
(778,753,l),
(832,753,l),
(832,955,l),
(771,1022,o),
(594,1102,o),
(478,1102,qs),
(370,1102,o),
(213,1029,o),
(129,904,o),
(129,826,qs),
(129,702,o),
(292,572,o),
(483,532,qs),
(666,492,o),
(813,351,o),
(813,265,qs),
(813,173,o),
(637,33,o),
(487,33,qs),
(390,33,o),
(216,89,o),
(157,152,q),
(157,315,l),
(103,315,l),
(103,122,l),
(170,55,o),
(369,-21,o),
(487,-21,qs),
(659,-21,o)
);
}
);
width = 1009;
}
);
note = s;
unicode = 115;
},
{
glyphname = t;
layers = (
{
layerId = m01;
shapes = (
{
closed = 1;
nodes = (
(590,-15,o),
(620,-7,q),
(610,42,l),
(566,37,o),
(516,33,o),
(484,33,qs),
(410,33,o),
(320,146,o),
(320,279,qs),
(320,1027,l),
(586,1027,l),
(586,1082,l),
(320,1082,l),
(320,1374,l),
(265,1374,l),
(265,1082,l),
(65,1082,l),
(65,1027,l),
(265,1027,l),
(265,279,ls),
(265,121,o),
(378,-21,o),
(487,-21,qs),
(527,-21,o)
);
}
);
width = 719;
}
);
note = t;
unicode = 116;
},
{
glyphname = u;
layers = (
{
layerId = m01;
shapes = (
{
closed = 1;
nodes = (
(847,91,o),
(898,194,q),
(906,0,l),
(1114,0,l),
(1114,54,l),
(951,54,l),
(951,1082,l),
(896,1082,l),
(733,1082,l),
(733,1028,l),
(896,1028,l),
(896,336,l),
(871,199,o),
(700,33,o),
(531,33,qs),
(396,33,o),
(241,243,o),
(241,463,qs),
(241,1082,l),
(187,1082,l),
(44,1082,l),
(44,1028,l),
(187,1028,l),
(187,465,ls),
(187,216,o),
(369,-21,o),
(533,-21,qs),
(668,-21,o)
);
}
);
width = 1202;
}
);
note = u;
unicode = 117;
},
{
glyphname = v;
layers = (
{
layerId = m01;
shapes = (
{
closed = 1;
nodes = (
(1020,1028,l),
(1138,1028,l),
(1138,1082,l),
(820,1082,l),
(820,1028,l),
(962,1028,l),
(650,229,l),
(598,83,l),
(592,83,l),
(541,229,l),
(228,1028,l),
(370,1028,l),
(370,1082,l),
(52,1082,l),
(52,1028,l),
(170,1028,l),
(569,0,l),
(621,0,l)
);
}
);
width = 1165;
}
);
note = v;
unicode = 118;
},
{
glyphname = w;
layers = (
{
layerId = m01;
shapes = (
{
closed = 1;
nodes = (
(820,813,l),
(875,994,l),
(881,994,l),
(940,813,l),
(1222,0,l),
(1277,0,l),
(1596,1028,l),
(1719,1028,l),
(1719,1082,l),
(1386,1082,l),
(1386,1028,l),
(1534,1028,l),
(1318,313,l),
(1251,91,l),
(1245,90,l),
(1170,313,l),
(906,1082,l),
(851,1082,l),
(594,313,l),
(524,91,l),
(518,92,l),
(453,313,l),
(236,1028,l),
(384,1028,l),
(384,1082,l),
(52,1082,l),
(52,1028,l),
(174,1028,l),
(492,0,l),
(547,0,l)
);
}
);
width = 1787;
}
);
note = w;
unicode = 119;
},
{
glyphname = x;
layers = (
{
layerId = m01;
shapes = (
{
closed = 1;
nodes = (
(399,54,l),
(275,54,l),
(602,508,l),
(930,54,l),
(806,54,l),
(806,0,l),
(1123,0,l),
(1123,54,l),
(997,54,l),
(636,555,l),
(977,1028,l),
(1103,1028,l),
(1103,1082,l),
(785,1082,l),
(785,1028,l),
(909,1028,l),
(603,602,l),
(296,1028,l),
(420,1028,l),
(420,1082,l),
(102,1082,l),
(102,1028,l),
(228,1028,l),
(569,555,l),
(208,54,l),
(82,54,l),
(82,0,l),
(399,0,l)
);
}
);
width = 1192;
}
);
note = x;
unicode = 120;
},
{
glyphname = y;
layers = (
{
layerId = m01;
shapes = (
{
closed = 1;
nodes = (
(474,-372,o),
(543,-256,o),
(572,-180,qs),
(1032,1028,l),
(1150,1028,l),
(1150,1082,l),
(830,1082,l),
(830,1028,l),
(972,1028,l),
(613,88,l),
(607,88,l),
(567,196,l),
(232,1028,l),
(374,1028,l),
(374,1082,l),
(55,1082,l),
(55,1028,l),
(173,1028,l),
(583,6,l),
(518,-170,ls),
(478,-276,o),
(375,-384,o),
(283,-384,qs),
(271,-384,o),
(227,-378,o),
(216,-375,q),
(207,-426,l),
(218,-430,o),
(264,-437,o),
(283,-437,qs),
(368,-437,o)
);
}
);
width = 1185;
}
);
note = y;
unicode = 121;
},
{
glyphname = z;
layers = (
{
layerId = m01;
shapes = (
{
closed = 1;
nodes = (
(963,293,l),
(909,293,l),
(909,54,l),
(193,54,l),
(904,1034,l),
(904,1082,l),
(121,1082,l),
(121,789,l),
(175,789,l),
(175,1027,l),
(831,1027,l),
(120,44,l),
(120,0,l),
(963,0,l)
);
}
);
width = 1077;
}
);
note = z;
unicode = 122;
},
{
glyphname = uni1780;
layers = (
{
layerId = m01;
shapes = (
{
closed = 1;
nodes = (
(1113,1054,o),
(1138,1054,qs),
(1203,1054,o),
(1226,1165,q),
(1201,1123,o),
(1171,1118,q),
(1165,1118,ls),
(1135,1118,o),
(1084,1161,qs),
(915,1303,l),
(738,1129,l),
(527,1303,l),
(216,1117,l),
(216,1065,l),
(329,976,ls),
(360,952,o),
(378,952,qs),
(395,952,o),
(430,975,q),
(281,1094,l),
(510,1231,l),
(726,1055,l),
(904,1226,l),
(1009,1140,ls)
);
},
{
closed = 1;
nodes = (
(392,878,o),
(651,878,qs),
(791,878,ls),
(1051,878,o),
(1051,698,qs),
(1051,0,l),
(1113,0,l),
(1113,698,ls),
(1113,931,o),
(791,931,qs),
(651,931,ls),
(329,931,o),
(329,698,qs),
(329,0,l),
(392,0,l),
(392,698,ls)
);
}
);
width = 1442;
}
);
note = uni1780;
unicode = 6016;
},
{
glyphname = uni1781;
layers = (
{
layerId = m01;
shapes = (
{
closed = 1;
nodes = (
(528,948,o),
(528,884,qs),
(528,799,o),
(422,799,qs),
(392,799,o),
(392,838,qs),
(392,948,l),
(422,948,ls)
);
},
{
closed = 1;
nodes = (
(690,630,qs),
(329,448,l),
(329,233,ls),
(329,0,o),
(651,0,qs),
(791,0,ls),
(1113,0,o),
(1113,372,qs),
(1113,555,l),
(1050,478,l),
(1050,372,ls),
(1050,53,o),
(791,53,qs),
(651,53,ls),
(392,53,o),
(392,233,qs),
(392,428,l),
(753,610,ls),
(1113,791,o),
(1113,931,qs),
(1113,1071,ls),
(1113,1303,o),
(791,1303,qs),
(651,1303,ls),
(329,1303,o),
(329,1071,qs),
(329,838,ls),
(329,745,o),
(422,745,qs),
(582,745,o),
(582,884,qs),
(582,1001,o),
(422,1001,qs),
(392,1001,l),
(392,1071,ls),
(392,1250,o),
(651,1250,qs),
(791,1250,ls),
(1050,1250,o),
(1050,1071,qs),
(1050,931,ls),
(1050,811,o)
);
}
);
width = 1442;
}
);
note = uni1781;
unicode = 6017;
},
{
glyphname = uni1782;
layers = (
{
layerId = m01;
shapes = (
{
closed = 1;
nodes = (
(1113,1054,o),
(1138,1054,qs),
(1203,1054,o),
(1226,1165,q),
(1201,1123,o),
(1171,1118,q),
(1165,1118,ls),
(1135,1118,o),
(1084,1161,qs),
(915,1303,l),
(738,1129,l),
(527,1303,l),
(216,1117,l),
(216,1065,l),
(329,976,ls),
(360,952,o),
(378,952,qs),
(395,952,o),
(430,975,q),
(281,1094,l),
(510,1231,l),
(726,1055,l),
(904,1226,l),
(1009,1140,ls)
);
},
{
closed = 1;
nodes = (
(392,878,o),
(651,878,qs),
(791,878,ls),
(1051,878,o),
(1051,698,qs),
(1051,0,l),
(1113,0,l),
(1113,698,ls),
(1113,931,o),
(791,931,qs),
(651,931,ls),
(329,931,o),
(329,698,qs),
(329,0,l),
(392,0,l),
(392,21,l),
(547,347,o),
(670,347,qs),
(704,347,o),
(721,340,qs),
(736,333,o),
(750,333,qs),
(754,333,ls),
(770,334,o),
(770,359,qs),
(770,383,o),
(715,400,o),
(670,400,qs),
(524,400,o),
(392,113,q),
(392,698,ls)
);
}
);
width = 1442;
}
);
note = uni1782;
unicode = 6018;
},
{
glyphname = uni1783;
layers = (
{
layerId = m01;
shapes = (
{
closed = 1;
nodes = (
(186,914,o),
(186,1004,qs),
(186,1067,o),
(272,1160,qs),
(329,1222,l),
(329,914,l),
(280,914,ls)
);
},
{
closed = 1;
nodes = (
(922,1018,l),
(1040,1216,l),
(1133,1156,ls),
(1170,1132,o),
(1198,1132,qs),
(1241,1132,o),
(1266,1187,q),
(1256,1186,o),
(1246,1186,qs),
(1202,1186,o),
(1164,1211,qs),
(1024,1303,l),
(867,1045,l),
(867,985,l),
(1050,882,l),
(1050,233,ls),
(1050,53,o),
(768,53,qs),
(675,53,ls),
(392,53,o),
(392,233,qs),
(392,1303,l),
(329,1303,l),
(231,1197,ls),
(133,1091,o),
(133,1003,qs),
(133,861,o),
(280,861,qs),
(329,861,l),
(329,233,ls),
(329,0,o),
(675,0,qs),
(768,0,ls),
(1009,0,o),
(1082,114,q),
(1154,0,o),
(1396,0,qs),
(1489,0,ls),
(1834,0,o),
(1834,233,qs),
(1834,909,l),
(1643,1018,l),
(1761,1216,l),
(1854,1156,ls),
(1891,1132,o),
(1919,1132,qs),
(1962,1132,o),
(1987,1187,q),
(1977,1186,o),
(1967,1186,qs),
(1923,1186,o),
(1885,1211,qs),
(1745,1303,l),
(1588,1045,l),
(1588,985,l),
(1771,882,l),
(1771,233,ls),
(1771,53,o),
(1489,53,qs),
(1396,53,ls),
(1113,53,o),
(1113,233,qs),
(1113,909,l)
);
}
);
width = 2164;
}
);
note = uni1783;
unicode = 6019;
},
{
glyphname = uni1784;
layers = (
{
layerId = m01;
shapes = (
{
closed = 1;
nodes = (
(847,1238,qs),
(944,1238,o),
(944,1166,qs),
(944,1094,o),
(847,1094,qs),
(750,1094,o),
(750,1166,qs),
(750,1238,o)
);
},
{
closed = 1;
nodes = (
(230,549,o),
(230,612,qs),
(230,671,o),
(305,752,qs),
(329,779,l),
(329,549,l),
(300,549,ls)
);
},
{
closed = 1;
nodes = (
(330,868,l),
(257,788,ls),
(167,690,o),
(167,611,qs),
(167,496,o),
(300,496,qs),
(329,496,l),
(329,0,l),
(392,0,l),
(721,240,l),
(1050,0,l),
(1113,0,l),
(1113,966,l),
(934,1049,l),
(1009,1083,o),
(1009,1166,qs),
(1009,1303,o),
(848,1303,qs),
(685,1303,o),
(685,1166,qs),
(685,1112,o),
(710,1094,q),
(558,1094,ls),
(393,1094,o),
(393,1164,qs),
(393,1334,ls),
(393,1489,o),
(285,1489,qs),
(186,1489,o),
(186,1443,q),
(329,1443,o),
(329,1334,qs),
(329,1164,ls),
(329,1041,o),
(558,1041,qs),
(807,1041,l),
(1050,941,l),
(1050,71,l),
(721,310,l),
(392,71,l),
(392,868,l)
);
}
);
width = 1442;
}
);
note = uni1784;
unicode = 6020;
},
{
glyphname = uni1785;
layers = (
{
layerId = m01;
shapes = (
{
closed = 1;
nodes = (
(951,572,o),
(951,635,qs),
(951,694,o),
(1026,775,qs),
(1051,802,l),
(1051,572,l),
(1021,572,ls)
);
},
{
closed = 1;
nodes = (
(1051,53,o),
(791,53,qs),
(651,53,ls),
(392,53,o),
(392,233,qs),
(392,985,l),
(281,1074,l),
(510,1231,l),
(726,1055,l),
(904,1226,l),
(1009,1140,ls),
(1113,1054,o),
(1138,1054,qs),
(1203,1054,o),
(1226,1165,q),
(1201,1123,o),
(1171,1118,q),
(1165,1118,ls),
(1135,1118,o),
(1084,1161,qs),
(915,1303,l),
(738,1129,l),
(527,1303,l),
(216,1097,l),
(216,1045,l),
(329,956,l),
(329,233,ls),
(329,0,o),
(651,0,qs),
(791,0,ls),
(1113,0,o),
(1113,233,qs),
(1113,891,l),
(1051,891,l),
(978,811,ls),
(888,713,o),
(888,634,qs),
(888,519,o),
(1021,519,qs),
(1051,519,l),
(1051,233,ls)
);
}
);
width = 1442;
}
);
note = uni1785;
unicode = 6021;
},
{
glyphname = uni1786;
layers = (
{
layerId = m01;
shapes = (
{
closed = 1;
nodes = (
(329,366,q),
(329,78,l),
(222,159,o),
(222,256,qs),
(222,366,o)
);
},
{
closed = 1;
nodes = (
(951,572,o),
(951,635,qs),
(951,694,o),
(1026,775,qs),
(1050,802,l),
(1050,572,l),
(1021,572,ls)
);
},
{
closed = 1;
nodes = (
(169,419,o),
(169,256,qs),
(169,130,o),
(267,50,qs),
(329,0,l),
(392,0,l),
(392,366,l),
(511,366,ls),
(671,366,o),
(671,217,qs),
(671,0,o),
(884,0,qs),
(1113,0,o),
(1113,233,qs),
(1113,891,l),
(1051,891,l),
(978,811,ls),
(888,713,o),
(888,634,qs),
(888,519,o),
(1021,519,qs),
(1050,519,l),
(1050,233,ls),
(1050,53,o),
(884,53,qs),
(724,53,o),
(724,217,qs),
(724,419,o),
(511,419,qs),
(392,419,l),
(392,985,l),
(281,1074,l),
(510,1231,l),
(726,1055,l),
(904,1226,l),
(1009,1140,ls),
(1113,1054,o),
(1138,1054,qs),
(1203,1054,o),
(1226,1165,q),
(1201,1123,o),
(1171,1118,q),
(1165,1118,ls),
(1135,1118,o),
(1084,1161,qs),
(915,1303,l),
(738,1129,l),
(527,1303,l),
(216,1097,l),
(216,1045,l),
(329,956,l),
(329,419,l)
);
}
);
width = 1442;
}
);
note = uni1786;
unicode = 6022;
},
{
glyphname = uni1787;
layers = (
{
layerId = m01;
shapes = (
{
closed = 1;
nodes = (
(721,310,l),
(392,71,l),
(392,985,l),
(281,1074,l),
(495,1228,l),
(726,1041,l),
(868,1041,ls),
(1113,1041,o),
(1113,1240,qs),
(1113,1443,o),
(957,1443,qs),
(884,1443,o),
(884,1410,q),
(1051,1410,o),
(1051,1240,qs),
(1051,1094,o),
(868,1094,qs),
(761,1094,l),
(507,1303,l),
(216,1097,l),
(216,1045,l),
(329,956,l),
(329,0,l),
(392,0,l),
(721,240,l),
(1051,0,l),
(1113,0,l),
(1113,861,l),
(1051,861,l),
(1051,71,l)
);
}
);
width = 1442;
}
);
note = uni1787;
unicode = 6023;
},
{
glyphname = uni1788;
layers = (
{
layerId = m01;
shapes = (
{
closed = 1;
nodes = (
(535,389,o),
(535,299,qs),
(535,236,o),
(449,143,qs),
(392,81,l),
(392,389,l),
(441,389,ls)
);
},
{
closed = 1;
nodes = (
(1772,53,o),
(1489,53,qs),
(1396,53,ls),
(1113,53,o),
(1113,233,qs),
(1113,1103,l),
(721,1303,l),
(329,1104,l),
(329,0,l),
(392,0,l),
(490,106,ls),
(588,212,o),
(588,300,qs),
(588,442,o),
(441,442,qs),
(392,442,l),
(392,1081,l),
(700,1241,l),
(1050,1066,l),
(1050,233,ls),
(1050,0,o),
(1396,0,qs),
(1489,0,ls),
(1731,0,o),
(1804,114,q),
(1876,0,o),
(2118,0,qs),
(2211,0,ls),
(2557,0,o),
(2557,233,qs),
(2557,909,l),
(2366,1018,l),
(2484,1216,l),
(2577,1156,ls),
(2614,1132,o),
(2642,1132,qs),
(2685,1132,o),
(2710,1187,q),
(2700,1186,o),
(2690,1186,qs),
(2646,1186,o),
(2608,1211,qs),
(2468,1303,l),
(2311,1045,l),
(2311,985,l),
(2494,882,l),
(2494,233,ls),
(2494,53,o),
(2211,53,qs),
(2118,53,ls),
(1835,53,o),
(1835,233,qs),
(1835,909,l),
(1644,1018,l),
(1762,1216,l),
(1855,1156,ls),
(1892,1132,o),
(1920,1132,qs),
(1963,1132,o),
(1988,1187,q),
(1978,1186,o),
(1968,1186,qs),
(1924,1186,o),
(1886,1211,qs),
(1746,1303,l),
(1589,1045,l),
(1589,985,l),
(1772,882,l),
(1772,233,ls)
);
}
);
width = 2885;
}
);
note = uni1788;
unicode = 6024;
},
{
glyphname = uni1789;
layers = (
{
layerId = m01;
shapes = (
{
closed = 1;
nodes = (
(1683,-93,qs),
(1606,-93,o),
(1606,-136,q),
(1773,-136,o),
(1773,-279,qs),
(1773,-505,o),
(1552,-505,qs),
(1314,-505,o),
(933,-140,o),
(611,-140,qs),
(495,-140,o),
(329,-237,o),
(329,-317,q),
(408,-235,o),
(515,-193,o),
(611,-193,qs),
(891,-193,o),
(1281,-559,o),
(1552,-559,qs),
(1835,-559,o),
(1835,-279,qs),
(1835,-93,o)
);
},
{
closed = 1;
nodes = (
(535,389,o),
(535,299,qs),
(535,236,o),
(449,143,qs),
(392,81,l),
(392,389,l),
(441,389,ls)
);
},
{
closed = 1;
nodes = (
(722,1130,l),
(555,1303,l),
(329,1056,l),
(329,0,l),
(392,0,l),
(490,106,ls),
(588,212,o),
(588,300,qs),
(588,442,o),
(441,442,qs),
(392,442,l),
(392,1046,l),
(553,1223,l),
(722,1047,l),
(891,1223,l),
(1050,1045,l),
(1050,0,l),
(1113,0,l),
(1113,1028,l),
(1443,1234,l),
(1772,1024,l),
(1772,0,l),
(1835,0,l),
(1835,1054,l),
(1443,1303,l),
(1083,1086,l),
(888,1303,l)
);
}
);
width = 2164;
}
);
note = uni1789;
unicode = 6025;
},
{
glyphname = uni178A;
layers = (
{
layerId = m01;
shapes = (
{
closed = 1;
nodes = (
(392,1174,qs),
(392,1250,o),
(466,1250,qs),
(529,1250,o),
(529,1164,q),
(582,1164,o),
(582,1213,qs),
(582,1303,o),
(464,1303,qs),
(329,1303,o),
(329,1174,qs),
(329,1001,o),
(675,1001,qs),
(768,1001,ls),
(1113,1001,o),
(1113,1221,qs),
(1113,1443,o),
(947,1443,qs),
(884,1443,o),
(884,1390,q),
(1050,1390,o),
(1050,1221,qs),
(1050,1054,o),
(768,1054,qs),
(675,1054,ls),
(392,1054,o)
);
},
{
closed = 1;
nodes = (
(721,310,l),
(392,71,l),
(392,861,l),
(329,861,l),
(329,0,l),
(392,0,l),
(721,240,l),
(1050,0,l),
(1113,0,l),
(1113,861,l),
(1050,861,l),
(1050,71,l)
);
}
);
width = 1442;
}
);
note = uni178A;
unicode = 6026;
},
{
glyphname = uni178B;
layers = (
{
layerId = m01;
shapes = (
{
closed = 1;
nodes = (
(186,914,o),
(186,1004,qs),
(186,1067,o),
(272,1160,qs),
(329,1222,l),
(329,914,l),
(280,914,ls)
);
},
{
closed = 1;
nodes = (
(329,0,o),
(675,0,qs),
(768,0,ls),
(1113,0,o),
(1113,233,qs),
(1113,909,l),
(922,1018,l),
(1020,1216,l),
(1113,1156,ls),
(1150,1132,o),
(1198,1132,qs),
(1302,1132,o),
(1302,1280,qs),
(1302,1489,o),
(1133,1489,qs),
(1070,1489,o),
(1070,1446,q),
(1239,1446,o),
(1239,1280,qs),
(1239,1186,o),
(1198,1186,qs),
(1182,1186,o),
(1144,1211,qs),
(1004,1303,l),
(867,1045,l),
(867,985,l),
(1050,882,l),
(1050,233,ls),
(1050,53,o),
(768,53,qs),
(675,53,ls),
(392,53,o),
(392,233,qs),
(392,1303,l),
(329,1303,l),
(231,1197,ls),
(133,1091,o),
(133,1003,qs),
(133,861,o),
(280,861,qs),
(329,861,l),
(329,233,ls)
);
}
);
width = 1442;
}
);
note = uni178B;
unicode = 6027;
},
{
glyphname = uni178C;
layers = (
{
layerId = m01;
shapes = (
{
closed = 1;
nodes = (
(422,948,ls),
(528,948,o),
(528,884,qs),
(528,799,o),
(422,799,qs),
(392,799,o),
(392,838,qs),
(392,948,l)
);
},
{
closed = 1;
nodes = (
(553,1223,l),
(722,1047,l),
(891,1223,l),
(1050,1045,l),
(1050,931,ls),
(1050,811,o),
(690,630,qs),
(329,448,l),
(329,277,ls),
(329,0,o),
(536,0,qs),
(554,0,l),
(1051,260,l),
(1051,117,ls),
(1051,0,o),
(884,0,q),
(884,-47,o),
(971,-47,qs),
(1113,-47,o),
(1113,115,qs),
(1113,535,l),
(1051,535,l),
(1051,317,l),
(541,53,l),
(392,53,o),
(392,277,qs),
(392,428,l),
(753,610,ls),
(1113,791,o),
(1113,931,qs),
(1113,1052,l),
(888,1303,l),
(722,1130,l),
(555,1303,l),
(329,1056,l),
(329,838,ls),
(329,745,o),
(422,745,qs),
(582,745,o),
(582,884,qs),
(582,1001,o),
(422,1001,qs),
(392,1001,l),
(392,1046,l)
);
}
);
width = 1442;
}
);
note = uni178C;
unicode = 6028;
},
{
glyphname = uni178D;
layers = (
{
layerId = m01;
shapes = (
{
closed = 1;
nodes = (
(535,389,o),
(535,299,qs),
(535,236,o),
(449,143,qs),
(392,81,l),
(392,389,l),
(441,389,ls)
);
},
{
closed = 1;
nodes = (
(1050,366,q),
(1050,78,l),
(943,159,o),
(943,256,qs),
(943,366,o)
);
},
{
closed = 1;
nodes = (
(890,419,o),
(890,256,qs),
(890,130,o),
(988,50,qs),
(1050,0,l),
(1113,0,l),
(1113,366,l),
(1232,366,ls),
(1392,366,o),
(1392,217,qs),
(1392,0,o),
(1605,0,qs),
(1834,0,o),
(1834,233,qs),
(1834,909,l),
(1643,1018,l),
(1761,1216,l),
(1854,1156,ls),
(1891,1132,o),
(1919,1132,qs),
(1962,1132,o),
(1987,1187,q),
(1977,1186,o),
(1967,1186,qs),
(1923,1186,o),
(1885,1211,qs),
(1745,1303,l),
(1588,1045,l),
(1588,985,l),
(1771,882,l),
(1771,233,ls),
(1771,53,o),
(1605,53,qs),
(1445,53,o),
(1445,217,qs),
(1445,419,o),
(1232,419,qs),
(1113,419,l),
(1113,1052,l),
(888,1303,l),
(722,1130,l),
(555,1303,l),
(329,1056,l),
(329,0,l),
(392,0,l),
(490,106,ls),
(588,212,o),
(588,300,qs),
(588,442,o),
(441,442,qs),
(392,442,l),
(392,1046,l),
(553,1223,l),
(722,1047,l),
(891,1223,l),
(1050,1045,l),
(1050,419,l)
);
}
);
width = 2164;
}
);
note = uni178D;
unicode = 6029;
},
{
glyphname = uni178E;
layers = (
{
layerId = m01;
shapes = (
{
closed = 1;
nodes = (
(535,389,o),
(535,299,qs),
(535,236,o),
(449,143,qs),
(392,81,l),
(392,389,l),
(441,389,ls)
);
},
{
closed = 1;
nodes = (
(392,0,l),
(490,106,ls),
(588,212,o),
(588,300,qs),
(588,442,o),
(441,442,qs),
(392,442,l),
(392,1081,l),
(700,1241,l),
(1050,1066,l),
(1050,0,l),
(1113,0,l),
(1442,240,l),
(1771,0,l),
(1834,0,l),
(1834,1081,l),
(2142,1241,l),
(2492,1066,l),
(2492,0,l),
(2555,0,l),
(2555,1103,l),
(2163,1303,l),
(1771,1104,l),
(1771,71,l),
(1442,310,l),
(1113,71,l),
(1113,1103,l),
(721,1303,l),
(329,1104,l),
(329,0,l)
);
}
);
width = 2885;
}
);
note = uni178E;
unicode = 6030;
},
{
glyphname = uni178F;
layers = (
{
layerId = m01;
shapes = (
{
closed = 1;
nodes = (
(1113,1054,o),
(1138,1054,qs),
(1203,1054,o),
(1226,1165,q),
(1201,1123,o),
(1171,1118,q),
(1165,1118,ls),
(1135,1118,o),
(1084,1161,qs),
(915,1303,l),
(738,1129,l),
(527,1303,l),
(216,1117,l),
(216,1065,l),
(329,976,ls),
(360,952,o),
(378,952,qs),
(395,952,o),
(430,975,q),
(281,1094,l),
(510,1231,l),
(726,1055,l),
(904,1226,l),
(1009,1140,ls)
);
},
{
closed = 1;
nodes = (
(535,389,o),
(535,299,qs),
(535,236,o),
(449,143,qs),
(392,81,l),
(392,389,l),
(441,389,ls)
);
},
{
closed = 1;
nodes = (
(392,0,l),
(490,106,ls),
(588,212,o),
(588,300,qs),
(588,442,o),
(441,442,qs),
(392,442,l),
(392,698,ls),
(392,878,o),
(651,878,qs),
(791,878,ls),
(1051,878,o),
(1051,698,qs),
(1051,0,l),
(1113,0,l),
(1113,698,ls),
(1113,931,o),
(791,931,qs),
(651,931,ls),
(329,931,o),
(329,698,qs),
(329,0,l)
);
}
);
width = 1442;
}
);
note = uni178F;
unicode = 6031;
},
{
glyphname = uni1790;
layers = (
{
layerId = m01;
shapes = (
{
closed = 1;
nodes = (
(951,572,o),
(951,635,qs),
(951,694,o),
(1026,775,qs),
(1051,802,l),
(1051,572,l),
(1021,572,ls)
);
},
{
closed = 1;
nodes = (
(281,1074,l),
(495,1228,l),
(726,1041,l),
(868,1041,ls),
(1113,1041,o),
(1113,1240,qs),
(1113,1443,o),
(957,1443,qs),
(884,1443,o),
(884,1410,q),
(1051,1410,o),
(1051,1240,qs),
(1051,1094,o),
(868,1094,qs),
(761,1094,l),
(507,1303,l),
(216,1097,l),
(216,1045,l),
(329,956,l),
(329,233,ls),
(329,0,o),
(651,0,qs),
(791,0,ls),
(1113,0,o),
(1113,233,qs),
(1113,891,l),
(1051,891,l),
(978,811,ls),
(888,713,o),
(888,634,qs),
(888,519,o),
(1021,519,qs),
(1051,519,l),
(1051,233,ls),
(1051,53,o),
(791,53,qs),
(651,53,ls),
(392,53,o),
(392,233,qs),
(392,985,l)
);
}
);
width = 1442;
}
);
note = uni1790;
unicode = 6032;
},
{
glyphname = uni1791;
layers = (
{
layerId = m01;
shapes = (
{
closed = 1;
nodes = (
(1060,625,qs),
(1060,567,o),
(998,567,qs),
(932,567,l),
(932,682,o),
(988,682,qs),
(1060,682,o)
);
},
{
closed = 1;
nodes = (
(976,938,qs),
(891,938,o),
(891,1024,q),
(838,1024,o),
(838,974,qs),
(838,884,o),
(976,884,qs),
(1113,884,o),
(1113,1031,qs),
(1113,1303,o),
(721,1303,qs),
(329,1303,o),
(329,1031,qs),
(329,815,ls),
(329,514,o),
(722,514,qs),
(869,514,l),
(869,280,ls),
(869,53,o),
(697,53,qs),
(525,53,o),
(525,193,qs),
(525,280,ls),
(525,420,o),
(429,420,qs),
(373,420,o),
(373,367,q),
(462,367,o),
(462,280,qs),
(462,193,ls),
(462,0,o),
(697,0,qs),
(932,0,o),
(932,281,qs),
(932,514,l),
(998,514,ls),
(1113,514,o),
(1113,626,qs),
(1113,736,o),
(988,736,qs),
(869,736,o),
(869,567,q),
(722,567,ls),
(392,567,o),
(392,815,qs),
(392,1031,ls),
(392,1250,o),
(721,1250,qs),
(1051,1250,o),
(1051,1031,qs),
(1051,938,o)
);
}
);
width = 1442;
}
);
note = uni1791;
unicode = 6033;
},
{
glyphname = uni1792;
layers = (
{
layerId = m01;
shapes = (
{
closed = 1;
nodes = (
(951,572,o),
(951,635,qs),
(951,694,o),
(1026,775,qs),
(1050,802,l),
(1050,572,l),
(1021,572,ls)
);
},
{
closed = 1;
nodes = (
(392,0,l),
(721,240,l),
(1050,0,l),
(1113,0,l),
(1113,891,l),
(1051,891,l),
(978,811,ls),
(888,713,o),
(888,634,qs),
(888,519,o),
(1021,519,qs),
(1050,519,l),
(1050,71,l),
(721,310,l),
(392,71,l),
(392,985,l),
(281,1074,l),
(510,1231,l),
(726,1055,l),
(904,1226,l),
(1009,1140,ls),
(1113,1054,o),
(1138,1054,qs),
(1203,1054,o),
(1226,1165,q),
(1201,1123,o),
(1171,1118,q),
(1165,1118,ls),
(1135,1118,o),
(1084,1161,qs),
(915,1303,l),
(738,1129,l),
(527,1303,l),
(216,1097,l),
(216,1045,l),
(329,956,l),
(329,0,l)
);
}
);
width = 1442;
}
);
note = uni1792;
unicode = 6034;
},
{
glyphname = uni1793;
layers = (
{
layerId = m01;
shapes = (
{
closed = 1;
nodes = (
(931,821,o),
(931,921,qs),
(931,994,o),
(1014,994,qs),
(1050,994,l),
(1050,860,ls),
(1050,821,o),
(1021,821,qs)
);
},
{
closed = 1;
nodes = (
(690,616,qs),
(1051,505,l),
(1051,217,ls),
(1051,53,o),
(887,53,qs),
(769,53,o),
(576,326,o),
(392,326,q),
(392,543,l),
(329,543,l),
(329,0,l),
(392,0,l),
(392,273,l),
(556,273,o),
(741,0,o),
(887,0,qs),
(1113,0,o),
(1113,217,qs),
(1113,536,l),
(753,650,ls),
(392,763,o),
(392,869,qs),
(392,1086,ls),
(392,1250,o),
(721,1250,qs),
(1050,1250,o),
(1050,1086,qs),
(1050,1047,l),
(1014,1047,ls),
(878,1047,o),
(878,921,qs),
(878,768,o),
(1021,768,qs),
(1113,768,o),
(1113,860,qs),
(1113,1086,ls),
(1113,1303,o),
(721,1303,qs),
(329,1303,o),
(329,1086,qs),
(329,869,ls),
(329,726,o)
);
}
);
width = 1442;
}
);
note = uni1793;
unicode = 6035;
},
{
glyphname = uni1794;
layers = (
{
layerId = m01;
shapes = (
{
closed = 1;
nodes = (
(1113,233,qs),
(1113,909,l),
(922,1018,l),
(1040,1216,l),
(1133,1156,ls),
(1170,1132,o),
(1198,1132,qs),
(1241,1132,o),
(1266,1187,q),
(1256,1186,o),
(1246,1186,qs),
(1202,1186,o),
(1164,1211,qs),
(1024,1303,l),
(867,1045,l),
(867,985,l),
(1050,882,l),
(1050,233,ls),
(1050,53,o),
(768,53,qs),
(675,53,ls),
(392,53,o),
(392,233,qs),
(392,909,l),
(221,1019,l),
(370,1216,l),
(428,1179,ls),
(485,1141,o),
(525,1141,qs),
(570,1141,o),
(595,1187,q),
(529,1187,o),
(485,1216,qs),
(353,1303,l),
(166,1045,l),
(166,985,l),
(329,882,l),
(329,233,ls),
(329,0,o),
(675,0,qs),
(768,0,ls),
(1113,0,o)
);
}
);
width = 1442;
}
);
note = uni1794;
unicode = 6036;
},
{
glyphname = uni1795;
layers = (
{
layerId = m01;
shapes = (
{
closed = 1;
nodes = (
(951,572,o),
(951,635,qs),
(951,694,o),
(1026,775,qs),
(1051,802,l),
(1051,572,l),
(1021,572,ls)
);
},
{
closed = 1;
nodes = (
(1051,891,l),
(978,811,ls),
(888,713,o),
(888,634,qs),
(888,519,o),
(1021,519,qs),
(1051,519,l),
(1051,71,l),
(721,310,l),
(392,71,l),
(392,985,l),
(281,1074,l),
(495,1228,l),
(726,1041,l),
(868,1041,ls),
(1113,1041,o),
(1113,1240,qs),
(1113,1443,o),
(957,1443,qs),
(884,1443,o),
(884,1410,q),
(1051,1410,o),
(1051,1240,qs),
(1051,1094,o),
(868,1094,qs),
(761,1094,l),
(507,1303,l),
(216,1097,l),
(216,1045,l),
(329,956,l),
(329,0,l),
(392,0,l),
(721,240,l),
(1051,0,l),
(1113,0,l),
(1113,891,l)
);
}
);
width = 1442;
}
);
note = uni1795;
unicode = 6037;
},
{
glyphname = uni1796;
layers = (
{
layerId = m01;
shapes = (
{
closed = 1;
nodes = (
(535,389,o),
(535,299,qs),
(535,236,o),
(449,143,qs),
(392,81,l),
(392,389,l),
(441,389,ls)
);
},
{
closed = 1;
nodes = (
(392,0,l),
(490,106,ls),
(588,212,o),
(588,300,qs),
(588,442,o),
(441,442,qs),
(392,442,l),
(392,1046,l),
(553,1223,l),
(722,1047,l),
(891,1223,l),
(1050,1045,l),
(1050,0,l),
(1113,0,l),
(1113,1052,l),
(888,1303,l),
(722,1130,l),
(555,1303,l),
(329,1056,l),
(329,0,l)
);
}
);
width = 1442;
}
);
note = uni1796;
unicode = 6038;
},
{
glyphname = uni1797;
layers = (
{
layerId = m01;
shapes = (
{
closed = 1;
nodes = (
(1113,1054,o),
(1138,1054,qs),
(1203,1054,o),
(1226,1165,q),
(1201,1123,o),
(1171,1118,q),
(1165,1118,ls),
(1135,1118,o),
(1084,1161,qs),
(915,1303,l),
(738,1129,l),
(527,1303,l),
(216,1117,l),
(216,1065,l),
(329,976,ls),
(360,952,o),
(378,952,qs),
(395,952,o),
(430,975,q),
(281,1094,l),
(510,1231,l),
(726,1055,l),
(904,1226,l),
(1009,1140,ls)
);
},
{
closed = 1;
nodes = (
(329,81,l),
(272,143,ls),
(186,236,o),
(186,299,qs),
(186,389,o),
(280,389,qs),
(329,389,l)
);
},
{
closed = 1;
nodes = (
(392,878,o),
(651,878,qs),
(791,878,ls),
(1051,878,o),
(1051,698,qs),
(1051,0,l),
(1113,0,l),
(1113,698,ls),
(1113,931,o),
(791,931,qs),
(651,931,ls),
(329,931,o),
(329,698,qs),
(329,442,l),
(280,442,ls),
(133,442,o),
(133,300,qs),
(133,212,o),
(231,106,qs),
(329,0,l),
(392,0,l),
(392,698,ls)
);
}
);
width = 1442;
}
);
note = uni1797;
unicode = 6039;
},
{
glyphname = uni1798;
layers = (
{
layerId = m01;
shapes = (
{
closed = 1;
nodes = (
(1050,233,ls),
(1050,53,o),
(768,53,qs),
(675,53,ls),
(392,53,o),
(392,233,qs),
(392,579,l),
(1050,579,l)
);
},
{
closed = 1;
nodes = (
(221,1019,l),
(370,1216,l),
(428,1179,ls),
(485,1141,o),
(525,1141,qs),
(570,1141,o),
(595,1187,q),
(529,1187,o),
(485,1216,qs),
(353,1303,l),
(166,1045,l),
(166,985,l),
(329,882,l),
(329,233,ls),
(329,0,o),
(675,0,qs),
(768,0,ls),
(1113,0,o),
(1113,233,qs),
(1113,909,l),
(922,1018,l),
(1040,1216,l),
(1133,1156,ls),
(1170,1132,o),
(1198,1132,qs),
(1241,1132,o),
(1266,1187,q),
(1256,1186,o),
(1246,1186,qs),
(1202,1186,o),
(1164,1211,qs),
(1024,1303,l),
(867,1045,l),
(867,985,l),
(1050,882,l),
(1050,632,l),
(392,632,l),
(392,909,l)
);
}
);
width = 1442;
}
);
note = uni1798;
unicode = 6040;
},
{
glyphname = uni1799;
layers = (
{
layerId = m01;
shapes = (
{
closed = 1;
nodes = (
(392,1222,l),
(449,1160,ls),
(535,1067,o),
(535,1004,qs),
(535,914,o),
(441,914,qs),
(392,914,l)
);
},
{
closed = 1;
nodes = (
(329,0,o),
(675,0,qs),
(768,0,ls),
(1009,0,o),
(1082,114,q),
(1154,0,o),
(1396,0,qs),
(1489,0,ls),
(1834,0,o),
(1834,233,qs),
(1834,909,l),
(1643,1018,l),
(1761,1216,l),
(1854,1156,ls),
(1891,1132,o),
(1919,1132,qs),
(1962,1132,o),
(1987,1187,q),
(1977,1186,o),
(1967,1186,qs),
(1923,1186,o),
(1885,1211,qs),
(1745,1303,l),
(1588,1045,l),
(1588,985,l),
(1771,882,l),
(1771,233,ls),
(1771,53,o),
(1489,53,qs),
(1396,53,ls),
(1113,53,o),
(1113,233,qs),
(1113,909,l),
(922,1018,l),
(1040,1216,l),
(1133,1156,ls),
(1170,1132,o),
(1198,1132,qs),
(1241,1132,o),
(1266,1187,q),
(1256,1186,o),
(1246,1186,qs),
(1202,1186,o),
(1164,1211,qs),
(1024,1303,l),
(867,1045,l),
(867,985,l),
(1050,882,l),
(1050,233,ls),
(1050,53,o),
(768,53,qs),
(675,53,ls),
(392,53,o),
(392,233,qs),
(392,861,l),
(441,861,ls),
(588,861,o),
(588,1003,qs),
(588,1091,o),
(490,1197,qs),
(392,1303,l),
(329,1303,l),
(329,233,ls)
);
}
);
width = 2164;
}
);
note = uni1799;
unicode = 6041;
},
{
glyphname = uni179A;
layers = (
{
layerId = m01;
shapes = (
{
closed = 1;
nodes = (
(272,143,ls),
(186,236,o),
(186,299,qs),
(186,389,o),
(280,389,qs),
(329,389,l),
(329,81,l)
);
},
{
closed = 1;
nodes = (
(201,1018,l),
(319,1216,l),
(412,1156,ls),
(449,1132,o),
(477,1132,qs),
(520,1132,o),
(545,1187,q),
(535,1186,o),
(525,1186,qs),
(481,1186,o),
(443,1211,qs),
(303,1303,l),
(146,1045,l),
(146,985,l),
(329,882,l),
(329,442,l),
(280,442,ls),
(133,442,o),
(133,300,qs),
(133,212,o),
(231,106,qs),
(329,0,l),
(392,0,l),
(392,909,l)
);
}
);
width = 721;
}
);
note = uni179A;
unicode = 6042;
},
{
glyphname = uni179B;
layers = (
{
layerId = m01;
shapes = (
{
closed = 1;
nodes = (
(535,389,o),
(535,299,qs),
(535,236,o),
(449,143,qs),
(392,81,l),
(392,389,l),
(441,389,ls)
);
},
{
closed = 1;
nodes = (
(1644,1018,l),
(1762,1216,l),
(1855,1156,ls),
(1892,1132,o),
(1920,1132,qs),
(1963,1132,o),
(1988,1187,q),
(1978,1186,o),
(1968,1186,qs),
(1924,1186,o),
(1886,1211,qs),
(1746,1303,l),
(1589,1045,l),
(1589,985,l),
(1772,882,l),
(1772,233,ls),
(1772,53,o),
(1489,53,qs),
(1396,53,ls),
(1113,53,o),
(1113,233,qs),
(1113,1103,l),
(721,1303,l),
(329,1104,l),
(329,0,l),
(392,0,l),
(490,106,ls),
(588,212,o),
(588,300,qs),
(588,442,o),
(441,442,qs),
(392,442,l),
(392,1081,l),
(700,1241,l),
(1050,1066,l),
(1050,233,ls),
(1050,0,o),
(1396,0,qs),
(1489,0,ls),
(1835,0,o),
(1835,233,qs),
(1835,909,l)
);
}
);
width = 2164;
}
);
note = uni179B;
unicode = 6043;
},
{
glyphname = uni179C;
layers = (
{
layerId = m01;
shapes = (
{
closed = 1;
nodes = (
(272,143,ls),
(186,236,o),
(186,299,qs),
(186,389,o),
(280,389,qs),
(329,389,l),
(329,81,l)
);
},
{
closed = 1;
nodes = (
(581,1280,qs),
(581,1489,o),
(412,1489,qs),
(349,1489,o),
(349,1446,q),
(518,1446,o),
(518,1280,qs),
(518,1186,o),
(477,1186,qs),
(461,1186,o),
(423,1211,qs),
(283,1303,l),
(146,1045,l),
(146,985,l),
(329,882,l),
(329,442,l),
(280,442,ls),
(133,442,o),
(133,300,qs),
(133,212,o),
(231,106,qs),
(329,0,l),
(392,0,l),
(392,909,l),
(201,1018,l),
(299,1216,l),
(392,1156,ls),
(429,1132,o),
(477,1132,qs),
(581,1132,o)
);
}
);
width = 721;
}
);
note = uni179C;
unicode = 6044;
},
{
glyphname = uni179D;
layers = (
{
layerId = m01;
shapes = (
{
closed = 1;
nodes = (
(1113,1054,o),
(1138,1054,qs),
(1203,1054,o),
(1226,1165,q),
(1201,1123,o),
(1171,1118,q),
(1165,1118,ls),
(1135,1118,o),
(1084,1161,qs),
(915,1303,l),
(738,1129,l),
(527,1303,l),
(216,1117,l),
(216,1065,l),
(329,976,ls),
(360,952,o),
(378,952,qs),
(395,952,o),
(430,975,q),
(281,1094,l),
(510,1231,l),
(726,1055,l),
(904,1226,l),
(1009,1140,ls)
);
},
{
closed = 1;
nodes = (
(1113,931,o),
(791,931,qs),
(651,931,ls),
(329,931,o),
(329,698,qs),
(329,0,l),
(392,0,l),
(392,21,l),
(547,347,o),
(670,347,qs),
(704,347,o),
(721,340,qs),
(736,333,o),
(750,333,qs),
(754,333,ls),
(770,334,o),
(770,359,qs),
(770,383,o),
(715,400,o),
(670,400,qs),
(524,400,o),
(392,113,q),
(392,698,ls),
(392,878,o),
(651,878,qs),
(791,878,ls),
(1051,878,o),
(1051,698,qs),
(1051,399,l),
(861,399,l),
(861,346,l),
(1051,346,l),
(1051,0,l),
(1113,0,l),
(1113,346,l),
(1210,346,ls),
(1257,346,o),
(1303,396,o),
(1303,465,q),
(1280,399,o),
(1210,399,qs),
(1113,399,l),
(1113,698,ls)
);
}
);
width = 1442;
}
);
note = uni179D;
unicode = 6045;
},
{
glyphname = uni179E;
layers = (
{
layerId = m01;
shapes = (
{
closed = 1;
nodes = (
(1050,53,o),
(768,53,qs),
(675,53,ls),
(392,53,o),
(392,233,qs),
(392,909,l),
(221,1019,l),
(370,1216,l),
(428,1179,ls),
(485,1141,o),
(525,1141,qs),
(570,1141,o),
(595,1187,q),
(529,1187,o),
(485,1216,qs),
(353,1303,l),
(166,1045,l),
(166,985,l),
(329,882,l),
(329,233,ls),
(329,0,o),
(675,0,qs),
(768,0,ls),
(1113,0,o),
(1113,233,qs),
(1113,579,l),
(1210,579,ls),
(1256,579,o),
(1303,628,o),
(1303,698,q),
(1280,632,o),
(1210,632,qs),
(1113,632,l),
(1113,909,l),
(922,1018,l),
(1040,1216,l),
(1133,1156,ls),
(1170,1132,o),
(1198,1132,qs),
(1241,1132,o),
(1266,1187,q),
(1256,1186,o),
(1246,1186,qs),
(1202,1186,o),
(1164,1211,qs),
(1024,1303,l),
(867,1045,l),
(867,985,l),
(1050,882,l),
(1050,632,l),
(833,632,l),
(833,579,l),
(1050,579,l),
(1050,233,ls)
);
}
);
width = 1442;
}
);
note = uni179E;
unicode = 6046;
},
{
glyphname = uni179F;
layers = (
{
layerId = m01;
shapes = (
{
closed = 1;
nodes = (
(535,389,o),
(535,299,qs),
(535,236,o),
(449,143,qs),
(392,81,l),
(392,389,l),
(441,389,ls)
);
},
{
closed = 1;
nodes = (
(329,698,qs),
(329,0,l),
(392,0,l),
(490,106,ls),
(588,212,o),
(588,300,qs),
(588,442,o),
(441,442,qs),
(392,442,l),
(392,698,ls),
(392,878,o),
(651,878,qs),
(791,878,ls),
(1051,878,o),
(1051,698,qs),
(1051,233,ls),
(1051,0,o),
(1396,0,qs),
(1489,0,ls),
(1835,0,o),
(1835,233,qs),
(1835,909,l),
(1644,1018,l),
(1762,1216,l),
(1855,1156,ls),
(1892,1132,o),
(1920,1132,qs),
(1963,1132,o),
(1988,1187,q),
(1978,1186,o),
(1968,1186,qs),
(1924,1186,o),
(1886,1211,qs),
(1746,1303,l),
(1589,1045,l),
(1589,985,l),
(1772,882,l),
(1772,233,ls),
(1772,53,o),
(1489,53,qs),
(1396,53,ls),
(1113,53,o),
(1113,233,qs),
(1113,698,ls),
(1113,931,o),
(791,931,qs),
(674,931,l),
(457,1075,l),
(603,1228,l),
(804,1102,ls),
(834,1084,o),
(866,1084,qs),
(897,1084,o),
(930,1145,q),
(860,1145,o),
(819,1170,qs),
(597,1303,l),
(386,1081,l),
(386,1054,l),
(587,928,l),
(329,907,o)
);
}
);
width = 2164;
}
);
note = uni179F;
unicode = 6047;
},
{
glyphname = uni17A0;
layers = (
{
layerId = m01;
shapes = (
{
closed = 1;
nodes = (
(1050,882,l),
(1050,233,ls),
(1050,53,o),
(768,53,qs),
(675,53,ls),
(392,53,o),
(392,233,qs),
(392,909,l),
(221,1019,l),
(370,1216,l),
(428,1179,ls),
(485,1141,o),
(525,1141,qs),
(570,1141,o),
(595,1187,q),
(529,1187,o),
(485,1216,qs),
(353,1303,l),
(166,1045,l),
(166,985,l),
(329,882,l),
(329,233,ls),
(329,0,o),
(675,0,qs),
(768,0,ls),
(1113,0,o),
(1113,233,qs),
(1113,909,l),
(923,1017,l),
(1261,1239,l),
(1772,1063,l),
(1772,0,l),
(1835,0,l),
(1835,1103,l),
(1264,1303,l),
(867,1045,l),
(867,985,l)
);
}
);
width = 2164;
}
);
note = uni17A0;
unicode = 6048;
},
{
glyphname = uni17A1;
layers = (
{
layerId = m01;
shapes = (
{
closed = 1;
nodes = (
(954,-292,o),
(954,-255,qs),
(954,-199,o),
(1049,-154,q),
(1049,-292,l),
(1013,-292,ls)
);
},
{
closed = 1;
nodes = (
(1060,625,qs),
(1060,567,o),
(998,567,qs),
(932,567,l),
(932,682,o),
(988,682,qs),
(1060,682,o)
);
},
{
closed = 1;
nodes = (
(976,938,qs),
(891,938,o),
(891,1024,q),
(838,1024,o),
(838,974,qs),
(838,884,o),
(976,884,qs),
(1113,884,o),
(1113,1031,qs),
(1113,1303,o),
(721,1303,qs),
(329,1303,o),
(329,1031,qs),
(329,815,ls),
(329,514,o),
(722,514,qs),
(869,514,l),
(869,280,ls),
(869,53,o),
(697,53,qs),
(525,53,o),
(525,193,qs),
(525,280,ls),
(525,420,o),
(429,420,qs),
(373,420,o),
(373,367,q),
(462,367,o),
(462,280,qs),
(462,193,ls),
(462,0,o),
(697,0,qs),
(932,0,o),
(932,281,qs),
(932,514,l),
(998,514,ls),
(1113,514,o),
(1113,626,qs),
(1113,736,o),
(988,736,qs),
(869,736,o),
(869,567,q),
(722,567,ls),
(392,567,o),
(392,815,qs),
(392,1031,ls),
(392,1250,o),
(721,1250,qs),
(1051,1250,o),
(1051,1031,qs),
(1051,938,o)
);
},
{
closed = 1;
nodes = (
(1643,1018,l),
(1761,1216,l),
(1854,1156,ls),
(1891,1132,o),
(1919,1132,qs),
(1962,1132,o),
(1987,1187,q),
(1977,1186,o),
(1967,1186,qs),
(1923,1186,o),
(1885,1211,qs),
(1745,1303,l),
(1588,1045,l),
(1588,985,l),
(1771,882,l),
(1771,-607,l),
(1442,-375,l),
(1112,-607,l),
(1112,-93,l),
(1049,-93,l),
(1012,-113,ls),
(900,-172,o),
(900,-257,qs),
(900,-350,o),
(1013,-350,qs),
(1049,-350,l),
(1049,-673,l),
(1112,-673,l),
(1442,-441,l),
(1771,-673,l),
(1834,-673,l),
(1834,909,l)
);
}
);
width = 2164;
}
);
note = uni17A1;
unicode = 6049;
},
{
glyphname = uni17A2;
layers = (
{
layerId = m01;
shapes = (
{
closed = 1;
nodes = (
(272,143,ls),
(186,236,o),
(186,299,qs),
(186,389,o),
(280,389,qs),
(329,389,l),
(329,81,l)
);
},
{
closed = 1;
nodes = (
(993,143,ls),
(907,236,o),
(907,299,qs),
(907,389,o),
(1001,389,qs),
(1050,389,l),
(1050,81,l)
);
},
{
closed = 1;
nodes = (
(1050,442,l),
(1001,442,ls),
(854,442,o),
(854,300,qs),
(854,212,o),
(952,106,qs),
(1050,0,l),
(1113,0,l),
(1113,909,l),
(922,1018,l),
(1040,1216,l),
(1133,1156,ls),
(1170,1132,o),
(1198,1132,qs),
(1241,1132,o),
(1266,1187,q),
(1256,1186,o),
(1246,1186,qs),
(1202,1186,o),
(1164,1211,qs),
(1024,1303,l),
(867,1045,l),
(867,985,l),
(1050,882,l),
(1050,632,l),
(392,632,l),
(392,909,l),
(221,1019,l),
(370,1216,l),
(428,1179,ls),
(485,1141,o),
(525,1141,qs),
(570,1141,o),
(595,1187,q),
(529,1187,o),
(485,1216,qs),
(353,1303,l),
(166,1045,l),
(166,985,l),
(329,882,l),
(329,442,l),
(280,442,ls),
(133,442,o),
(133,300,qs),
(133,212,o),
(231,106,qs),
(329,0,l),
(392,0,l),
(392,579,l),
(1050,579,l)
);
}
);
width = 1442;
}
);
note = uni17A2;
unicode = 6050;
},
{
glyphname = uni17A5;
layers = (
{
layerId = m01;
shapes = (
{
closed = 1;
nodes = (
(535,389,o),
(535,299,qs),
(535,236,o),
(449,143,qs),
(392,81,l),
(392,389,l),
(441,389,ls)
);
},
{
closed = 1;
nodes = (
(392,0,l),
(490,106,ls),
(588,212,o),
(588,300,qs),
(588,442,o),
(441,442,qs),
(392,442,l),
(392,698,ls),
(392,878,o),
(651,878,qs),
(791,878,ls),
(1051,878,o),
(1051,698,qs),
(1051,0,l),
(1113,0,l),
(1113,698,ls),
(1113,931,o),
(791,931,qs),
(651,931,ls),
(329,931,o),
(329,698,qs),
(329,0,l)
);
},
{
closed = 1;
nodes = (
(868,1041,ls),
(1113,1041,o),
(1113,1240,qs),
(1113,1443,o),
(957,1443,qs),
(884,1443,o),
(884,1410,q),
(1051,1410,o),
(1051,1240,qs),
(1051,1094,o),
(868,1094,qs),
(761,1094,l),
(507,1303,l),
(216,1117,l),
(216,1065,l),
(329,976,ls),
(360,952,o),
(378,952,qs),
(395,952,o),
(430,975,q),
(281,1094,l),
(494,1231,l),
(726,1041,l)
);
}
);
width = 1442;
}
);
note = uni17A5;
unicode = 6053;
},
{
glyphname = uni17A6;
layers = (
{
layerId = m01;
shapes = (
{
closed = 1;
nodes = (
(508,-466,qs),
(508,-549,o),
(453,-590,qs),
(392,-632,l),
(392,-403,l),
(438,-403,ls),
(508,-403,o)
);
},
{
closed = 1;
nodes = (
(535,389,o),
(535,299,qs),
(535,236,o),
(449,143,qs),
(392,81,l),
(392,389,l),
(441,389,ls)
);
},
{
closed = 1;
nodes = (
(1113,0,l),
(1113,1103,l),
(721,1303,l),
(329,1104,l),
(329,0,l),
(392,0,l),
(490,106,ls),
(588,212,o),
(588,300,qs),
(588,442,o),
(441,442,qs),
(392,442,l),
(392,1081,l),
(700,1241,l),
(1050,1066,l),
(1050,0,l)
);
},
{
closed = 1;
nodes = (
(1644,1018,l),
(1742,1216,l),
(1835,1156,ls),
(1872,1132,o),
(1920,1132,qs),
(2024,1132,o),
(2024,1280,qs),
(2024,1489,o),
(1855,1489,qs),
(1792,1489,o),
(1792,1446,q),
(1961,1446,o),
(1961,1280,qs),
(1961,1186,o),
(1920,1186,qs),
(1904,1186,o),
(1866,1211,qs),
(1726,1303,l),
(1589,1045,l),
(1589,985,l),
(1772,882,l),
(1772,-465,ls),
(1772,-645,o),
(1489,-645,qs),
(1396,-645,ls),
(1113,-645,o),
(1113,-465,qs),
(1113,-222,l),
(721,-93,l),
(329,-222,l),
(329,-698,l),
(392,-698,l),
(460,-653,ls),
(571,-573,o),
(571,-465,qs),
(571,-350,o),
(438,-350,qs),
(392,-350,l),
(392,-254,l),
(695,-150,l),
(1050,-262,l),
(1050,-465,ls),
(1050,-698,o),
(1396,-698,qs),
(1489,-698,ls),
(1835,-698,o),
(1835,-465,qs),
(1835,909,l)
);
}
);
width = 2164;
}
);
note = uni17A6;
unicode = 6054;
},
{
glyphname = uni17A7;
layers = (
{
layerId = m01;
shapes = (
{
closed = 1;
nodes = (
(528,948,o),
(528,884,qs),
(528,799,o),
(422,799,qs),
(392,799,o),
(392,838,qs),
(392,948,l),
(422,948,ls)
);
},
{
closed = 1;
nodes = (
(753,610,ls),
(1113,791,o),
(1113,931,qs),
(1113,1071,ls),
(1113,1303,o),
(791,1303,qs),
(651,1303,ls),
(329,1303,o),
(329,1071,qs),
(329,838,ls),
(329,745,o),
(422,745,qs),
(582,745,o),
(582,884,qs),
(582,1001,o),
(422,1001,qs),
(392,1001,l),
(392,1071,ls),
(392,1250,o),
(651,1250,qs),
(791,1250,ls),
(1050,1250,o),
(1050,1071,qs),
(1050,931,ls),
(1050,811,o),
(690,630,qs),
(329,448,l),
(329,277,ls),
(329,0,o),
(536,0,qs),
(554,0,l),
(1051,260,l),
(1051,117,ls),
(1051,0,o),
(884,0,q),
(884,-47,o),
(971,-47,qs),
(1113,-47,o),
(1113,115,qs),
(1113,535,l),
(1051,535,l),
(1051,317,l),
(541,53,l),
(392,53,o),
(392,277,qs),
(392,428,l)
);
}
);
width = 1442;
}
);
note = uni17A7;
unicode = 6055;
},
{
glyphname = uni17A8;
layers = (
{
layerId = m01;
shapes = (
{
closed = 1;
nodes = (
(528,948,o),
(528,884,qs),
(528,799,o),
(422,799,qs),
(392,799,o),
(392,838,qs),
(392,948,l),
(422,948,ls)
);
},
{
closed = 1;
nodes = (
(753,610,ls),
(1113,791,o),
(1113,931,qs),
(1113,1071,ls),
(1113,1303,o),
(791,1303,qs),
(651,1303,ls),
(329,1303,o),
(329,1071,qs),
(329,838,ls),
(329,745,o),
(422,745,qs),
(582,745,o),
(582,884,qs),
(582,1001,o),
(422,1001,qs),
(392,1001,l),
(392,1071,ls),
(392,1250,o),
(651,1250,qs),
(791,1250,ls),
(1050,1250,o),
(1050,1071,qs),
(1050,931,ls),
(1050,811,o),
(690,630,qs),
(329,448,l),
(329,277,ls),
(329,0,o),
(536,0,qs),
(554,0,l),
(1051,260,l),
(1051,117,ls),
(1051,0,o),
(884,0,q),
(884,-47,o),
(971,-47,qs),
(1113,-47,o),
(1113,115,qs),
(1113,535,l),
(1051,535,l),
(1051,317,l),
(541,53,l),
(392,53,o),
(392,277,qs),
(392,428,l)
);
},
{
closed = 1;
nodes = (
(1113,1424,o),
(1138,1424,qs),
(1203,1424,o),
(1226,1535,q),
(1201,1493,o),
(1171,1488,q),
(1165,1488,ls),
(1135,1488,o),
(1084,1531,qs),
(915,1673,l),
(738,1499,l),
(527,1673,l),
(216,1487,l),
(216,1435,l),
(329,1346,ls),
(360,1322,o),
(378,1322,qs),
(395,1322,o),
(430,1345,q),
(281,1464,l),
(510,1601,l),
(726,1425,l),
(904,1596,l),
(1009,1510,ls)
);
}
);
width = 1442;
}
);
note = uni17A8;
unicode = 6056;
},
{
glyphname = uni17A9;
layers = (
{
layerId = m01;
shapes = (
{
closed = 1;
nodes = (
(1136,-51,qs),
(1127,-51,o),
(1117,-47,q),
(1117,-93,o),
(1179,-93,qs),
(1240,-93,o),
(1240,97,qs),
(1240,535,l),
(1187,535,l),
(1187,99,ls),
(1187,-51,o)
);
},
{
closed = 1;
nodes = (
(528,948,o),
(528,884,qs),
(528,799,o),
(422,799,qs),
(392,799,o),
(392,838,qs),
(392,948,l),
(422,948,ls)
);
},
{
closed = 1;
nodes = (
(753,610,ls),
(1113,791,o),
(1113,931,qs),
(1113,1071,ls),
(1113,1303,o),
(791,1303,qs),
(651,1303,ls),
(329,1303,o),
(329,1071,qs),
(329,838,ls),
(329,745,o),
(422,745,qs),
(582,745,o),
(582,884,qs),
(582,1001,o),
(422,1001,qs),
(392,1001,l),
(392,1071,ls),
(392,1250,o),
(651,1250,qs),
(791,1250,ls),
(1050,1250,o),
(1050,1071,qs),
(1050,931,ls),
(1050,811,o),
(690,630,qs),
(329,448,l),
(329,277,ls),
(329,0,o),
(536,0,qs),
(554,0,l),
(1051,260,l),
(1051,117,ls),
(1051,0,o),
(884,0,q),
(884,-47,o),
(971,-47,qs),
(1113,-47,o),
(1113,115,qs),
(1113,535,l),
(1051,535,l),
(1051,317,l),
(541,53,l),
(392,53,o),
(392,277,qs),
(392,428,l)
);
}
);
width = 1442;
}
);
note = uni17A9;
unicode = 6057;
},
{
glyphname = uni17AA;
layers = (
{
layerId = m01;
shapes = (
{
closed = 1;
nodes = (
(528,948,o),
(528,884,qs),
(528,799,o),
(422,799,qs),
(392,799,o),
(392,838,qs),
(392,948,l),
(422,948,ls)
);
},
{
closed = 1;
nodes = (
(753,610,ls),
(1113,791,o),
(1113,931,qs),
(1113,1071,ls),
(1113,1303,o),
(791,1303,qs),
(651,1303,ls),
(329,1303,o),
(329,1071,qs),
(329,838,ls),
(329,745,o),
(422,745,qs),
(582,745,o),
(582,884,qs),
(582,1001,o),
(422,1001,qs),
(392,1001,l),
(392,1071,ls),
(392,1250,o),
(651,1250,qs),
(791,1250,ls),
(1050,1250,o),
(1050,1071,qs),
(1050,931,ls),
(1050,811,o),
(690,630,qs),
(329,448,l),
(329,277,ls),
(329,0,o),
(536,0,qs),
(554,0,l),
(1051,260,l),
(1051,117,ls),
(1051,0,o),
(884,0,q),
(884,-47,o),
(971,-47,qs),
(1113,-47,o),
(1113,115,qs),
(1113,535,l),
(1051,535,l),
(1051,317,l),
(541,53,l),
(392,53,o),
(392,277,qs),
(392,428,l)
);
},
{
closed = 1;
nodes = (
(868,1401,ls),
(1113,1401,o),
(1113,1600,qs),
(1113,1803,o),
(957,1803,qs),
(884,1803,o),
(884,1770,q),
(1051,1770,o),
(1051,1600,qs),
(1051,1454,o),
(868,1454,qs),
(761,1454,l),
(507,1663,l),
(216,1477,l),
(216,1425,l),
(329,1336,ls),
(360,1312,o),
(378,1312,qs),
(395,1312,o),
(430,1335,q),
(281,1454,l),
(494,1591,l),
(726,1401,l)
);
}
);
width = 1442;
}
);
note = uni17AA;
unicode = 6058;
},
{
glyphname = uni17AB;
layers = (
{
layerId = m01;
shapes = (
{
closed = 1;
nodes = (
(997,-93,qs),
(931,-93,o),
(931,-146,q),
(1050,-146,o),
(1050,-233,qs),
(1050,-459,o),
(589,-459,qs),
(359,-459,o),
(186,-391,q),
(243,-451,o),
(343,-482,qs),
(444,-512,o),
(588,-512,qs),
(1113,-512,o),
(1113,-233,qs),
(1113,-93,o)
);
},
{
closed = 1;
nodes = (
(1113,233,qs),
(1113,909,l),
(922,1018,l),
(1040,1216,l),
(1133,1156,ls),
(1170,1132,o),
(1198,1132,qs),
(1241,1132,o),
(1266,1187,q),
(1256,1186,o),
(1246,1186,qs),
(1202,1186,o),
(1164,1211,qs),
(1024,1303,l),
(867,1045,l),
(867,985,l),
(1050,882,l),
(1050,233,ls),
(1050,53,o),
(768,53,qs),
(675,53,ls),
(392,53,o),
(392,233,qs),
(392,909,l),
(221,1019,l),
(370,1216,l),
(428,1179,ls),
(485,1141,o),
(525,1141,qs),
(570,1141,o),
(595,1187,q),
(529,1187,o),
(485,1216,qs),
(353,1303,l),
(166,1045,l),
(166,985,l),
(329,882,l),
(329,233,ls),
(329,0,o),
(675,0,qs),
(768,0,ls),
(1113,0,o)
);
}
);
width = 1442;
}
);
note = uni17AB;
unicode = 6059;
},
{
glyphname = uni17AC;
layers = (
{
layerId = m01;
shapes = (
{
closed = 1;
nodes = (
(1113,-233,qs),
(1113,-93,o),
(997,-93,qs),
(931,-93,o),
(931,-146,q),
(1050,-146,o),
(1050,-233,qs),
(1050,-459,o),
(589,-459,qs),
(389,-459,o),
(216,-391,q),
(273,-451,o),
(373,-482,qs),
(474,-512,o),
(588,-512,qs),
(901,-512,o),
(1027,-413,q),
(1052,-447,o),
(1086,-469,qs),
(1132,-500,o),
(1188,-500,qs),
(1273,-500,o),
(1273,-420,q),
(1233,-446,o),
(1195,-446,qs),
(1162,-446,o),
(1131,-425,qs),
(1086,-395,o),
(1071,-369,q),
(1113,-312,o)
);
},
{
closed = 1;
nodes = (
(1113,233,qs),
(1113,909,l),
(922,1018,l),
(1040,1216,l),
(1133,1156,ls),
(1170,1132,o),
(1198,1132,qs),
(1241,1132,o),
(1266,1187,q),
(1256,1186,o),
(1246,1186,qs),
(1202,1186,o),
(1164,1211,qs),
(1024,1303,l),
(867,1045,l),
(867,985,l),
(1050,882,l),
(1050,233,ls),
(1050,53,o),
(768,53,qs),
(675,53,ls),
(392,53,o),
(392,233,qs),
(392,909,l),
(221,1019,l),
(370,1216,l),
(428,1179,ls),
(485,1141,o),
(525,1141,qs),
(570,1141,o),
(595,1187,q),
(529,1187,o),
(485,1216,qs),
(353,1303,l),
(166,1045,l),
(166,985,l),
(329,882,l),
(329,233,ls),
(329,0,o),
(675,0,qs),
(768,0,ls),
(1113,0,o)
);
}
);
width = 1442;
}
);
note = uni17AC;
unicode = 6060;
},
{
glyphname = uni17AD;
layers = (
{
layerId = m01;
shapes = (
{
closed = 1;
nodes = (
(997,-93,qs),
(931,-93,o),
(931,-146,q),
(1050,-146,o),
(1050,-233,qs),
(1050,-459,o),
(589,-459,qs),
(359,-459,o),
(186,-391,q),
(243,-451,o),
(343,-482,qs),
(444,-512,o),
(588,-512,qs),
(1113,-512,o),
(1113,-233,qs),
(1113,-93,o)
);
},
{
closed = 1;
nodes = (
(535,389,o),
(535,299,qs),
(535,236,o),
(449,143,qs),
(392,81,l),
(392,389,l),
(441,389,ls)
);
},
{
closed = 1;
nodes = (
(392,0,l),
(490,106,ls),
(588,212,o),
(588,300,qs),
(588,442,o),
(441,442,qs),
(392,442,l),
(392,1046,l),
(553,1223,l),
(722,1047,l),
(891,1223,l),
(1050,1045,l),
(1050,0,l),
(1113,0,l),
(1113,1052,l),
(888,1303,l),
(722,1130,l),
(555,1303,l),
(329,1056,l),
(329,0,l)
);
}
);
width = 1442;
}
);
note = uni17AD;
unicode = 6061;
},
{
glyphname = uni17AE;
layers = (
{
layerId = m01;
shapes = (
{
closed = 1;
nodes = (
(1113,-233,qs),
(1113,-93,o),
(997,-93,qs),
(931,-93,o),
(931,-146,q),
(1050,-146,o),
(1050,-233,qs),
(1050,-459,o),
(589,-459,qs),
(389,-459,o),
(216,-391,q),
(273,-451,o),
(373,-482,qs),
(474,-512,o),
(588,-512,qs),
(901,-512,o),
(1027,-413,q),
(1052,-447,o),
(1086,-469,qs),
(1132,-500,o),
(1188,-500,qs),
(1273,-500,o),
(1273,-420,q),
(1233,-446,o),
(1195,-446,qs),
(1162,-446,o),
(1131,-425,qs),
(1086,-395,o),
(1071,-369,q),
(1113,-312,o)
);
},
{
closed = 1;
nodes = (
(535,389,o),
(535,299,qs),
(535,236,o),
(449,143,qs),
(392,81,l),
(392,389,l),
(441,389,ls)
);
},
{
closed = 1;
nodes = (
(392,0,l),
(490,106,ls),
(588,212,o),
(588,300,qs),
(588,442,o),
(441,442,qs),
(392,442,l),
(392,1046,l),
(553,1223,l),
(722,1047,l),
(891,1223,l),
(1050,1045,l),
(1050,0,l),
(1113,0,l),
(1113,1052,l),
(888,1303,l),
(722,1130,l),
(555,1303,l),
(329,1056,l),
(329,0,l)
);
}
);
width = 1442;
}
);
note = uni17AE;
unicode = 6062;
},
{
glyphname = uni17AF;
layers = (
{
layerId = m01;
shapes = (
{
closed = 1;
nodes = (
(230,549,o),
(230,612,qs),
(230,671,o),
(305,752,qs),
(329,779,l),
(329,549,l),
(300,549,ls)
);
},
{
closed = 1;
nodes = (
(1050,1066,l),
(1050,71,l),
(721,310,l),
(392,71,l),
(392,868,l),
(330,868,l),
(257,788,ls),
(167,690,o),
(167,611,qs),
(167,496,o),
(300,496,qs),
(329,496,l),
(329,0,l),
(392,0,l),
(721,240,l),
(1050,0,l),
(1113,0,l),
(1113,1103,l),
(721,1303,l),
(392,1136,l),
(392,1304,ls),
(392,1489,o),
(262,1489,qs),
(186,1489,o),
(186,1433,q),
(329,1433,o),
(329,1304,qs),
(329,1094,ls),
(329,1038,o),
(361,1038,qs),
(392,1038,o),
(392,1065,qs),
(392,1081,l),
(700,1241,l)
);
}
);
width = 1442;
}
);
note = uni17AF;
unicode = 6063;
},
{
glyphname = uni17B0;
layers = (
{
layerId = m01;
shapes = (
{
closed = 1;
nodes = (
(329,-559,qs),
(329,-698,o),
(567,-698,qs),
(672,-698,o),
(724,-652,qs),
(776,-605,o),
(776,-491,q),
(843,-538,o),
(946,-538,qs),
(1113,-538,o),
(1113,-266,qs),
(1113,-47,l),
(1051,-47,l),
(821,-278,o),
(508,-441,o),
(329,-491,o)
);
},
{
closed = 1;
nodes = (
(937,-476,qs),
(834,-476,o),
(720,-392,q),
(873,-304,o),
(1051,-125,q),
(1051,-266,ls),
(1051,-476,o)
);
},
{
closed = 1;
nodes = (
(392,-559,qs),
(392,-531,l),
(541,-494,o),
(706,-404,q),
(706,-488,ls),
(706,-645,o),
(567,-645,qs),
(392,-645,o)
);
},
{
closed = 1;
nodes = (
(535,389,o),
(535,299,qs),
(535,236,o),
(449,143,qs),
(392,81,l),
(392,389,l),
(441,389,ls)
);
},
{
closed = 1;
nodes = (
(392,0,l),
(490,106,ls),
(588,212,o),
(588,300,qs),
(588,442,o),
(441,442,qs),
(392,442,l),
(392,1046,l),
(553,1223,l),
(722,1047,l),
(891,1223,l),
(1050,1045,l),
(1050,0,l),
(1113,0,l),
(1113,1052,l),
(888,1303,l),
(722,1130,l),
(555,1303,l),
(329,1056,l),
(329,0,l)
);
}
);
width = 1442;
}
);
note = uni17B0;
unicode = 6064;
},
{
glyphname = uni17B1;
layers = (
{
layerId = m01;
shapes = (
{
closed = 1;
nodes = (
(570,1630,o),
(581,1630,qs),
(713,1630,o),
(873,1518,qs),
(1046,1396,o),
(1122,1396,qs),
(1217,1396,o),
(1217,1449,q),
(1205,1448,o),
(1192,1448,qs),
(1073,1448,o),
(899,1567,qs),
(711,1694,o),
(556,1694,q),
(216,1498,l),
(216,1425,l),
(337,1345,ls),
(375,1322,o),
(400,1322,q),
(437,1336,l),
(272,1461,l),
(559,1629,l)
);
},
{
closed = 1;
nodes = (
(528,948,o),
(528,884,qs),
(528,799,o),
(422,799,qs),
(392,799,o),
(392,838,qs),
(392,948,l),
(422,948,ls)
);
},
{
closed = 1;
nodes = (
(753,610,ls),
(1113,791,o),
(1113,931,qs),
(1113,1071,ls),
(1113,1303,o),
(791,1303,qs),
(651,1303,ls),
(329,1303,o),
(329,1071,qs),
(329,838,ls),
(329,745,o),
(422,745,qs),
(582,745,o),
(582,884,qs),
(582,1001,o),
(422,1001,qs),
(392,1001,l),
(392,1071,ls),
(392,1250,o),
(651,1250,qs),
(791,1250,ls),
(1050,1250,o),
(1050,1071,qs),
(1050,931,ls),
(1050,811,o),
(690,630,qs),
(329,448,l),
(329,277,ls),
(329,0,o),
(536,0,qs),
(554,0,l),
(1051,260,l),
(1051,117,ls),
(1051,0,o),
(884,0,q),
(884,-47,o),
(971,-47,qs),
(1113,-47,o),
(1113,115,qs),
(1113,535,l),
(1051,535,l),
(1051,317,l),
(541,53,l),
(392,53,o),
(392,277,qs),
(392,428,l)
);
}
);
width = 1442;
}
);
note = uni17B1;
unicode = 6065;
},
{
glyphname = uni17B2;
layers = (
{
layerId = m01;
shapes = (
{
closed = 1;
nodes = (
(700,1241,l),
(1050,1066,l),
(1113,1103,l),
(721,1303,l),
(329,1104,l),
(329,233,ls),
(329,0,o),
(651,0,qs),
(792,0,ls),
(1113,0,o),
(1113,233,qs),
(1113,395,o),
(974,407,q),
(1027,451,ls),
(1113,521,o),
(1113,652,qs),
(1113,861,o),
(907,861,qs),
(716,861,o),
(716,706,qs),
(716,543,o),
(852,543,qs),
(887,543,o),
(887,592,q),
(779,592,o),
(779,706,qs),
(779,809,o),
(907,809,qs),
(1051,809,o),
(1051,652,qs),
(1051,551,o),
(981,494,qs),
(717,276,l),
(717,275,ls),
(717,238,o),
(767,238,q),
(930,371,l),
(939,371,ls),
(1051,371,o),
(1051,233,qs),
(1051,53,o),
(792,53,qs),
(651,53,ls),
(392,53,o),
(392,233,qs),
(392,1081,l)
);
}
);
width = 1442;
}
);
note = uni17B2;
unicode = 6066;
},
{
glyphname = uni17B3;
layers = (
{
layerId = m01;
shapes = (
{
closed = 1;
nodes = (
(528,948,o),
(528,884,qs),
(528,799,o),
(422,799,qs),
(392,799,o),
(392,838,qs),
(392,948,l),
(422,948,ls)
);
},
{
closed = 1;
nodes = (
(753,610,ls),
(1113,791,o),
(1113,931,qs),
(1113,1071,ls),
(1113,1303,o),
(791,1303,qs),
(651,1303,ls),
(329,1303,o),
(329,1071,qs),
(329,838,ls),
(329,745,o),
(422,745,qs),
(582,745,o),
(582,884,qs),
(582,1001,o),
(422,1001,qs),
(392,1001,l),
(392,1071,ls),
(392,1250,o),
(651,1250,qs),
(791,1250,ls),
(1050,1250,o),
(1050,1071,qs),
(1050,931,ls),
(1050,811,o),
(690,630,qs),
(329,448,l),
(329,277,ls),
(329,0,o),
(536,0,qs),
(554,0,l),
(1051,260,l),
(1051,117,ls),
(1051,0,o),
(884,0,q),
(884,-47,o),
(971,-47,qs),
(1113,-47,o),
(1113,115,qs),
(1113,535,l),
(1051,535,l),
(1051,317,l),
(541,53,l),
(392,53,o),
(392,277,qs),
(392,428,l)
);
},
{
closed = 1;
nodes = (
(1010,1409,q),
(1068,1409,o),
(1072,1459,q),
(981,1512,o),
(981,1606,qs),
(981,1679,o),
(1059,1809,o),
(1190,1809,qs),
(1238,1809,o),
(1238,1836,qs),
(1238,1863,o),
(1189,1863,qs),
(1030,1862,o),
(921,1702,o),
(921,1602,qs),
(921,1574,o),
(927,1548,q),
(913,1557,o),
(899,1567,qs),
(711,1694,o),
(556,1694,q),
(216,1498,l),
(216,1425,l),
(337,1345,ls),
(375,1322,o),
(400,1322,q),
(437,1336,l),
(272,1461,l),
(559,1629,l),
(570,1630,o),
(581,1630,qs),
(713,1630,o),
(873,1518,qs),
(926,1481,o),
(971,1455,q),
(988,1431,o)
);
}
);
width = 1442;
}
);
note = uni17B3;
unicode = 6067;
},
{
glyphname = uni17A3;
layers = (
{
layerId = m01;
shapes = (
{
closed = 1;
nodes = (
(272,143,ls),
(186,236,o),
(186,299,qs),
(186,389,o),
(280,389,qs),
(329,389,l),
(329,81,l)
);
},
{
closed = 1;
nodes = (
(993,143,ls),
(907,236,o),
(907,299,qs),
(907,389,o),
(1001,389,qs),
(1050,389,l),
(1050,81,l)
);
},
{
closed = 1;
nodes = (
(1050,442,l),
(1001,442,ls),
(854,442,o),
(854,300,qs),
(854,212,o),
(952,106,qs),
(1050,0,l),
(1113,0,l),
(1113,909,l),
(922,1018,l),
(1040,1216,l),
(1133,1156,ls),
(1170,1132,o),
(1198,1132,qs),
(1241,1132,o),
(1266,1187,q),
(1256,1186,o),
(1246,1186,qs),
(1202,1186,o),
(1164,1211,qs),
(1024,1303,l),
(867,1045,l),
(867,985,l),
(1050,882,l),
(1050,632,l),
(392,632,l),
(392,909,l),
(221,1019,l),
(370,1216,l),
(428,1179,ls),
(485,1141,o),
(525,1141,qs),
(570,1141,o),
(595,1187,q),
(529,1187,o),
(485,1216,qs),
(353,1303,l),
(166,1045,l),
(166,985,l),
(329,882,l),
(329,442,l),
(280,442,ls),
(133,442,o),
(133,300,qs),
(133,212,o),
(231,106,qs),
(329,0,l),
(392,0,l),
(392,579,l),
(1050,579,l)
);
}
);
width = 1442;
}
);
note = uni17A3;
unicode = 6051;
},
{
glyphname = uni17A4;
layers = (
{
layerId = m01;
shapes = (
{
closed = 1;
nodes = (
(272,143,ls),
(186,236,o),
(186,299,qs),
(186,389,o),
(280,389,qs),
(329,389,l),
(329,81,l)
);
},
{
closed = 1;
nodes = (
(993,143,ls),
(907,236,o),
(907,299,qs),
(907,389,o),
(1001,389,qs),
(1050,389,l),
(1050,81,l)
);
},
{
closed = 1;
nodes = (
(923,1017,l),
(1261,1239,l),
(1772,1063,l),
(1772,0,l),
(1835,0,l),
(1835,1103,l),
(1264,1303,l),
(867,1045,l),
(867,985,l),
(1050,882,l),
(1050,632,l),
(392,632,l),
(392,909,l),
(221,1019,l),
(370,1216,l),
(428,1179,ls),
(485,1141,o),
(525,1141,qs),
(570,1141,o),
(595,1187,q),
(529,1187,o),
(485,1216,qs),
(353,1303,l),
(166,1045,l),
(166,985,l),
(329,882,l),
(329,442,l),
(280,442,ls),
(133,442,o),
(133,300,qs),
(133,212,o),
(231,106,qs),
(329,0,l),
(392,0,l),
(392,579,l),
(1050,579,l),
(1050,442,l),
(1001,442,ls),
(854,442,o),
(854,300,qs),
(854,212,o),
(952,106,qs),
(1050,0,l),
(1113,0,l),
(1113,909,l)
);
}
);
width = 2164;
}
);
note = uni17A4;
unicode = 6052;
},
{
glyphname = uni17B6;
layers = (
{
layerId = m01;
shapes = (
{
closed = 1;
nodes = (
(-23,1243,l),
(330,1068,l),
(330,0,l),
(393,0,l),
(393,1103,l),
(-19,1303,l),
(-370,1126,l),
(-349,1075,l)
);
}
);
width = 721;
}
);
note = uni17B6;
unicode = 6070;
},
{
glyphname = uni17BF;
layers = (
{
layerId = m01;
shapes = (
{
closed = 1;
nodes = (
(99,1706,qs),
(150,1662,l),
(-355,1662,ls),
(-435,1662,o),
(-435,1702,qs),
(-435,1875,o),
(-268,1875,qs),
(-97,1875,o)
);
},
{
closed = 1;
nodes = (
(329,1476,o),
(329,1383,qs),
(329,-326,ls),
(329,-505,o),
(117,-505,qs),
(-116,-505,ls),
(-329,-505,o),
(-329,-326,qs),
(-329,-93,l),
(-392,-93,l),
(-392,-326,ls),
(-392,-559,o),
(-116,-559,qs),
(117,-559,ls),
(392,-559,o),
(392,-326,qs),
(392,1383,ls),
(392,1562,o),
(231,1659,q),
(231,1981,l),
(178,1981,l),
(178,1708,l),
(142,1740,ls),
(80,1794,o),
(21,1833,q),
(21,2017,l),
(-32,2017,l),
(-32,1866,l),
(-156,1935,o),
(-268,1935,qs),
(-494,1935,o),
(-494,1702,qs),
(-494,1609,o),
(-355,1609,qs),
(183,1609,ls),
(231,1609,o)
);
}
);
width = 721;
}
);
note = uni17BF;
unicode = 6079;
},
{
glyphname = uni17C0;
layers = (
{
layerId = m01;
shapes = (
{
closed = 1;
nodes = (
(329,-505,o),
(117,-505,qs),
(-116,-505,ls),
(-329,-505,o),
(-329,-326,qs),
(-329,-93,l),
(-392,-93,l),
(-392,-326,ls),
(-392,-559,o),
(-116,-559,qs),
(117,-559,ls),
(392,-559,o),
(392,-326,qs),
(392,1374,ls),
(392,1624,o),
(163,1624,qs),
(-70,1624,ls),
(-236,1624,o),
(-236,1717,qs),
(-236,1800,ls),
(-236,1940,o),
(-354,1940,qs),
(-442,1940,o),
(-442,1887,q),
(-299,1887,o),
(-299,1800,qs),
(-299,1717,ls),
(-299,1570,o),
(-70,1570,qs),
(163,1570,ls),
(329,1570,o),
(329,1374,qs),
(329,-326,ls)
);
}
);
width = 721;
}
);
note = uni17C0;
unicode = 6080;
},
{
glyphname = uni17C1;
layers = (
{
layerId = m01;
shapes = (
{
closed = 1;
nodes = (
(421,389,ls),
(515,389,o),
(515,299,qs),
(515,216,o),
(392,81,q),
(392,389,l)
);
},
{
closed = 1;
nodes = (
(392,0,l),
(568,202,o),
(568,300,qs),
(568,442,o),
(421,442,qs),
(392,442,l),
(392,1208,l),
(458,1165,ls),
(523,1121,o),
(558,1121,qs),
(605,1121,o),
(619,1174,q),
(589,1174,ls),
(559,1174,o),
(459,1239,qs),
(358,1303,l),
(329,1303,l),
(329,0,l)
);
}
);
width = 721;
}
);
note = uni17C1;
unicode = 6081;
},
{
glyphname = uni17C2;
layers = (
{
layerId = m01;
shapes = (
{
closed = 1;
nodes = (
(286,1629,qs),
(194,1629,o),
(194,1533,qs),
(194,1396,o),
(400,1396,qs),
(629,1396,o),
(629,1629,qs),
(629,1862,o),
(411,1862,qs),
(349,1862,o),
(349,1819,q),
(565,1819,o),
(565,1629,qs),
(565,1449,o),
(400,1449,qs),
(268,1449,o),
(268,1513,qs),
(268,1576,o),
(349,1576,q),
(349,1629,o)
);
},
{
closed = 1;
nodes = (
(421,389,ls),
(515,389,o),
(515,299,qs),
(515,216,o),
(392,81,q),
(392,389,l)
);
},
{
closed = 1;
nodes = (
(392,0,l),
(568,202,o),
(568,300,qs),
(568,442,o),
(421,442,qs),
(392,442,l),
(392,1208,l),
(458,1165,ls),
(523,1121,o),
(558,1121,qs),
(605,1121,o),
(619,1174,q),
(589,1174,ls),
(559,1174,o),
(459,1239,qs),
(358,1303,l),
(329,1303,l),
(329,0,l)
);
}
);
width = 721;
}
);
note = uni17C2;
unicode = 6082;
},
{
glyphname = uni17C3;
layers = (
{
layerId = m01;
shapes = (
{
closed = 1;
nodes = (
(257,1519,qs),
(257,1396,o),
(422,1396,qs),
(629,1396,o),
(629,1583,qs),
(629,1749,o),
(422,1749,qs),
(330,1749,l),
(330,1936,o),
(216,1936,qs),
(143,1936,o),
(143,1883,q),
(257,1883,o),
(257,1749,qs),
(257,1696,o),
(330,1696,qs),
(422,1696,ls),
(555,1696,o),
(555,1583,qs),
(555,1449,o),
(422,1449,qs),
(320,1449,o),
(320,1583,q),
(257,1583,o)
);
},
{
closed = 1;
nodes = (
(421,389,ls),
(515,389,o),
(515,299,qs),
(515,216,o),
(392,81,q),
(392,389,l)
);
},
{
closed = 1;
nodes = (
(392,0,l),
(568,202,o),
(568,300,qs),
(568,442,o),
(421,442,qs),
(392,442,l),
(392,1208,l),
(458,1165,ls),
(523,1121,o),
(558,1121,qs),
(605,1121,o),
(619,1174,q),
(589,1174,ls),
(559,1174,o),
(459,1239,qs),
(358,1303,l),
(329,1303,l),
(329,0,l)
);
}
);
width = 721;
}
);
note = uni17C3;
unicode = 6083;
},
{
glyphname = uni17C4;
layers = (
{
layerId = m01;
shapes = (
{
closed = 1;
nodes = (
(-23,1243,l),
(330,1068,l),
(330,0,l),
(393,0,l),
(393,1103,l),
(-19,1303,l),
(-370,1126,l),
(-349,1075,l)
);
}
);
width = 721;
}
);
note = uni17C4;
unicode = 6084;
},
{
glyphname = uni17C5;
layers = (
{
layerId = m01;
shapes = (
{
closed = 1;
nodes = (
(429,1164,qs),
(429,1536,ls),
(429,1722,o),
(292,1722,qs),
(224,1722,o),
(224,1679,q),
(367,1679,o),
(367,1536,qs),
(367,1075,l),
(383,994,l),
(429,1087,o)
);
},
{
closed = 1;
nodes = (
(-23,1243,l),
(330,1068,l),
(330,0,l),
(393,0,l),
(393,1103,l),
(-19,1303,l),
(-370,1126,l),
(-349,1075,l)
);
}
);
width = 721;
}
);
note = uni17C5;
unicode = 6085;
},
{
glyphname = uni17C7;
layers = (
{
layerId = m01;
shapes = (
{
closed = 1;
nodes = (
(372,1212,qs),
(411,1251,o),
(488,1251,qs),
(566,1251,o),
(605,1212,qs),
(645,1171,o),
(645,1094,qs),
(645,1015,o),
(605,976,qs),
(566,938,o),
(488,938,qs),
(411,938,o),
(372,976,qs),
(332,1015,o),
(332,1094,qs),
(332,1171,o)
);
},
{
closed = 1;
nodes = (
(646,1251,qs),
(594,1303,o),
(488,1303,qs),
(383,1303,o),
(331,1251,qs),
(279,1199,o),
(279,1094,qs),
(279,989,o),
(331,936,qs),
(383,884,o),
(488,884,qs),
(594,884,o),
(646,936,qs),
(698,989,o),
(698,1094,qs),
(698,1199,o)
);
},
{
closed = 1;
nodes = (
(372,326,qs),
(411,366,o),
(488,366,qs),
(566,366,o),
(605,326,qs),
(645,287,o),
(645,209,qs),
(645,132,o),
(605,93,qs),
(566,53,o),
(488,53,qs),
(411,53,o),
(372,93,qs),
(332,132,o),
(332,209,qs),
(332,287,o)
);
},
{
closed = 1;
nodes = (
(646,367,qs),
(594,419,o),
(488,419,qs),
(383,419,o),
(331,367,qs),
(279,315,o),
(279,209,qs),
(279,104,o),
(331,52,qs),
(383,0,o),
(488,0,qs),
(594,0,o),
(646,52,qs),
(698,104,o),
(698,209,qs),
(698,315,o)
);
}
);
width = 977;
}
);
note = uni17C7;
unicode = 6087;
},
{
glyphname = uni17C8;
layers = (
{
layerId = m01;
shapes = (
{
closed = 1;
nodes = (
(476,67,qs),
(496,83,o),
(505,116,q),
(487,100,o),
(478,100,qs),
(469,100,o),
(469,116,qs),
(469,149,o),
(458,166,qs),
(447,183,o),
(424,183,qs),
(401,183,o),
(390,166,qs),
(379,150,o),
(379,116,qs),
(379,83,o),
(390,67,qs),
(401,50,o),
(424,50,qs),
(455,50,o)
);
},
{
closed = 1;
nodes = (
(476,996,qs),
(496,1012,o),
(505,1045,q),
(487,1029,o),
(478,1029,qs),
(469,1029,o),
(469,1045,qs),
(469,1078,o),
(458,1095,qs),
(447,1112,o),
(424,1112,qs),
(401,1112,o),
(390,1095,qs),
(379,1079,o),
(379,1045,qs),
(379,1012,o),
(390,996,qs),
(401,979,o),
(424,979,qs),
(455,979,o)
);
}
);
width = 791;
}
);
note = uni17C8;
unicode = 6088;
},
{
glyphname = uni17DC;
layers = (
{
layerId = m01;
shapes = (
{
closed = 1;
nodes = (
(1130,-8,o),
(1130,319,qs),
(1130,635,o),
(675,635,qs),
(472,635,o),
(270,768,o),
(270,902,qs),
(270,1042,o),
(469,1182,o),
(665,1182,qs),
(868,1182,o),
(1072,1073,o),
(1072,967,qs),
(1072,883,o),
(982,802,o),
(891,802,qs),
(851,802,o),
(851,778,qs),
(851,754,o),
(891,754,qs),
(1006,754,o),
(1120,858,o),
(1120,966,qs),
(1120,1097,o),
(892,1230,o),
(665,1230,qs),
(220,1230,o),
(220,903,qs),
(220,587,o),
(675,587,qs),
(878,587,o),
(1080,454,o),
(1080,320,qs),
(1080,180,o),
(881,40,o),
(685,40,qs),
(482,40,o),
(278,149,o),
(278,255,qs),
(278,339,o),
(368,420,o),
(459,420,qs),
(499,420,o),
(499,444,qs),
(499,468,o),
(459,468,qs),
(344,468,o),
(230,364,o),
(230,256,qs),
(230,125,o),
(458,-8,o),
(685,-8,q),
(685,-8,l),
(685,-8,l)
);
}
);
width = 1350;
}
);
note = uni17DC;
unicode = 6108;
},
{
glyphname = uni1789.a;
layers = (
{
layerId = m01;
shapes = (
{
closed = 1;
nodes = (
(535,389,o),
(535,299,qs),
(535,236,o),
(449,143,qs),
(392,81,l),
(392,389,l),
(441,389,ls)
);
},
{
closed = 1;
nodes = (
(722,1130,l),
(555,1303,l),
(329,1056,l),
(329,0,l),
(392,0,l),
(490,106,ls),
(588,212,o),
(588,300,qs),
(588,442,o),
(441,442,qs),
(392,442,l),
(392,1046,l),
(553,1223,l),
(722,1047,l),
(891,1223,l),
(1050,1045,l),
(1050,0,l),
(1113,0,l),
(1113,1028,l),
(1443,1234,l),
(1772,1024,l),
(1772,0,l),
(1835,0,l),
(1835,1054,l),
(1443,1303,l),
(1083,1086,l),
(888,1303,l)
);
}
);
width = 2164;
}
);
note = uni1789.a;
},
{
glyphname = uni17BF.b;
layers = (
{
layerId = m01;
shapes = (
{
closed = 1;
nodes = (
(99,1706,qs),
(150,1662,l),
(-355,1662,ls),
(-435,1662,o),
(-435,1702,qs),
(-435,1875,o),
(-268,1875,qs),
(-97,1875,o)
);
},
{
closed = 1;
nodes = (
(329,1476,o),
(329,1383,qs),
(329,-886,ls),
(329,-1065,o),
(117,-1065,qs),
(-116,-1065,ls),
(-329,-1065,o),
(-329,-886,qs),
(-329,-713,l),
(-392,-713,l),
(-392,-886,ls),
(-392,-1119,o),
(-116,-1119,qs),
(117,-1119,ls),
(392,-1119,o),
(392,-886,qs),
(392,1383,ls),
(392,1562,o),
(231,1659,q),
(231,1981,l),
(178,1981,l),
(178,1708,l),
(142,1740,ls),
(80,1794,o),
(21,1833,q),
(21,2017,l),
(-32,2017,l),
(-32,1866,l),
(-156,1935,o),
(-268,1935,qs),
(-494,1935,o),
(-494,1702,qs),
(-494,1609,o),
(-355,1609,qs),
(183,1609,ls),
(231,1609,o)
);
}
);
width = 721;
}
);
note = uni17BF.b;
},
{
glyphname = uni17C0.b;
layers = (
{
layerId = m01;
shapes = (
{
closed = 1;
nodes = (
(329,-1065,o),
(117,-1065,qs),
(-116,-1065,ls),
(-329,-1065,o),
(-329,-886,qs),
(-329,-713,l),
(-392,-713,l),
(-392,-886,ls),
(-392,-1119,o),
(-116,-1119,qs),
(117,-1119,ls),
(392,-1119,o),
(392,-886,qs),
(392,1374,ls),
(392,1624,o),
(163,1624,qs),
(-70,1624,ls),
(-236,1624,o),
(-236,1717,qs),
(-236,1800,ls),
(-236,1940,o),
(-354,1940,qs),
(-442,1940,o),
(-442,1887,q),
(-299,1887,o),
(-299,1800,qs),
(-299,1717,ls),
(-299,1570,o),
(-70,1570,qs),
(163,1570,ls),
(329,1570,o),
(329,1374,qs),
(329,-886,ls)
);
}
);
width = 721;
}
);
note = uni17C0.b;
},
{
glyphname = uni1780_17B6;
layers = (
{
layerId = m01;
shapes = (
{
closed = 1;
nodes = (
(392,878,o),
(651,878,qs),
(791,878,ls),
(1051,878,o),
(1051,698,qs),
(1051,0,l),
(1113,0,l),
(1113,698,ls),
(1113,931,o),
(791,931,qs),
(651,931,ls),
(329,931,o),
(329,698,qs),
(329,0,l),
(392,0,l),
(392,698,ls)
);
},
{
closed = 1;
nodes = (
(329,976,ls),
(360,952,o),
(378,952,qs),
(395,952,o),
(430,975,q),
(298,1080,l),
(611,1239,l),
(1037,1020,l),
(1338,1234,l),
(1773,1067,l),
(1773,0,l),
(1835,0,l),
(1835,1103,l),
(1339,1303,l),
(1042,1084,l),
(617,1303,l),
(216,1102,l),
(216,1065,l)
);
}
);
width = 1442;
}
);
note = uni1780_17B6;
},
{
glyphname = uni1780_17C5;
layers = (
{
layerId = m01;
shapes = (
{
closed = 1;
nodes = (
(392,878,o),
(651,878,qs),
(791,878,ls),
(1051,878,o),
(1051,698,qs),
(1051,0,l),
(1113,0,l),
(1113,698,ls),
(1113,931,o),
(791,931,qs),
(651,931,ls),
(329,931,o),
(329,698,qs),
(329,0,l),
(392,0,l),
(392,698,ls)
);
},
{
closed = 1;
nodes = (
(1865,1164,qs),
(1865,1536,ls),
(1865,1722,o),
(1728,1722,qs),
(1660,1722,o),
(1660,1679,q),
(1803,1679,o),
(1803,1536,qs),
(1803,1116,l),
(1339,1303,l),
(1042,1084,l),
(617,1303,l),
(216,1102,l),
(216,1065,l),
(329,976,ls),
(360,952,o),
(378,952,qs),
(395,952,o),
(430,975,q),
(298,1080,l),
(611,1239,l),
(1037,1020,l),
(1338,1234,l),
(1773,1067,l),
(1773,0,l),
(1835,0,l),
(1835,1029,l),
(1865,1102,o)
);
}
);
width = 1442;
}
);
note = uni1780_17C5;
},
{
glyphname = uni1781_17B6;
layers = (
{
layerId = m01;
shapes = (
{
closed = 1;
nodes = (
(528,948,o),
(528,884,qs),
(528,799,o),
(422,799,qs),
(392,799,o),
(392,838,qs),
(392,948,l),
(422,948,ls)
);
},
{
closed = 1;
nodes = (
(1772,1068,l),
(1772,0,l),
(1835,0,l),
(1835,1103,l),
(1423,1303,l),
(1104,1142,l),
(1059,1303,o),
(791,1303,qs),
(651,1303,ls),
(329,1303,o),
(329,1071,qs),
(329,838,ls),
(329,745,o),
(422,745,qs),
(582,745,o),
(582,884,qs),
(582,1001,o),
(422,1001,qs),
(392,1001,l),
(392,1071,ls),
(392,1250,o),
(651,1250,qs),
(791,1250,ls),
(1050,1250,o),
(1050,1071,qs),
(1050,931,ls),
(1050,811,o),
(690,630,qs),
(329,448,l),
(329,233,ls),
(329,0,o),
(651,0,qs),
(791,0,ls),
(1113,0,o),
(1113,372,qs),
(1113,555,l),
(1050,478,l),
(1050,372,ls),
(1050,53,o),
(791,53,qs),
(651,53,ls),
(392,53,o),
(392,233,qs),
(392,428,l),
(753,610,ls),
(1113,791,o),
(1113,931,qs),
(1113,1085,l),
(1419,1243,l)
);
}
);
width = 1442;
}
);
note = uni1781_17B6;
},
{
glyphname = uni1781_17C5;
layers = (
{
layerId = m01;
shapes = (
{
closed = 1;
nodes = (
(528,948,o),
(528,884,qs),
(528,799,o),
(422,799,qs),
(392,799,o),
(392,838,qs),
(392,948,l),
(422,948,ls)
);
},
{
closed = 1;
nodes = (
(1865,1164,qs),
(1865,1536,ls),
(1865,1722,o),
(1728,1722,qs),
(1660,1722,o),
(1660,1679,q),
(1803,1679,o),
(1803,1536,qs),
(1803,1119,l),
(1423,1303,l),
(1104,1142,l),
(1059,1303,o),
(791,1303,qs),
(651,1303,ls),
(329,1303,o),
(329,1071,qs),
(329,838,ls),
(329,745,o),
(422,745,qs),
(582,745,o),
(582,884,qs),
(582,1001,o),
(422,1001,qs),
(392,1001,l),
(392,1071,ls),
(392,1250,o),
(651,1250,qs),
(791,1250,ls),
(1050,1250,o),
(1050,1071,qs),
(1050,931,ls),
(1050,811,o),
(690,630,qs),
(329,448,l),
(329,233,ls),
(329,0,o),
(651,0,qs),
(791,0,ls),
(1113,0,o),
(1113,372,qs),
(1113,555,l),
(1050,478,l),
(1050,372,ls),
(1050,53,o),
(791,53,qs),
(651,53,ls),
(392,53,o),
(392,233,qs),
(392,428,l),
(753,610,ls),
(1113,791,o),
(1113,931,qs),
(1113,1085,l),
(1419,1243,l),
(1772,1068,l),
(1772,0,l),
(1835,0,l),
(1835,1029,l),
(1865,1102,o)
);
}
);
width = 1442;
}
);
note = uni1781_17C5;
},
{
glyphname = uni1782_17B6;
layers = (
{
layerId = m01;
shapes = (
{
closed = 1;
nodes = (
(392,878,o),
(651,878,qs),
(791,878,ls),
(1051,878,o),
(1051,698,qs),
(1051,0,l),
(1113,0,l),
(1113,698,ls),
(1113,931,o),
(791,931,qs),
(651,931,ls),
(329,931,o),
(329,698,qs),
(329,0,l),
(392,0,l),
(392,21,l),
(547,347,o),
(670,347,qs),
(704,347,o),
(721,340,qs),
(736,333,o),
(750,333,qs),
(754,333,ls),
(770,334,o),
(770,359,qs),
(770,383,o),
(715,400,o),
(670,400,qs),
(524,400,o),
(392,113,q),
(392,698,ls)
);
},
{
closed = 1;
nodes = (
(329,976,ls),
(360,952,o),
(378,952,qs),
(395,952,o),
(430,975,q),
(298,1080,l),
(611,1239,l),
(1037,1020,l),
(1338,1234,l),
(1773,1067,l),
(1773,0,l),
(1835,0,l),
(1835,1103,l),
(1339,1303,l),
(1042,1084,l),
(617,1303,l),
(216,1102,l),
(216,1065,l)
);
}
);
width = 1442;
}
);
note = uni1782_17B6;
},
{
glyphname = uni1782_17C5;
layers = (
{
layerId = m01;
shapes = (
{
closed = 1;
nodes = (
(392,878,o),
(651,878,qs),
(791,878,ls),
(1051,878,o),
(1051,698,qs),
(1051,0,l),
(1113,0,l),
(1113,698,ls),
(1113,931,o),
(791,931,qs),
(651,931,ls),
(329,931,o),
(329,698,qs),
(329,0,l),
(392,0,l),
(392,21,l),
(547,347,o),
(670,347,qs),
(704,347,o),
(721,340,qs),
(736,333,o),
(750,333,qs),
(754,333,ls),
(770,334,o),
(770,359,qs),
(770,383,o),
(715,400,o),
(670,400,qs),
(524,400,o),
(392,113,q),
(392,698,ls)
);
},
{
closed = 1;
nodes = (
(1865,1164,qs),
(1865,1536,ls),
(1865,1722,o),
(1728,1722,qs),
(1660,1722,o),
(1660,1679,q),
(1803,1679,o),
(1803,1536,qs),
(1803,1116,l),
(1339,1303,l),
(1042,1084,l),
(617,1303,l),
(216,1102,l),
(216,1065,l),
(329,976,ls),
(360,952,o),
(378,952,qs),
(395,952,o),
(430,975,q),
(298,1080,l),
(611,1239,l),
(1037,1020,l),
(1338,1234,l),
(1773,1067,l),
(1773,0,l),
(1835,0,l),
(1835,1029,l),
(1865,1102,o)
);
}
);
width = 1442;
}
);
note = uni1782_17C5;
},
{
glyphname = uni1783_17B6;
layers = (
{
layerId = m01;
shapes = (
{
closed = 1;
nodes = (
(186,914,o),
(186,1004,qs),
(186,1067,o),
(272,1160,qs),
(329,1222,l),
(329,914,l),
(280,914,ls)
);
},
{
closed = 1;
nodes = (
(1644,1017,l),
(1982,1239,l),
(2493,1063,l),
(2493,0,l),
(2556,0,l),
(2556,1103,l),
(1985,1303,l),
(1588,1045,l),
(1588,985,l),
(1771,882,l),
(1771,233,ls),
(1771,53,o),
(1489,53,qs),
(1396,53,ls),
(1113,53,o),
(1113,233,qs),
(1113,909,l),
(922,1018,l),
(1040,1216,l),
(1133,1156,ls),
(1170,1132,o),
(1198,1132,qs),
(1241,1132,o),
(1266,1187,q),
(1256,1186,o),
(1246,1186,qs),
(1202,1186,o),
(1164,1211,qs),
(1024,1303,l),
(867,1045,l),
(867,985,l),
(1050,882,l),
(1050,233,ls),
(1050,53,o),
(768,53,qs),
(675,53,ls),
(392,53,o),
(392,233,qs),
(392,1303,l),
(329,1303,l),
(231,1197,ls),
(133,1091,o),
(133,1003,qs),
(133,861,o),
(280,861,qs),
(329,861,l),
(329,233,ls),
(329,0,o),
(675,0,qs),
(768,0,ls),
(1009,0,o),
(1082,114,q),
(1154,0,o),
(1396,0,qs),
(1489,0,ls),
(1834,0,o),
(1834,233,qs),
(1834,909,l)
);
}
);
width = 2164;
}
);
note = uni1783_17B6;
},
{
glyphname = uni1783_17C5;
layers = (
{
layerId = m01;
shapes = (
{
closed = 1;
nodes = (
(186,914,o),
(186,1004,qs),
(186,1067,o),
(272,1160,qs),
(329,1222,l),
(329,914,l),
(280,914,ls)
);
},
{
closed = 1;
nodes = (
(2586,1164,qs),
(2586,1536,ls),
(2586,1722,o),
(2449,1722,qs),
(2381,1722,o),
(2381,1679,q),
(2524,1679,o),
(2524,1536,qs),
(2524,1114,l),
(1985,1303,l),
(1588,1045,l),
(1588,985,l),
(1771,882,l),
(1771,233,ls),
(1771,53,o),
(1489,53,qs),
(1396,53,ls),
(1113,53,o),
(1113,233,qs),
(1113,909,l),
(922,1018,l),
(1040,1216,l),
(1133,1156,ls),
(1170,1132,o),
(1198,1132,qs),
(1241,1132,o),
(1266,1187,q),
(1256,1186,o),
(1246,1186,qs),
(1202,1186,o),
(1164,1211,qs),
(1024,1303,l),
(867,1045,l),
(867,985,l),
(1050,882,l),
(1050,233,ls),
(1050,53,o),
(768,53,qs),
(675,53,ls),
(392,53,o),
(392,233,qs),
(392,1303,l),
(329,1303,l),
(231,1197,ls),
(133,1091,o),
(133,1003,qs),
(133,861,o),
(280,861,qs),
(329,861,l),
(329,233,ls),
(329,0,o),
(675,0,qs),
(768,0,ls),
(1009,0,o),
(1082,114,q),
(1154,0,o),
(1396,0,qs),
(1489,0,ls),
(1834,0,o),
(1834,233,qs),
(1834,909,l),
(1644,1017,l),
(1982,1239,l),
(2493,1063,l),
(2493,0,l),
(2556,0,l),
(2556,1029,l),
(2586,1102,o)
);
}
);
width = 2164;
}
);
note = uni1783_17C5;
},
{
glyphname = uni1784_17B6;
layers = (
{
layerId = m01;
shapes = (
{
closed = 1;
nodes = (
(847,1238,qs),
(944,1238,o),
(944,1166,qs),
(944,1094,o),
(847,1094,qs),
(750,1094,o),
(750,1166,qs),
(750,1238,o)
);
},
{
closed = 1;
nodes = (
(230,549,o),
(230,612,qs),
(230,671,o),
(305,752,qs),
(329,779,l),
(329,549,l),
(300,549,ls)
);
},
{
closed = 1;
nodes = (
(330,868,l),
(257,788,ls),
(167,690,o),
(167,611,qs),
(167,496,o),
(300,496,qs),
(329,496,l),
(329,0,l),
(392,0,l),
(721,240,l),
(1050,0,l),
(1113,0,l),
(1113,966,l),
(934,1049,l),
(1009,1083,o),
(1009,1166,qs),
(1009,1303,o),
(848,1303,qs),
(685,1303,o),
(685,1166,qs),
(685,1112,o),
(710,1094,q),
(558,1094,ls),
(393,1094,o),
(393,1164,qs),
(393,1334,ls),
(393,1489,o),
(285,1489,qs),
(186,1489,o),
(186,1443,q),
(329,1443,o),
(329,1334,qs),
(329,1164,ls),
(329,1041,o),
(558,1041,qs),
(807,1041,l),
(1050,941,l),
(1050,71,l),
(721,310,l),
(392,71,l),
(392,868,l)
);
},
{
closed = 1;
nodes = (
(1419,1243,l),
(1772,1068,l),
(1772,0,l),
(1835,0,l),
(1835,1103,l),
(1423,1303,l),
(1072,1126,l),
(1093,1075,l)
);
}
);
width = 1442;
}
);
note = uni1784_17B6;
},
{
glyphname = uni1784_17C5;
layers = (
{
layerId = m01;
shapes = (
{
closed = 1;
nodes = (
(847,1238,qs),
(944,1238,o),
(944,1166,qs),
(944,1094,o),
(847,1094,qs),
(750,1094,o),
(750,1166,qs),
(750,1238,o)
);
},
{
closed = 1;
nodes = (
(230,549,o),
(230,612,qs),
(230,671,o),
(305,752,qs),
(329,779,l),
(329,549,l),
(300,549,ls)
);
},
{
closed = 1;
nodes = (
(330,868,l),
(257,788,ls),
(167,690,o),
(167,611,qs),
(167,496,o),
(300,496,qs),
(329,496,l),
(329,0,l),
(392,0,l),
(721,240,l),
(1050,0,l),
(1113,0,l),
(1113,966,l),
(934,1049,l),
(1009,1083,o),
(1009,1166,qs),
(1009,1303,o),
(848,1303,qs),
(685,1303,o),
(685,1166,qs),
(685,1112,o),
(710,1094,q),
(558,1094,ls),
(393,1094,o),
(393,1164,qs),
(393,1334,ls),
(393,1489,o),
(285,1489,qs),
(186,1489,o),
(186,1443,q),
(329,1443,o),
(329,1334,qs),
(329,1164,ls),
(329,1041,o),
(558,1041,qs),
(807,1041,l),
(1050,941,l),
(1050,71,l),
(721,310,l),
(392,71,l),
(392,868,l)
);
},
{
closed = 1;
nodes = (
(1865,1164,qs),
(1865,1536,ls),
(1865,1722,o),
(1728,1722,qs),
(1660,1722,o),
(1660,1679,q),
(1803,1679,o),
(1803,1536,qs),
(1803,1119,l),
(1423,1303,l),
(1072,1126,l),
(1093,1075,l),
(1419,1243,l),
(1772,1068,l),
(1772,0,l),
(1835,0,l),
(1835,1029,l),
(1865,1102,o)
);
}
);
width = 1442;
}
);
note = uni1784_17C5;
},
{
glyphname = uni1785_17B6;
layers = (
{
layerId = m01;
shapes = (
{
closed = 1;
nodes = (
(951,572,o),
(951,635,qs),
(951,694,o),
(1026,775,qs),
(1051,802,l),
(1051,572,l),
(1021,572,ls)
);
},
{
closed = 1;
nodes = (
(1037,1020,l),
(1338,1234,l),
(1773,1067,l),
(1773,0,l),
(1835,0,l),
(1835,1103,l),
(1339,1303,l),
(1042,1084,l),
(617,1303,l),
(216,1102,l),
(216,1045,l),
(329,956,l),
(329,233,ls),
(329,0,o),
(651,0,qs),
(791,0,ls),
(1113,0,o),
(1113,233,qs),
(1113,891,l),
(1051,891,l),
(978,811,ls),
(888,713,o),
(888,634,qs),
(888,519,o),
(1021,519,qs),
(1051,519,l),
(1051,233,ls),
(1051,53,o),
(791,53,qs),
(651,53,ls),
(392,53,o),
(392,233,qs),
(392,985,l),
(283,1073,l),
(611,1239,l)
);
}
);
width = 1442;
}
);
note = uni1785_17B6;
},
{
glyphname = uni1785_17C5;
layers = (
{
layerId = m01;
shapes = (
{
closed = 1;
nodes = (
(951,572,o),
(951,635,qs),
(951,694,o),
(1026,775,qs),
(1051,802,l),
(1051,572,l),
(1021,572,ls)
);
},
{
closed = 1;
nodes = (
(1865,1164,qs),
(1865,1536,ls),
(1865,1722,o),
(1728,1722,qs),
(1660,1722,o),
(1660,1679,q),
(1803,1679,o),
(1803,1536,qs),
(1803,1116,l),
(1339,1303,l),
(1042,1084,l),
(617,1303,l),
(216,1102,l),
(216,1045,l),
(329,956,l),
(329,233,ls),
(329,0,o),
(651,0,qs),
(791,0,ls),
(1113,0,o),
(1113,233,qs),
(1113,891,l),
(1051,891,l),
(978,811,ls),
(888,713,o),
(888,634,qs),
(888,519,o),
(1021,519,qs),
(1051,519,l),
(1051,233,ls),
(1051,53,o),
(791,53,qs),
(651,53,ls),
(392,53,o),
(392,233,qs),
(392,985,l),
(283,1073,l),
(611,1239,l),
(1037,1020,l),
(1338,1234,l),
(1773,1067,l),
(1773,0,l),
(1835,0,l),
(1835,1029,l),
(1865,1102,o)
);
}
);
width = 1442;
}
);
note = uni1785_17C5;
},
{
glyphname = uni1786_17B6;
layers = (
{
layerId = m01;
shapes = (
{
closed = 1;
nodes = (
(329,366,q),
(329,78,l),
(222,159,o),
(222,256,qs),
(222,366,o)
);
},
{
closed = 1;
nodes = (
(951,572,o),
(951,635,qs),
(951,694,o),
(1026,775,qs),
(1050,802,l),
(1050,572,l),
(1021,572,ls)
);
},
{
closed = 1;
nodes = (
(283,1073,l),
(611,1239,l),
(1037,1020,l),
(1338,1234,l),
(1773,1067,l),
(1773,0,l),
(1835,0,l),
(1835,1103,l),
(1339,1303,l),
(1042,1084,l),
(617,1303,l),
(216,1102,l),
(216,1045,l),
(329,956,l),
(329,419,l),
(169,419,o),
(169,256,qs),
(169,130,o),
(267,50,qs),
(329,0,l),
(392,0,l),
(392,366,l),
(511,366,ls),
(671,366,o),
(671,217,qs),
(671,0,o),
(884,0,qs),
(1113,0,o),
(1113,233,qs),
(1113,891,l),
(1051,891,l),
(978,811,ls),
(888,713,o),
(888,634,qs),
(888,519,o),
(1021,519,qs),
(1050,519,l),
(1050,233,ls),
(1050,53,o),
(884,53,qs),
(724,53,o),
(724,217,qs),
(724,419,o),
(511,419,qs),
(392,419,l),
(392,985,l)
);
}
);
width = 1442;
}
);
note = uni1786_17B6;
},
{
glyphname = uni1786_17C5;
layers = (
{
layerId = m01;
shapes = (
{
closed = 1;
nodes = (
(329,366,q),
(329,78,l),
(222,159,o),
(222,256,qs),
(222,366,o)
);
},
{
closed = 1;
nodes = (
(951,572,o),
(951,635,qs),
(951,694,o),
(1026,775,qs),
(1050,802,l),
(1050,572,l),
(1021,572,ls)
);
},
{
closed = 1;
nodes = (
(1865,1164,qs),
(1865,1536,ls),
(1865,1722,o),
(1728,1722,qs),
(1660,1722,o),
(1660,1679,q),
(1803,1679,o),
(1803,1536,qs),
(1803,1116,l),
(1339,1303,l),
(1042,1084,l),
(617,1303,l),
(216,1102,l),
(216,1045,l),
(329,956,l),
(329,419,l),
(169,419,o),
(169,256,qs),
(169,130,o),
(267,50,qs),
(329,0,l),
(392,0,l),
(392,366,l),
(511,366,ls),
(671,366,o),
(671,217,qs),
(671,0,o),
(884,0,qs),
(1113,0,o),
(1113,233,qs),
(1113,891,l),
(1051,891,l),
(978,811,ls),
(888,713,o),
(888,634,qs),
(888,519,o),
(1021,519,qs),
(1050,519,l),
(1050,233,ls),
(1050,53,o),
(884,53,qs),
(724,53,o),
(724,217,qs),
(724,419,o),
(511,419,qs),
(392,419,l),
(392,985,l),
(283,1073,l),
(611,1239,l),
(1037,1020,l),
(1338,1234,l),
(1773,1067,l),
(1773,0,l),
(1835,0,l),
(1835,1029,l),
(1865,1102,o)
);
}
);
width = 1442;
}
);
note = uni1786_17C5;
},
{
glyphname = uni1787_17B6;
layers = (
{
layerId = m01;
shapes = (
{
closed = 1;
nodes = (
(1419,1243,l),
(1772,1068,l),
(1772,0,l),
(1835,0,l),
(1835,1103,l),
(1423,1303,l),
(1089,1134,l),
(1113,1177,o),
(1113,1240,qs),
(1113,1443,o),
(957,1443,qs),
(884,1443,o),
(884,1410,q),
(1051,1410,o),
(1051,1240,qs),
(1051,1094,o),
(868,1094,qs),
(761,1094,l),
(507,1303,l),
(216,1097,l),
(216,1045,l),
(329,956,l),
(329,0,l),
(392,0,l),
(721,240,l),
(1051,0,l),
(1113,0,l),
(1113,861,l),
(1051,861,l),
(1051,71,l),
(721,310,l),
(392,71,l),
(392,985,l),
(281,1074,l),
(495,1228,l),
(726,1041,l),
(868,1041,ls),
(1018,1041,o),
(1076,1116,q),
(1093,1075,l)
);
}
);
width = 1442;
}
);
note = uni1787_17B6;
},
{
glyphname = uni1787_17C5;
layers = (
{
layerId = m01;
shapes = (
{
closed = 1;
nodes = (
(1865,1164,qs),
(1865,1536,ls),
(1865,1722,o),
(1728,1722,qs),
(1660,1722,o),
(1660,1679,q),
(1803,1679,o),
(1803,1536,qs),
(1803,1119,l),
(1423,1303,l),
(1089,1134,l),
(1113,1177,o),
(1113,1240,qs),
(1113,1443,o),
(957,1443,qs),
(884,1443,o),
(884,1410,q),
(1051,1410,o),
(1051,1240,qs),
(1051,1094,o),
(868,1094,qs),
(761,1094,l),
(507,1303,l),
(216,1097,l),
(216,1045,l),
(329,956,l),
(329,0,l),
(392,0,l),
(721,240,l),
(1051,0,l),
(1113,0,l),
(1113,861,l),
(1051,861,l),
(1051,71,l),
(721,310,l),
(392,71,l),
(392,985,l),
(281,1074,l),
(495,1228,l),
(726,1041,l),
(868,1041,ls),
(1018,1041,o),
(1076,1116,q),
(1093,1075,l),
(1419,1243,l),
(1772,1068,l),
(1772,0,l),
(1835,0,l),
(1835,1029,l),
(1865,1102,o)
);
}
);
width = 1442;
}
);
note = uni1787_17C5;
},
{
glyphname = uni1788_17B6;
layers = (
{
layerId = m01;
shapes = (
{
closed = 1;
nodes = (
(535,389,o),
(535,299,qs),
(535,236,o),
(449,143,qs),
(392,81,l),
(392,389,l),
(441,389,ls)
);
},
{
closed = 1;
nodes = (
(2367,1017,l),
(2705,1239,l),
(3216,1063,l),
(3216,0,l),
(3279,0,l),
(3279,1103,l),
(2708,1303,l),
(2311,1045,l),
(2311,985,l),
(2494,882,l),
(2494,233,ls),
(2494,53,o),
(2211,53,qs),
(2118,53,ls),
(1835,53,o),
(1835,233,qs),
(1835,909,l),
(1644,1018,l),
(1762,1216,l),
(1855,1156,ls),
(1892,1132,o),
(1920,1132,qs),
(1963,1132,o),
(1988,1187,q),
(1978,1186,o),
(1968,1186,qs),
(1924,1186,o),
(1886,1211,qs),
(1746,1303,l),
(1589,1045,l),
(1589,985,l),
(1772,882,l),
(1772,233,ls),
(1772,53,o),
(1489,53,qs),
(1396,53,ls),
(1113,53,o),
(1113,233,qs),
(1113,1103,l),
(721,1303,l),
(329,1104,l),
(329,0,l),
(392,0,l),
(490,106,ls),
(588,212,o),
(588,300,qs),
(588,442,o),
(441,442,qs),
(392,442,l),
(392,1081,l),
(700,1241,l),
(1050,1066,l),
(1050,233,ls),
(1050,0,o),
(1396,0,qs),
(1489,0,ls),
(1731,0,o),
(1804,114,q),
(1876,0,o),
(2118,0,qs),
(2211,0,ls),
(2557,0,o),
(2557,233,qs),
(2557,909,l)
);
}
);
width = 2885;
}
);
note = uni1788_17B6;
},
{
glyphname = uni1788_17C5;
layers = (
{
layerId = m01;
shapes = (
{
closed = 1;
nodes = (
(535,389,o),
(535,299,qs),
(535,236,o),
(449,143,qs),
(392,81,l),
(392,389,l),
(441,389,ls)
);
},
{
closed = 1;
nodes = (
(3309,1164,qs),
(3309,1536,ls),
(3309,1722,o),
(3172,1722,qs),
(3104,1722,o),
(3104,1679,q),
(3247,1679,o),
(3247,1536,qs),
(3247,1114,l),
(2708,1303,l),
(2311,1045,l),
(2311,985,l),
(2494,882,l),
(2494,233,ls),
(2494,53,o),
(2211,53,qs),
(2118,53,ls),
(1835,53,o),
(1835,233,qs),
(1835,909,l),
(1644,1018,l),
(1762,1216,l),
(1855,1156,ls),
(1892,1132,o),
(1920,1132,qs),
(1963,1132,o),
(1988,1187,q),
(1978,1186,o),
(1968,1186,qs),
(1924,1186,o),
(1886,1211,qs),
(1746,1303,l),
(1589,1045,l),
(1589,985,l),
(1772,882,l),
(1772,233,ls),
(1772,53,o),
(1489,53,qs),
(1396,53,ls),
(1113,53,o),
(1113,233,qs),
(1113,1103,l),
(721,1303,l),
(329,1104,l),
(329,0,l),
(392,0,l),
(490,106,ls),
(588,212,o),
(588,300,qs),
(588,442,o),
(441,442,qs),
(392,442,l),
(392,1081,l),
(700,1241,l),
(1050,1066,l),
(1050,233,ls),
(1050,0,o),
(1396,0,qs),
(1489,0,ls),
(1731,0,o),
(1804,114,q),
(1876,0,o),
(2118,0,qs),
(2211,0,ls),
(2557,0,o),
(2557,233,qs),
(2557,909,l),
(2367,1017,l),
(2705,1239,l),
(3216,1063,l),
(3216,0,l),
(3279,0,l),
(3279,1029,l),
(3309,1102,o)
);
}
);
width = 2885;
}
);
note = uni1788_17C5;
},
{
glyphname = uni1789_17B6;
layers = (
{
layerId = m01;
shapes = (
{
closed = 1;
nodes = (
(1683,-93,qs),
(1606,-93,o),
(1606,-136,q),
(1773,-136,o),
(1773,-279,qs),
(1773,-505,o),
(1552,-505,qs),
(1314,-505,o),
(933,-140,o),
(611,-140,qs),
(495,-140,o),
(329,-237,o),
(329,-317,q),
(408,-235,o),
(515,-193,o),
(611,-193,qs),
(891,-193,o),
(1281,-559,o),
(1552,-559,qs),
(1835,-559,o),
(1835,-279,qs),
(1835,-93,o)
);
},
{
closed = 1;
nodes = (
(535,389,o),
(535,299,qs),
(535,236,o),
(449,143,qs),
(392,81,l),
(392,389,l),
(441,389,ls)
);
},
{
closed = 1;
nodes = (
(2494,1068,l),
(2494,0,l),
(2557,0,l),
(2557,1103,l),
(2145,1303,l),
(1795,1079,l),
(1443,1303,l),
(1083,1086,l),
(888,1303,l),
(722,1130,l),
(555,1303,l),
(329,1056,l),
(329,0,l),
(392,0,l),
(490,106,ls),
(588,212,o),
(588,300,qs),
(588,442,o),
(441,442,qs),
(392,442,l),
(392,1046,l),
(553,1223,l),
(722,1047,l),
(891,1223,l),
(1050,1045,l),
(1050,0,l),
(1113,0,l),
(1113,1028,l),
(1443,1234,l),
(1772,1024,l),
(1772,0,l),
(1835,0,l),
(1835,1047,l),
(2141,1243,l)
);
}
);
width = 2164;
}
);
note = uni1789_17B6;
},
{
glyphname = uni1789_17C5;
layers = (
{
layerId = m01;
shapes = (
{
closed = 1;
nodes = (
(1683,-93,qs),
(1606,-93,o),
(1606,-136,q),
(1773,-136,o),
(1773,-279,qs),
(1773,-505,o),
(1552,-505,qs),
(1314,-505,o),
(933,-140,o),
(611,-140,qs),
(495,-140,o),
(329,-237,o),
(329,-317,q),
(408,-235,o),
(515,-193,o),
(611,-193,qs),
(891,-193,o),
(1281,-559,o),
(1552,-559,qs),
(1835,-559,o),
(1835,-279,qs),
(1835,-93,o)
);
},
{
closed = 1;
nodes = (
(535,389,o),
(535,299,qs),
(535,236,o),
(449,143,qs),
(392,81,l),
(392,389,l),
(441,389,ls)
);
},
{
closed = 1;
nodes = (
(2586,1164,qs),
(2586,1536,ls),
(2586,1722,o),
(2449,1722,qs),
(2381,1722,o),
(2381,1679,q),
(2524,1679,o),
(2524,1536,qs),
(2524,1119,l),
(2145,1303,l),
(1795,1079,l),
(1443,1303,l),
(1083,1086,l),
(888,1303,l),
(722,1130,l),
(555,1303,l),
(329,1056,l),
(329,0,l),
(392,0,l),
(490,106,ls),
(588,212,o),
(588,300,qs),
(588,442,o),
(441,442,qs),
(392,442,l),
(392,1046,l),
(553,1223,l),
(722,1047,l),
(891,1223,l),
(1050,1045,l),
(1050,0,l),
(1113,0,l),
(1113,1028,l),
(1443,1234,l),
(1772,1024,l),
(1772,0,l),
(1835,0,l),
(1835,1047,l),
(2141,1243,l),
(2494,1068,l),
(2494,0,l),
(2557,0,l),
(2557,1032,l),
(2586,1103,o)
);
}
);
width = 2164;
}
);
note = uni1789_17C5;
},
{
glyphname = uni178A_17B6;
layers = (
{
layerId = m01;
shapes = (
{
closed = 1;
nodes = (
(721,310,l),
(392,71,l),
(392,861,l),
(329,861,l),
(329,0,l),
(392,0,l),
(721,240,l),
(1050,0,l),
(1113,0,l),
(1113,861,l),
(1050,861,l),
(1050,71,l)
);
},
{
closed = 1;
nodes = (
(1419,1243,l),
(1772,1068,l),
(1772,0,l),
(1835,0,l),
(1835,1103,l),
(1423,1303,l),
(1098,1139,l),
(1113,1175,o),
(1113,1221,qs),
(1113,1443,o),
(947,1443,qs),
(884,1443,o),
(884,1390,q),
(1050,1390,o),
(1050,1221,qs),
(1050,1054,o),
(768,1054,qs),
(675,1054,ls),
(392,1054,o),
(392,1174,qs),
(392,1250,o),
(466,1250,qs),
(529,1250,o),
(529,1164,q),
(582,1164,o),
(582,1213,qs),
(582,1303,o),
(464,1303,qs),
(329,1303,o),
(329,1174,qs),
(329,1001,o),
(675,1001,qs),
(768,1001,ls),
(1007,1001,o),
(1080,1106,q),
(1093,1075,l)
);
}
);
width = 1442;
}
);
note = uni178A_17B6;
},
{
glyphname = uni178A_17C5;
layers = (
{
layerId = m01;
shapes = (
{
closed = 1;
nodes = (
(721,310,l),
(392,71,l),
(392,861,l),
(329,861,l),
(329,0,l),
(392,0,l),
(721,240,l),
(1050,0,l),
(1113,0,l),
(1113,861,l),
(1050,861,l),
(1050,71,l)
);
},
{
closed = 1;
nodes = (
(1865,1164,qs),
(1865,1536,ls),
(1865,1722,o),
(1728,1722,qs),
(1660,1722,o),
(1660,1679,q),
(1803,1679,o),
(1803,1536,qs),
(1803,1119,l),
(1423,1303,l),
(1098,1139,l),
(1113,1175,o),
(1113,1221,qs),
(1113,1443,o),
(947,1443,qs),
(884,1443,o),
(884,1390,q),
(1050,1390,o),
(1050,1221,qs),
(1050,1054,o),
(768,1054,qs),
(675,1054,ls),
(392,1054,o),
(392,1174,qs),
(392,1250,o),
(466,1250,qs),
(529,1250,o),
(529,1164,q),
(582,1164,o),
(582,1213,qs),
(582,1303,o),
(464,1303,qs),
(329,1303,o),
(329,1174,qs),
(329,1001,o),
(675,1001,qs),
(768,1001,ls),
(1007,1001,o),
(1080,1106,q),
(1093,1075,l),
(1419,1243,l),
(1772,1068,l),
(1772,0,l),
(1835,0,l),
(1835,1029,l),
(1865,1102,o)
);
}
);
width = 1442;
}
);
note = uni178A_17C5;
},
{
glyphname = uni178B_17B6;
layers = (
{
layerId = m01;
shapes = (
{
closed = 1;
nodes = (
(186,914,o),
(186,1004,qs),
(186,1067,o),
(272,1160,qs),
(329,1222,l),
(329,914,l),
(280,914,ls)
);
},
{
closed = 1;
nodes = (
(1302,1280,qs),
(1302,1489,o),
(1133,1489,qs),
(1070,1489,o),
(1070,1446,q),
(1239,1446,o),
(1239,1280,qs),
(1239,1186,o),
(1198,1186,qs),
(1182,1186,o),
(1144,1211,qs),
(1004,1303,l),
(867,1045,l),
(867,985,l),
(1050,882,l),
(1050,233,ls),
(1050,53,o),
(768,53,qs),
(675,53,ls),
(392,53,o),
(392,233,qs),
(392,1303,l),
(329,1303,l),
(231,1197,ls),
(133,1091,o),
(133,1003,qs),
(133,861,o),
(280,861,qs),
(329,861,l),
(329,233,ls),
(329,0,o),
(675,0,qs),
(768,0,ls),
(1113,0,o),
(1113,233,qs),
(1113,909,l),
(922,1018,l),
(1020,1216,l),
(1113,1156,ls),
(1150,1132,o),
(1198,1132,qs),
(1250,1132,o),
(1276,1169,q),
(1419,1243,l),
(1772,1068,l),
(1772,0,l),
(1835,0,l),
(1835,1103,l),
(1423,1303,l),
(1300,1241,l),
(1302,1259,o)
);
}
);
width = 1442;
}
);
note = uni178B_17B6;
},
{
glyphname = uni178B_17C5;
layers = (
{
layerId = m01;
shapes = (
{
closed = 1;
nodes = (
(186,914,o),
(186,1004,qs),
(186,1067,o),
(272,1160,qs),
(329,1222,l),
(329,914,l),
(280,914,ls)
);
},
{
closed = 1;
nodes = (
(1865,1164,qs),
(1865,1536,ls),
(1865,1722,o),
(1728,1722,qs),
(1660,1722,o),
(1660,1679,q),
(1803,1679,o),
(1803,1536,qs),
(1803,1119,l),
(1423,1303,l),
(1300,1241,l),
(1302,1259,o),
(1302,1280,qs),
(1302,1489,o),
(1133,1489,qs),
(1070,1489,o),
(1070,1446,q),
(1239,1446,o),
(1239,1280,qs),
(1239,1186,o),
(1198,1186,qs),
(1182,1186,o),
(1144,1211,qs),
(1004,1303,l),
(867,1045,l),
(867,985,l),
(1050,882,l),
(1050,233,ls),
(1050,53,o),
(768,53,qs),
(675,53,ls),
(392,53,o),
(392,233,qs),
(392,1303,l),
(329,1303,l),
(231,1197,ls),
(133,1091,o),
(133,1003,qs),
(133,861,o),
(280,861,qs),
(329,861,l),
(329,233,ls),
(329,0,o),
(675,0,qs),
(768,0,ls),
(1113,0,o),
(1113,233,qs),
(1113,909,l),
(922,1018,l),
(1020,1216,l),
(1113,1156,ls),
(1150,1132,o),
(1198,1132,qs),
(1250,1132,o),
(1276,1169,q),
(1419,1243,l),
(1772,1068,l),
(1772,0,l),
(1835,0,l),
(1835,1029,l),
(1865,1102,o)
);
}
);
width = 1442;
}
);
note = uni178B_17C5;
},
{
glyphname = uni178C_17B6;
layers = (
{
layerId = m01;
shapes = (
{
closed = 1;
nodes = (
(422,948,ls),
(528,948,o),
(528,884,qs),
(528,799,o),
(422,799,qs),
(392,799,o),
(392,838,qs),
(392,948,l)
);
},
{
closed = 1;
nodes = (
(1772,1068,l),
(1772,0,l),
(1835,0,l),
(1835,1103,l),
(1423,1303,l),
(1072,1098,l),
(888,1303,l),
(722,1130,l),
(555,1303,l),
(329,1056,l),
(329,838,ls),
(329,745,o),
(422,745,qs),
(582,745,o),
(582,884,qs),
(582,1001,o),
(422,1001,qs),
(392,1001,l),
(392,1046,l),
(553,1223,l),
(722,1047,l),
(891,1223,l),
(1050,1045,l),
(1050,931,ls),
(1050,811,o),
(690,630,qs),
(329,448,l),
(329,277,ls),
(329,0,o),
(536,0,qs),
(554,0,l),
(1051,260,l),
(1051,117,ls),
(1051,0,o),
(884,0,q),
(884,-47,o),
(971,-47,qs),
(1113,-47,o),
(1113,115,qs),
(1113,535,l),
(1051,535,l),
(1051,317,l),
(541,53,l),
(392,53,o),
(392,277,qs),
(392,428,l),
(753,610,ls),
(1113,791,o),
(1113,931,qs),
(1113,1052,l),
(1109,1057,l),
(1419,1243,l)
);
}
);
width = 1442;
}
);
note = uni178C_17B6;
},
{
glyphname = uni178C_17C5;
layers = (
{
layerId = m01;
shapes = (
{
closed = 1;
nodes = (
(422,948,ls),
(528,948,o),
(528,884,qs),
(528,799,o),
(422,799,qs),
(392,799,o),
(392,838,qs),
(392,948,l)
);
},
{
closed = 1;
nodes = (
(1865,1164,qs),
(1865,1536,ls),
(1865,1722,o),
(1728,1722,qs),
(1660,1722,o),
(1660,1679,q),
(1803,1679,o),
(1803,1536,qs),
(1803,1119,l),
(1423,1303,l),
(1072,1098,l),
(888,1303,l),
(722,1130,l),
(555,1303,l),
(329,1056,l),
(329,838,ls),
(329,745,o),
(422,745,qs),
(582,745,o),
(582,884,qs),
(582,1001,o),
(422,1001,qs),
(392,1001,l),
(392,1046,l),
(553,1223,l),
(722,1047,l),
(891,1223,l),
(1050,1045,l),
(1050,931,ls),
(1050,811,o),
(690,630,qs),
(329,448,l),
(329,277,ls),
(329,0,o),
(536,0,qs),
(554,0,l),
(1051,260,l),
(1051,117,ls),
(1051,0,o),
(884,0,q),
(884,-47,o),
(971,-47,qs),
(1113,-47,o),
(1113,115,qs),
(1113,535,l),
(1051,535,l),
(1051,317,l),
(541,53,l),
(392,53,o),
(392,277,qs),
(392,428,l),
(753,610,ls),
(1113,791,o),
(1113,931,qs),
(1113,1052,l),
(1109,1057,l),
(1419,1243,l),
(1772,1068,l),
(1772,0,l),
(1835,0,l),
(1835,1029,l),
(1865,1102,o)
);
}
);
width = 1442;
}
);
note = uni178C_17C5;
},
{
glyphname = uni178D_17B6;
layers = (
{
layerId = m01;
shapes = (
{
closed = 1;
nodes = (
(535,389,o),
(535,299,qs),
(535,236,o),
(449,143,qs),
(392,81,l),
(392,389,l),
(441,389,ls)
);
},
{
closed = 1;
nodes = (
(1050,366,q),
(1050,78,l),
(943,159,o),
(943,256,qs),
(943,366,o)
);
},
{
closed = 1;
nodes = (
(1644,1017,l),
(1982,1239,l),
(2493,1063,l),
(2493,0,l),
(2556,0,l),
(2556,1103,l),
(1985,1303,l),
(1588,1045,l),
(1588,985,l),
(1771,882,l),
(1771,233,ls),
(1771,53,o),
(1605,53,qs),
(1445,53,o),
(1445,217,qs),
(1445,419,o),
(1232,419,qs),
(1113,419,l),
(1113,1052,l),
(888,1303,l),
(722,1130,l),
(555,1303,l),
(329,1056,l),
(329,0,l),
(392,0,l),
(490,106,ls),
(588,212,o),
(588,300,qs),
(588,442,o),
(441,442,qs),
(392,442,l),
(392,1046,l),
(553,1223,l),
(722,1047,l),
(891,1223,l),
(1050,1045,l),
(1050,419,l),
(890,419,o),
(890,256,qs),
(890,130,o),
(988,50,qs),
(1050,0,l),
(1113,0,l),
(1113,366,l),
(1232,366,ls),
(1392,366,o),
(1392,217,qs),
(1392,0,o),
(1605,0,qs),
(1834,0,o),
(1834,233,qs),
(1834,909,l)
);
}
);
width = 2164;
}
);
note = uni178D_17B6;
},
{
glyphname = uni178D_17C5;
layers = (
{
layerId = m01;
shapes = (
{
closed = 1;
nodes = (
(535,389,o),
(535,299,qs),
(535,236,o),
(449,143,qs),
(392,81,l),
(392,389,l),
(441,389,ls)
);
},
{
closed = 1;
nodes = (
(1050,366,q),
(1050,78,l),
(943,159,o),
(943,256,qs),
(943,366,o)
);
},
{
closed = 1;
nodes = (
(2586,1164,qs),
(2586,1536,ls),
(2586,1722,o),
(2449,1722,qs),
(2381,1722,o),
(2381,1679,q),
(2524,1679,o),
(2524,1536,qs),
(2524,1114,l),
(1985,1303,l),
(1588,1045,l),
(1588,985,l),
(1771,882,l),
(1771,233,ls),
(1771,53,o),
(1605,53,qs),
(1445,53,o),
(1445,217,qs),
(1445,419,o),
(1232,419,qs),
(1113,419,l),
(1113,1052,l),
(888,1303,l),
(722,1130,l),
(555,1303,l),
(329,1056,l),
(329,0,l),
(392,0,l),
(490,106,ls),
(588,212,o),
(588,300,qs),
(588,442,o),
(441,442,qs),
(392,442,l),
(392,1046,l),
(553,1223,l),
(722,1047,l),
(891,1223,l),
(1050,1045,l),
(1050,419,l),
(890,419,o),
(890,256,qs),
(890,130,o),
(988,50,qs),
(1050,0,l),
(1113,0,l),
(1113,366,l),
(1232,366,ls),
(1392,366,o),
(1392,217,qs),
(1392,0,o),
(1605,0,qs),
(1834,0,o),
(1834,233,qs),
(1834,909,l),
(1644,1017,l),
(1982,1239,l),
(2493,1063,l),
(2493,0,l),
(2556,0,l),
(2556,1029,l),
(2586,1102,o)
);
}
);
width = 2164;
}
);
note = uni178D_17C5;
},
{
glyphname = uni178E_17B6;
layers = (
{
layerId = m01;
shapes = (
{
closed = 1;
nodes = (
(535,389,o),
(535,299,qs),
(535,236,o),
(449,143,qs),
(392,81,l),
(392,389,l),
(441,389,ls)
);
},
{
closed = 1;
nodes = (
(3215,1068,l),
(3215,0,l),
(3278,0,l),
(3278,1103,l),
(2866,1303,l),
(2515,1126,l),
(2516,1123,l),
(2163,1303,l),
(1771,1104,l),
(1771,71,l),
(1442,310,l),
(1113,71,l),
(1113,1103,l),
(721,1303,l),
(329,1104,l),
(329,0,l),
(392,0,l),
(490,106,ls),
(588,212,o),
(588,300,qs),
(588,442,o),
(441,442,qs),
(392,442,l),
(392,1081,l),
(700,1241,l),
(1050,1066,l),
(1050,0,l),
(1113,0,l),
(1442,240,l),
(1771,0,l),
(1834,0,l),
(1834,1081,l),
(2142,1241,l),
(2492,1066,l),
(2492,0,l),
(2555,0,l),
(2555,1085,l),
(2862,1243,l)
);
}
);
width = 2885;
}
);
note = uni178E_17B6;
},
{
glyphname = uni178E_17C5;
layers = (
{
layerId = m01;
shapes = (
{
closed = 1;
nodes = (
(535,389,o),
(535,299,qs),
(535,236,o),
(449,143,qs),
(392,81,l),
(392,389,l),
(441,389,ls)
);
},
{
closed = 1;
nodes = (
(3309,1164,qs),
(3309,1536,ls),
(3309,1722,o),
(3172,1722,qs),
(3104,1722,o),
(3104,1679,q),
(3247,1679,o),
(3247,1536,qs),
(3247,1118,l),
(2866,1303,l),
(2515,1126,l),
(2516,1123,l),
(2163,1303,l),
(1771,1104,l),
(1771,71,l),
(1442,310,l),
(1113,71,l),
(1113,1103,l),
(721,1303,l),
(329,1104,l),
(329,0,l),
(392,0,l),
(490,106,ls),
(588,212,o),
(588,300,qs),
(588,442,o),
(441,442,qs),
(392,442,l),
(392,1081,l),
(700,1241,l),
(1050,1066,l),
(1050,0,l),
(1113,0,l),
(1442,240,l),
(1771,0,l),
(1834,0,l),
(1834,1081,l),
(2142,1241,l),
(2492,1066,l),
(2492,0,l),
(2555,0,l),
(2555,1085,l),
(2862,1243,l),
(3215,1068,l),
(3215,0,l),
(3278,0,l),
(3278,1027,l),
(3309,1101,o)
);
}
);
width = 2885;
}
);
note = uni178E_17C5;
},
{
glyphname = uni178F_17B6;
layers = (
{
layerId = m01;
shapes = (
{
closed = 1;
nodes = (
(535,389,o),
(535,299,qs),
(535,236,o),
(449,143,qs),
(392,81,l),
(392,389,l),
(441,389,ls)
);
},
{
closed = 1;
nodes = (
(392,0,l),
(490,106,ls),
(588,212,o),
(588,300,qs),
(588,442,o),
(441,442,qs),
(392,442,l),
(392,698,ls),
(392,878,o),
(651,878,qs),
(791,878,ls),
(1051,878,o),
(1051,698,qs),
(1051,0,l),
(1113,0,l),
(1113,698,ls),
(1113,931,o),
(791,931,qs),
(651,931,ls),
(329,931,o),
(329,698,qs),
(329,0,l)
);
},
{
closed = 1;
nodes = (
(329,976,ls),
(360,952,o),
(378,952,qs),
(395,952,o),
(430,975,q),
(298,1080,l),
(611,1239,l),
(1037,1020,l),
(1338,1234,l),
(1773,1067,l),
(1773,0,l),
(1835,0,l),
(1835,1103,l),
(1339,1303,l),
(1042,1084,l),
(617,1303,l),
(216,1102,l),
(216,1065,l)
);
}
);
width = 1442;
}
);
note = uni178F_17B6;
},
{
glyphname = uni178F_17C5;
layers = (
{
layerId = m01;
shapes = (
{
closed = 1;
nodes = (
(535,389,o),
(535,299,qs),
(535,236,o),
(449,143,qs),
(392,81,l),
(392,389,l),
(441,389,ls)
);
},
{
closed = 1;
nodes = (
(392,0,l),
(490,106,ls),
(588,212,o),
(588,300,qs),
(588,442,o),
(441,442,qs),
(392,442,l),
(392,698,ls),
(392,878,o),
(651,878,qs),
(791,878,ls),
(1051,878,o),
(1051,698,qs),
(1051,0,l),
(1113,0,l),
(1113,698,ls),
(1113,931,o),
(791,931,qs),
(651,931,ls),
(329,931,o),
(329,698,qs),
(329,0,l)
);
},
{
closed = 1;
nodes = (
(1865,1164,qs),
(1865,1536,ls),
(1865,1722,o),
(1728,1722,qs),
(1660,1722,o),
(1660,1679,q),
(1803,1679,o),
(1803,1536,qs),
(1803,1116,l),
(1339,1303,l),
(1042,1084,l),
(617,1303,l),
(216,1102,l),
(216,1065,l),
(329,976,ls),
(360,952,o),
(378,952,qs),
(395,952,o),
(430,975,q),
(298,1080,l),
(611,1239,l),
(1037,1020,l),
(1338,1234,l),
(1773,1067,l),
(1773,0,l),
(1835,0,l),
(1835,1029,l),
(1865,1102,o)
);
}
);
width = 1442;
}
);
note = uni178F_17C5;
},
{
glyphname = uni1790_17B6;
layers = (
{
layerId = m01;
shapes = (
{
closed = 1;
nodes = (
(951,572,o),
(951,635,qs),
(951,694,o),
(1026,775,qs),
(1051,802,l),
(1051,572,l),
(1021,572,ls)
);
},
{
closed = 1;
nodes = (
(1419,1243,l),
(1772,1068,l),
(1772,0,l),
(1835,0,l),
(1835,1103,l),
(1423,1303,l),
(1089,1134,l),
(1113,1177,o),
(1113,1240,qs),
(1113,1443,o),
(957,1443,qs),
(884,1443,o),
(884,1410,q),
(1051,1410,o),
(1051,1240,qs),
(1051,1094,o),
(868,1094,qs),
(761,1094,l),
(507,1303,l),
(216,1097,l),
(216,1045,l),
(329,956,l),
(329,233,ls),
(329,0,o),
(651,0,qs),
(791,0,ls),
(1113,0,o),
(1113,233,qs),
(1113,891,l),
(1051,891,l),
(978,811,ls),
(888,713,o),
(888,634,qs),
(888,519,o),
(1021,519,qs),
(1051,519,l),
(1051,233,ls),
(1051,53,o),
(791,53,qs),
(651,53,ls),
(392,53,o),
(392,233,qs),
(392,985,l),
(281,1074,l),
(495,1228,l),
(726,1041,l),
(868,1041,ls),
(1018,1041,o),
(1076,1116,q),
(1093,1075,l)
);
}
);
width = 1442;
}
);
note = uni1790_17B6;
},
{
glyphname = uni1790_17C5;
layers = (
{
layerId = m01;
shapes = (
{
closed = 1;
nodes = (
(951,572,o),
(951,635,qs),
(951,694,o),
(1026,775,qs),
(1051,802,l),
(1051,572,l),
(1021,572,ls)
);
},
{
closed = 1;
nodes = (
(1865,1164,qs),
(1865,1536,ls),
(1865,1722,o),
(1728,1722,qs),
(1660,1722,o),
(1660,1679,q),
(1803,1679,o),
(1803,1536,qs),
(1803,1119,l),
(1423,1303,l),
(1089,1134,l),
(1113,1177,o),
(1113,1240,qs),
(1113,1443,o),
(957,1443,qs),
(884,1443,o),
(884,1410,q),
(1051,1410,o),
(1051,1240,qs),
(1051,1094,o),
(868,1094,qs),
(761,1094,l),
(507,1303,l),
(216,1097,l),
(216,1045,l),
(329,956,l),
(329,233,ls),
(329,0,o),
(651,0,qs),
(791,0,ls),
(1113,0,o),
(1113,233,qs),
(1113,891,l),
(1051,891,l),
(978,811,ls),
(888,713,o),
(888,634,qs),
(888,519,o),
(1021,519,qs),
(1051,519,l),
(1051,233,ls),
(1051,53,o),
(791,53,qs),
(651,53,ls),
(392,53,o),
(392,233,qs),
(392,985,l),
(281,1074,l),
(495,1228,l),
(726,1041,l),
(868,1041,ls),
(1018,1041,o),
(1076,1116,q),
(1093,1075,l),
(1419,1243,l),
(1772,1068,l),
(1772,0,l),
(1835,0,l),
(1835,1029,l),
(1865,1102,o)
);
}
);
width = 1442;
}
);
note = uni1790_17C5;
},
{
glyphname = uni1791_17B6;
layers = (
{
layerId = m01;
shapes = (
{
closed = 1;
nodes = (
(1060,625,qs),
(1060,567,o),
(998,567,qs),
(932,567,l),
(932,682,o),
(988,682,qs),
(1060,682,o)
);
},
{
closed = 1;
nodes = (
(1772,1068,l),
(1772,0,l),
(1835,0,l),
(1835,1103,l),
(1423,1303,l),
(1094,1137,l),
(1027,1303,o),
(721,1303,qs),
(329,1303,o),
(329,1031,qs),
(329,815,ls),
(329,514,o),
(722,514,qs),
(869,514,l),
(869,280,ls),
(869,53,o),
(697,53,qs),
(525,53,o),
(525,193,qs),
(525,280,ls),
(525,420,o),
(429,420,qs),
(373,420,o),
(373,367,q),
(462,367,o),
(462,280,qs),
(462,193,ls),
(462,0,o),
(697,0,qs),
(932,0,o),
(932,281,qs),
(932,514,l),
(998,514,ls),
(1113,514,o),
(1113,626,qs),
(1113,736,o),
(988,736,qs),
(869,736,o),
(869,567,q),
(722,567,ls),
(392,567,o),
(392,815,qs),
(392,1031,ls),
(392,1250,o),
(721,1250,qs),
(1051,1250,o),
(1051,1031,qs),
(1051,938,o),
(976,938,qs),
(891,938,o),
(891,1024,q),
(838,1024,o),
(838,974,qs),
(838,884,o),
(976,884,qs),
(1113,884,o),
(1113,1031,qs),
(1113,1059,o),
(1109,1083,q),
(1419,1243,l)
);
}
);
width = 1442;
}
);
note = uni1791_17B6;
},
{
glyphname = uni1791_17C5;
layers = (
{
layerId = m01;
shapes = (
{
closed = 1;
nodes = (
(1060,625,qs),
(1060,567,o),
(998,567,qs),
(932,567,l),
(932,682,o),
(988,682,qs),
(1060,682,o)
);
},
{
closed = 1;
nodes = (
(1865,1164,qs),
(1865,1536,ls),
(1865,1722,o),
(1728,1722,qs),
(1660,1722,o),
(1660,1679,q),
(1803,1679,o),
(1803,1536,qs),
(1803,1119,l),
(1423,1303,l),
(1094,1137,l),
(1027,1303,o),
(721,1303,qs),
(329,1303,o),
(329,1031,qs),
(329,815,ls),
(329,514,o),
(722,514,qs),
(869,514,l),
(869,280,ls),
(869,53,o),
(697,53,qs),
(525,53,o),
(525,193,qs),
(525,280,ls),
(525,420,o),
(429,420,qs),
(373,420,o),
(373,367,q),
(462,367,o),
(462,280,qs),
(462,193,ls),
(462,0,o),
(697,0,qs),
(932,0,o),
(932,281,qs),
(932,514,l),
(998,514,ls),
(1113,514,o),
(1113,626,qs),
(1113,736,o),
(988,736,qs),
(869,736,o),
(869,567,q),
(722,567,ls),
(392,567,o),
(392,815,qs),
(392,1031,ls),
(392,1250,o),
(721,1250,qs),
(1051,1250,o),
(1051,1031,qs),
(1051,938,o),
(976,938,qs),
(891,938,o),
(891,1024,q),
(838,1024,o),
(838,974,qs),
(838,884,o),
(976,884,qs),
(1113,884,o),
(1113,1031,qs),
(1113,1059,o),
(1109,1083,q),
(1419,1243,l),
(1772,1068,l),
(1772,0,l),
(1835,0,l),
(1835,1029,l),
(1865,1102,o)
);
}
);
width = 1442;
}
);
note = uni1791_17C5;
},
{
glyphname = uni1792_17B6;
layers = (
{
layerId = m01;
shapes = (
{
closed = 1;
nodes = (
(951,572,o),
(951,635,qs),
(951,694,o),
(1026,775,qs),
(1050,802,l),
(1050,572,l),
(1021,572,ls)
);
},
{
closed = 1;
nodes = (
(283,1073,l),
(611,1239,l),
(1037,1020,l),
(1338,1234,l),
(1773,1067,l),
(1773,0,l),
(1835,0,l),
(1835,1103,l),
(1339,1303,l),
(1042,1084,l),
(617,1303,l),
(216,1102,l),
(216,1045,l),
(329,956,l),
(329,0,l),
(392,0,l),
(721,240,l),
(1050,0,l),
(1113,0,l),
(1113,891,l),
(1051,891,l),
(978,811,ls),
(888,713,o),
(888,634,qs),
(888,519,o),
(1021,519,qs),
(1050,519,l),
(1050,71,l),
(721,310,l),
(392,71,l),
(392,985,l)
);
}
);
width = 1442;
}
);
note = uni1792_17B6;
},
{
glyphname = uni1792_17C5;
layers = (
{
layerId = m01;
shapes = (
{
closed = 1;
nodes = (
(951,572,o),
(951,635,qs),
(951,694,o),
(1026,775,qs),
(1050,802,l),
(1050,572,l),
(1021,572,ls)
);
},
{
closed = 1;
nodes = (
(1865,1164,qs),
(1865,1536,ls),
(1865,1722,o),
(1728,1722,qs),
(1660,1722,o),
(1660,1679,q),
(1803,1679,o),
(1803,1536,qs),
(1803,1116,l),
(1339,1303,l),
(1042,1084,l),
(617,1303,l),
(216,1102,l),
(216,1045,l),
(329,956,l),
(329,0,l),
(392,0,l),
(721,240,l),
(1050,0,l),
(1113,0,l),
(1113,891,l),
(1051,891,l),
(978,811,ls),
(888,713,o),
(888,634,qs),
(888,519,o),
(1021,519,qs),
(1050,519,l),
(1050,71,l),
(721,310,l),
(392,71,l),
(392,985,l),
(283,1073,l),
(611,1239,l),
(1037,1020,l),
(1338,1234,l),
(1773,1067,l),
(1773,0,l),
(1835,0,l),
(1835,1029,l),
(1865,1102,o)
);
}
);
width = 1442;
}
);
note = uni1792_17C5;
},
{
glyphname = uni1793_17B6;
layers = (
{
layerId = m01;
shapes = (
{
closed = 1;
nodes = (
(1021,821,qs),
(931,821,o),
(931,921,qs),
(931,994,o),
(1014,994,qs),
(1050,994,l),
(1050,860,ls),
(1050,821,o)
);
},
{
closed = 1;
nodes = (
(1772,1068,l),
(1772,0,l),
(1835,0,l),
(1835,1103,l),
(1423,1303,l),
(1105,1143,l),
(1058,1303,o),
(721,1303,qs),
(329,1303,o),
(329,1086,qs),
(329,869,ls),
(329,726,o),
(690,616,qs),
(1051,505,l),
(1051,217,ls),
(1051,53,o),
(887,53,qs),
(769,53,o),
(576,326,o),
(392,326,q),
(392,543,l),
(329,543,l),
(329,0,l),
(392,0,l),
(392,273,l),
(556,273,o),
(741,0,o),
(887,0,qs),
(1113,0,o),
(1113,217,qs),
(1113,536,l),
(753,650,ls),
(392,763,o),
(392,869,qs),
(392,1086,ls),
(392,1250,o),
(721,1250,qs),
(1050,1250,o),
(1050,1086,qs),
(1050,1047,l),
(1014,1047,ls),
(878,1047,o),
(878,921,qs),
(878,768,o),
(1021,768,qs),
(1113,768,o),
(1113,860,qs),
(1113,1085,l),
(1419,1243,l)
);
}
);
width = 1442;
}
);
note = uni1793_17B6;
},
{
glyphname = uni1793_17C5;
layers = (
{
layerId = m01;
shapes = (
{
closed = 1;
nodes = (
(1021,821,qs),
(931,821,o),
(931,921,qs),
(931,994,o),
(1014,994,qs),
(1050,994,l),
(1050,860,ls),
(1050,821,o)
);
},
{
closed = 1;
nodes = (
(1865,1164,qs),
(1865,1536,ls),
(1865,1722,o),
(1728,1722,qs),
(1660,1722,o),
(1660,1679,q),
(1803,1679,o),
(1803,1536,qs),
(1803,1119,l),
(1423,1303,l),
(1105,1143,l),
(1058,1303,o),
(721,1303,qs),
(329,1303,o),
(329,1086,qs),
(329,869,ls),
(329,726,o),
(690,616,qs),
(1051,505,l),
(1051,217,ls),
(1051,53,o),
(887,53,qs),
(769,53,o),
(576,326,o),
(392,326,q),
(392,543,l),
(329,543,l),
(329,0,l),
(392,0,l),
(392,273,l),
(556,273,o),
(741,0,o),
(887,0,qs),
(1113,0,o),
(1113,217,qs),
(1113,536,l),
(753,650,ls),
(392,763,o),
(392,869,qs),
(392,1086,ls),
(392,1250,o),
(721,1250,qs),
(1050,1250,o),
(1050,1086,qs),
(1050,1047,l),
(1014,1047,ls),
(878,1047,o),
(878,921,qs),
(878,768,o),
(1021,768,qs),
(1113,768,o),
(1113,860,qs),
(1113,1085,l),
(1419,1243,l),
(1772,1068,l),
(1772,0,l),
(1835,0,l),
(1835,1029,l),
(1865,1102,o)
);
}
);
width = 1442;
}
);
note = uni1793_17C5;
},
{
glyphname = uni1794_17B6;
layers = (
{
layerId = m01;
shapes = (
{
closed = 1;
nodes = (
(1113,-90,l),
(1113,891,l),
(1051,891,l),
(1051,233,ls),
(1051,53,o),
(791,53,qs),
(651,53,ls),
(392,53,o),
(392,233,qs),
(392,985,l),
(283,1073,l),
(611,1239,l),
(1037,1020,l),
(1338,1234,l),
(1773,1067,l),
(1773,0,l),
(1835,0,l),
(1835,1103,l),
(1339,1303,l),
(1042,1084,l),
(617,1303,l),
(216,1102,l),
(216,1045,l),
(329,956,l),
(329,233,ls),
(329,0,o),
(651,0,qs),
(791,0,ls),
(972,0,o),
(1051,73,q),
(1051,-90,l)
);
}
);
width = 1442;
}
);
note = uni1794_17B6;
},
{
glyphname = uni1794_17C5;
layers = (
{
layerId = m01;
shapes = (
{
closed = 1;
nodes = (
(1865,1164,qs),
(1865,1536,ls),
(1865,1722,o),
(1728,1722,qs),
(1660,1722,o),
(1660,1679,q),
(1803,1679,o),
(1803,1536,qs),
(1803,1116,l),
(1339,1303,l),
(1042,1084,l),
(617,1303,l),
(216,1102,l),
(216,1045,l),
(329,956,l),
(329,233,ls),
(329,0,o),
(651,0,qs),
(791,0,ls),
(972,0,o),
(1051,73,q),
(1051,-90,l),
(1113,-90,l),
(1113,891,l),
(1051,891,l),
(1051,233,ls),
(1051,53,o),
(791,53,qs),
(651,53,ls),
(392,53,o),
(392,233,qs),
(392,985,l),
(283,1073,l),
(611,1239,l),
(1037,1020,l),
(1338,1234,l),
(1773,1067,l),
(1773,0,l),
(1835,0,l),
(1835,1029,l),
(1865,1102,o)
);
}
);
width = 1442;
}
);
note = uni1794_17C5;
},
{
glyphname = uni1795_17B6;
layers = (
{
layerId = m01;
shapes = (
{
closed = 1;
nodes = (
(951,572,o),
(951,635,qs),
(951,694,o),
(1026,775,qs),
(1051,802,l),
(1051,572,l),
(1021,572,ls)
);
},
{
closed = 1;
nodes = (
(1419,1243,l),
(1772,1068,l),
(1772,0,l),
(1835,0,l),
(1835,1103,l),
(1423,1303,l),
(1089,1134,l),
(1113,1177,o),
(1113,1240,qs),
(1113,1443,o),
(957,1443,qs),
(884,1443,o),
(884,1410,q),
(1051,1410,o),
(1051,1240,qs),
(1051,1094,o),
(868,1094,qs),
(761,1094,l),
(507,1303,l),
(216,1097,l),
(216,1045,l),
(329,956,l),
(329,0,l),
(392,0,l),
(721,240,l),
(1051,0,l),
(1113,0,l),
(1113,891,l),
(1051,891,l),
(978,811,ls),
(888,713,o),
(888,634,qs),
(888,519,o),
(1021,519,qs),
(1051,519,l),
(1051,71,l),
(721,310,l),
(392,71,l),
(392,985,l),
(281,1074,l),
(495,1228,l),
(726,1041,l),
(868,1041,ls),
(1018,1041,o),
(1076,1116,q),
(1093,1075,l)
);
}
);
width = 1442;
}
);
note = uni1795_17B6;
},
{
glyphname = uni1795_17C5;
layers = (
{
layerId = m01;
shapes = (
{
closed = 1;
nodes = (
(951,572,o),
(951,635,qs),
(951,694,o),
(1026,775,qs),
(1051,802,l),
(1051,572,l),
(1021,572,ls)
);
},
{
closed = 1;
nodes = (
(1865,1164,qs),
(1865,1536,ls),
(1865,1722,o),
(1728,1722,qs),
(1660,1722,o),
(1660,1679,q),
(1803,1679,o),
(1803,1536,qs),
(1803,1119,l),
(1423,1303,l),
(1089,1134,l),
(1113,1177,o),
(1113,1240,qs),
(1113,1443,o),
(957,1443,qs),
(884,1443,o),
(884,1410,q),
(1051,1410,o),
(1051,1240,qs),
(1051,1094,o),
(868,1094,qs),
(761,1094,l),
(507,1303,l),
(216,1097,l),
(216,1045,l),
(329,956,l),
(329,0,l),
(392,0,l),
(721,240,l),
(1051,0,l),
(1113,0,l),
(1113,891,l),
(1051,891,l),
(978,811,ls),
(888,713,o),
(888,634,qs),
(888,519,o),
(1021,519,qs),
(1051,519,l),
(1051,71,l),
(721,310,l),
(392,71,l),
(392,985,l),
(281,1074,l),
(495,1228,l),
(726,1041,l),
(868,1041,ls),
(1018,1041,o),
(1076,1116,q),
(1093,1075,l),
(1419,1243,l),
(1772,1068,l),
(1772,0,l),
(1835,0,l),
(1835,1029,l),
(1865,1102,o)
);
}
);
width = 1442;
}
);
note = uni1795_17C5;
},
{
glyphname = uni1796_17B6;
layers = (
{
layerId = m01;
shapes = (
{
closed = 1;
nodes = (
(535,389,o),
(535,299,qs),
(535,236,o),
(449,143,qs),
(392,81,l),
(392,389,l),
(441,389,ls)
);
},
{
closed = 1;
nodes = (
(1772,1068,l),
(1772,0,l),
(1835,0,l),
(1835,1103,l),
(1423,1303,l),
(1085,1083,l),
(888,1303,l),
(722,1130,l),
(555,1303,l),
(329,1056,l),
(329,0,l),
(392,0,l),
(490,106,ls),
(588,212,o),
(588,300,qs),
(588,442,o),
(441,442,qs),
(392,442,l),
(392,1046,l),
(553,1223,l),
(722,1047,l),
(891,1223,l),
(1050,1045,l),
(1050,0,l),
(1113,0,l),
(1113,1041,l),
(1419,1243,l)
);
}
);
width = 1442;
}
);
note = uni1796_17B6;
},
{
glyphname = uni1796_17C5;
layers = (
{
layerId = m01;
shapes = (
{
closed = 1;
nodes = (
(535,389,o),
(535,299,qs),
(535,236,o),
(449,143,qs),
(392,81,l),
(392,389,l),
(441,389,ls)
);
},
{
closed = 1;
nodes = (
(1865,1164,qs),
(1865,1536,ls),
(1865,1722,o),
(1728,1722,qs),
(1660,1722,o),
(1660,1679,q),
(1803,1679,o),
(1803,1536,qs),
(1803,1119,l),
(1423,1303,l),
(1085,1083,l),
(888,1303,l),
(722,1130,l),
(555,1303,l),
(329,1056,l),
(329,0,l),
(392,0,l),
(490,106,ls),
(588,212,o),
(588,300,qs),
(588,442,o),
(441,442,qs),
(392,442,l),
(392,1046,l),
(553,1223,l),
(722,1047,l),
(891,1223,l),
(1050,1045,l),
(1050,0,l),
(1113,0,l),
(1113,1041,l),
(1419,1243,l),
(1772,1068,l),
(1772,0,l),
(1835,0,l),
(1835,1029,l),
(1865,1102,o)
);
}
);
width = 1442;
}
);
note = uni1796_17C5;
},
{
glyphname = uni1797_17B6;
layers = (
{
layerId = m01;
shapes = (
{
closed = 1;
nodes = (
(329,81,l),
(272,143,ls),
(186,236,o),
(186,299,qs),
(186,389,o),
(280,389,qs),
(329,389,l)
);
},
{
closed = 1;
nodes = (
(392,878,o),
(651,878,qs),
(791,878,ls),
(1051,878,o),
(1051,698,qs),
(1051,0,l),
(1113,0,l),
(1113,698,ls),
(1113,931,o),
(791,931,qs),
(651,931,ls),
(329,931,o),
(329,698,qs),
(329,442,l),
(280,442,ls),
(133,442,o),
(133,300,qs),
(133,212,o),
(231,106,qs),
(329,0,l),
(392,0,l),
(392,698,ls)
);
},
{
closed = 1;
nodes = (
(329,976,ls),
(360,952,o),
(378,952,qs),
(395,952,o),
(430,975,q),
(298,1080,l),
(611,1239,l),
(1037,1020,l),
(1338,1234,l),
(1773,1067,l),
(1773,0,l),
(1835,0,l),
(1835,1103,l),
(1339,1303,l),
(1042,1084,l),
(617,1303,l),
(216,1102,l),
(216,1065,l)
);
}
);
width = 1442;
}
);
note = uni1797_17B6;
},
{
glyphname = uni1797_17C5;
layers = (
{
layerId = m01;
shapes = (
{
closed = 1;
nodes = (
(329,81,l),
(272,143,ls),
(186,236,o),
(186,299,qs),
(186,389,o),
(280,389,qs),
(329,389,l)
);
},
{
closed = 1;
nodes = (
(392,878,o),
(651,878,qs),
(791,878,ls),
(1051,878,o),
(1051,698,qs),
(1051,0,l),
(1113,0,l),
(1113,698,ls),
(1113,931,o),
(791,931,qs),
(651,931,ls),
(329,931,o),
(329,698,qs),
(329,442,l),
(280,442,ls),
(133,442,o),
(133,300,qs),
(133,212,o),
(231,106,qs),
(329,0,l),
(392,0,l),
(392,698,ls)
);
},
{
closed = 1;
nodes = (
(1865,1164,qs),
(1865,1536,ls),
(1865,1722,o),
(1728,1722,qs),
(1660,1722,o),
(1660,1679,q),
(1803,1679,o),
(1803,1536,qs),
(1803,1116,l),
(1339,1303,l),
(1042,1084,l),
(617,1303,l),
(216,1102,l),
(216,1065,l),
(329,976,ls),
(360,952,o),
(378,952,qs),
(395,952,o),
(430,975,q),
(298,1080,l),
(611,1239,l),
(1037,1020,l),
(1338,1234,l),
(1773,1067,l),
(1773,0,l),
(1835,0,l),
(1835,1029,l),
(1865,1102,o)
);
}
);
width = 1442;
}
);
note = uni1797_17C5;
},
{
glyphname = uni1798_17B6;
layers = (
{
layerId = m01;
shapes = (
{
closed = 1;
nodes = (
(923,1017,l),
(1261,1239,l),
(1772,1063,l),
(1772,0,l),
(1835,0,l),
(1835,1103,l),
(1264,1303,l),
(867,1045,l),
(867,985,l),
(1050,882,l),
(1050,632,l),
(392,632,l),
(392,909,l),
(221,1019,l),
(370,1216,l),
(428,1179,ls),
(485,1141,o),
(525,1141,qs),
(570,1141,o),
(595,1187,q),
(529,1187,o),
(485,1216,qs),
(353,1303,l),
(166,1045,l),
(166,985,l),
(329,882,l),
(329,233,ls),
(329,0,o),
(675,0,qs),
(768,0,ls),
(1113,0,o),
(1113,233,qs),
(1113,909,l)
);
},
{
closed = 1;
nodes = (
(1050,53,o),
(768,53,qs),
(675,53,ls),
(392,53,o),
(392,233,qs),
(392,579,l),
(1050,579,l),
(1050,233,ls)
);
}
);
width = 1442;
}
);
note = uni1798_17B6;
},
{
glyphname = uni1798_17C5;
layers = (
{
layerId = m01;
shapes = (
{
closed = 1;
nodes = (
(1050,53,o),
(768,53,qs),
(675,53,ls),
(392,53,o),
(392,233,qs),
(392,579,l),
(1050,579,l),
(1050,233,ls)
);
},
{
closed = 1;
nodes = (
(1865,1164,qs),
(1865,1536,ls),
(1865,1722,o),
(1728,1722,qs),
(1660,1722,o),
(1660,1679,q),
(1803,1679,o),
(1803,1536,qs),
(1803,1114,l),
(1264,1303,l),
(867,1045,l),
(867,985,l),
(1050,882,l),
(1050,632,l),
(392,632,l),
(392,909,l),
(221,1019,l),
(370,1216,l),
(428,1179,ls),
(485,1141,o),
(525,1141,qs),
(570,1141,o),
(595,1187,q),
(529,1187,o),
(485,1216,qs),
(353,1303,l),
(166,1045,l),
(166,985,l),
(329,882,l),
(329,233,ls),
(329,0,o),
(675,0,qs),
(768,0,ls),
(1113,0,o),
(1113,233,qs),
(1113,909,l),
(923,1017,l),
(1261,1239,l),
(1772,1063,l),
(1772,0,l),
(1835,0,l),
(1835,1029,l),
(1865,1102,o)
);
}
);
width = 1442;
}
);
note = uni1798_17C5;
},
{
glyphname = uni1799_17B6;
layers = (
{
layerId = m01;
shapes = (
{
closed = 1;
nodes = (
(392,1222,l),
(449,1160,ls),
(535,1067,o),
(535,1004,qs),
(535,914,o),
(441,914,qs),
(392,914,l)
);
},
{
closed = 1;
nodes = (
(1644,1017,l),
(1982,1239,l),
(2493,1063,l),
(2493,0,l),
(2556,0,l),
(2556,1103,l),
(1985,1303,l),
(1588,1045,l),
(1588,985,l),
(1771,882,l),
(1771,233,ls),
(1771,53,o),
(1489,53,qs),
(1396,53,ls),
(1113,53,o),
(1113,233,qs),
(1113,909,l),
(922,1018,l),
(1040,1216,l),
(1133,1156,ls),
(1170,1132,o),
(1198,1132,qs),
(1241,1132,o),
(1266,1187,q),
(1256,1186,o),
(1246,1186,qs),
(1202,1186,o),
(1164,1211,qs),
(1024,1303,l),
(867,1045,l),
(867,985,l),
(1050,882,l),
(1050,233,ls),
(1050,53,o),
(768,53,qs),
(675,53,ls),
(392,53,o),
(392,233,qs),
(392,861,l),
(441,861,ls),
(588,861,o),
(588,1003,qs),
(588,1091,o),
(490,1197,qs),
(392,1303,l),
(329,1303,l),
(329,233,ls),
(329,0,o),
(675,0,qs),
(768,0,ls),
(1009,0,o),
(1082,114,q),
(1154,0,o),
(1396,0,qs),
(1489,0,ls),
(1834,0,o),
(1834,233,qs),
(1834,909,l)
);
}
);
width = 2164;
}
);
note = uni1799_17B6;
},
{
glyphname = uni1799_17C5;
layers = (
{
layerId = m01;
shapes = (
{
closed = 1;
nodes = (
(392,1222,l),
(449,1160,ls),
(535,1067,o),
(535,1004,qs),
(535,914,o),
(441,914,qs),
(392,914,l)
);
},
{
closed = 1;
nodes = (
(2586,1164,qs),
(2586,1536,ls),
(2586,1722,o),
(2449,1722,qs),
(2381,1722,o),
(2381,1679,q),
(2524,1679,o),
(2524,1536,qs),
(2524,1114,l),
(1985,1303,l),
(1588,1045,l),
(1588,985,l),
(1771,882,l),
(1771,233,ls),
(1771,53,o),
(1489,53,qs),
(1396,53,ls),
(1113,53,o),
(1113,233,qs),
(1113,909,l),
(922,1018,l),
(1040,1216,l),
(1133,1156,ls),
(1170,1132,o),
(1198,1132,qs),
(1241,1132,o),
(1266,1187,q),
(1256,1186,o),
(1246,1186,qs),
(1202,1186,o),
(1164,1211,qs),
(1024,1303,l),
(867,1045,l),
(867,985,l),
(1050,882,l),
(1050,233,ls),
(1050,53,o),
(768,53,qs),
(675,53,ls),
(392,53,o),
(392,233,qs),
(392,861,l),
(441,861,ls),
(588,861,o),
(588,1003,qs),
(588,1091,o),
(490,1197,qs),
(392,1303,l),
(329,1303,l),
(329,233,ls),
(329,0,o),
(675,0,qs),
(768,0,ls),
(1009,0,o),
(1082,114,q),
(1154,0,o),
(1396,0,qs),
(1489,0,ls),
(1834,0,o),
(1834,233,qs),
(1834,909,l),
(1644,1017,l),
(1982,1239,l),
(2493,1063,l),
(2493,0,l),
(2556,0,l),
(2556,1029,l),
(2586,1102,o)
);
}
);
width = 2164;
}
);
note = uni1799_17C5;
},
{
glyphname = uni179A_17B6;
layers = (
{
layerId = m01;
shapes = (
{
closed = 1;
nodes = (
(272,143,ls),
(186,236,o),
(186,299,qs),
(186,389,o),
(280,389,qs),
(329,389,l),
(329,81,l)
);
},
{
closed = 1;
nodes = (
(1051,1068,l),
(1051,0,l),
(1114,0,l),
(1114,1103,l),
(733,1303,l),
(507,1190,l),
(474,1196,o),
(444,1215,qs),
(303,1303,l),
(146,1045,l),
(146,985,l),
(329,882,l),
(329,442,l),
(280,442,ls),
(133,442,o),
(133,300,qs),
(133,212,o),
(231,106,qs),
(329,0,l),
(392,0,l),
(392,909,l),
(201,1018,l),
(319,1216,l),
(432,1153,ls),
(469,1132,o),
(497,1132,qs),
(525,1132,o),
(545,1155,q),
(729,1243,l)
);
}
);
width = 721;
}
);
note = uni179A_17B6;
},
{
glyphname = uni179A_17C5;
layers = (
{
layerId = m01;
shapes = (
{
closed = 1;
nodes = (
(272,143,ls),
(186,236,o),
(186,299,qs),
(186,389,o),
(280,389,qs),
(329,389,l),
(329,81,l)
);
},
{
closed = 1;
nodes = (
(1144,1164,qs),
(1144,1536,ls),
(1144,1722,o),
(1007,1722,qs),
(939,1722,o),
(939,1679,q),
(1082,1679,o),
(1082,1536,qs),
(1082,1120,l),
(733,1303,l),
(507,1190,l),
(474,1196,o),
(444,1215,qs),
(303,1303,l),
(146,1045,l),
(146,985,l),
(329,882,l),
(329,442,l),
(280,442,ls),
(133,442,o),
(133,300,qs),
(133,212,o),
(231,106,qs),
(329,0,l),
(392,0,l),
(392,909,l),
(201,1018,l),
(319,1216,l),
(432,1153,ls),
(469,1132,o),
(497,1132,qs),
(525,1132,o),
(545,1155,q),
(729,1243,l),
(1051,1068,l),
(1051,0,l),
(1114,0,l),
(1114,1029,l),
(1144,1102,o)
);
}
);
width = 721;
}
);
note = uni179A_17C5;
},
{
glyphname = uni179B_17B6;
layers = (
{
layerId = m01;
shapes = (
{
closed = 1;
nodes = (
(535,389,o),
(535,299,qs),
(535,236,o),
(449,143,qs),
(392,81,l),
(392,389,l),
(441,389,ls)
);
},
{
closed = 1;
nodes = (
(1645,1017,l),
(1983,1239,l),
(2494,1063,l),
(2494,0,l),
(2557,0,l),
(2557,1103,l),
(1986,1303,l),
(1589,1045,l),
(1589,985,l),
(1772,882,l),
(1772,233,ls),
(1772,53,o),
(1489,53,qs),
(1396,53,ls),
(1113,53,o),
(1113,233,qs),
(1113,1103,l),
(721,1303,l),
(329,1104,l),
(329,0,l),
(392,0,l),
(490,106,ls),
(588,212,o),
(588,300,qs),
(588,442,o),
(441,442,qs),
(392,442,l),
(392,1081,l),
(700,1241,l),
(1050,1066,l),
(1050,233,ls),
(1050,0,o),
(1396,0,qs),
(1489,0,ls),
(1835,0,o),
(1835,233,qs),
(1835,909,l)
);
}
);
width = 2164;
}
);
note = uni179B_17B6;
},
{
glyphname = uni179B_17C5;
layers = (
{
layerId = m01;
shapes = (
{
closed = 1;
nodes = (
(535,389,o),
(535,299,qs),
(535,236,o),
(449,143,qs),
(392,81,l),
(392,389,l),
(441,389,ls)
);
},
{
closed = 1;
nodes = (
(2586,1164,qs),
(2586,1536,ls),
(2586,1722,o),
(2449,1722,qs),
(2381,1722,o),
(2381,1679,q),
(2524,1679,o),
(2524,1536,qs),
(2524,1115,l),
(1986,1303,l),
(1589,1045,l),
(1589,985,l),
(1772,882,l),
(1772,233,ls),
(1772,53,o),
(1489,53,qs),
(1396,53,ls),
(1113,53,o),
(1113,233,qs),
(1113,1103,l),
(721,1303,l),
(329,1104,l),
(329,0,l),
(392,0,l),
(490,106,ls),
(588,212,o),
(588,300,qs),
(588,442,o),
(441,442,qs),
(392,442,l),
(392,1081,l),
(700,1241,l),
(1050,1066,l),
(1050,233,ls),
(1050,0,o),
(1396,0,qs),
(1489,0,ls),
(1835,0,o),
(1835,233,qs),
(1835,909,l),
(1645,1017,l),
(1983,1239,l),
(2494,1063,l),
(2494,0,l),
(2557,0,l),
(2557,1032,l),
(2586,1103,o)
);
}
);
width = 2164;
}
);
note = uni179B_17C5;
},
{
glyphname = uni179C_17B6;
layers = (
{
layerId = m01;
shapes = (
{
closed = 1;
nodes = (
(272,143,ls),
(186,236,o),
(186,299,qs),
(186,389,o),
(280,389,qs),
(329,389,l),
(329,81,l)
);
},
{
closed = 1;
nodes = (
(1051,1068,l),
(1051,0,l),
(1114,0,l),
(1114,1103,l),
(703,1303,l),
(579,1241,l),
(581,1259,o),
(581,1280,qs),
(581,1489,o),
(412,1489,qs),
(349,1489,o),
(349,1446,q),
(518,1446,o),
(518,1280,qs),
(518,1186,o),
(477,1186,qs),
(461,1186,o),
(423,1211,qs),
(283,1303,l),
(146,1045,l),
(146,985,l),
(329,882,l),
(329,442,l),
(280,442,ls),
(133,442,o),
(133,300,qs),
(133,212,o),
(231,106,qs),
(329,0,l),
(392,0,l),
(392,909,l),
(201,1018,l),
(299,1216,l),
(392,1156,ls),
(429,1132,o),
(477,1132,qs),
(528,1132,o),
(554,1168,q),
(699,1243,l)
);
}
);
width = 721;
}
);
note = uni179C_17B6;
},
{
glyphname = uni179C_17C5;
layers = (
{
layerId = m01;
shapes = (
{
closed = 1;
nodes = (
(272,143,ls),
(186,236,o),
(186,299,qs),
(186,389,o),
(280,389,qs),
(329,389,l),
(329,81,l)
);
},
{
closed = 1;
nodes = (
(1051,1068,l),
(1051,0,l),
(1114,0,l),
(1114,1029,l),
(1144,1102,o),
(1144,1164,qs),
(1144,1536,ls),
(1144,1722,o),
(1007,1722,qs),
(939,1722,o),
(939,1679,q),
(1082,1679,o),
(1082,1536,qs),
(1082,1119,l),
(703,1303,l),
(579,1241,l),
(581,1259,o),
(581,1280,qs),
(581,1489,o),
(412,1489,qs),
(349,1489,o),
(349,1446,q),
(518,1446,o),
(518,1280,qs),
(518,1186,o),
(477,1186,qs),
(461,1186,o),
(423,1211,qs),
(283,1303,l),
(146,1045,l),
(146,985,l),
(329,882,l),
(329,442,l),
(280,442,ls),
(133,442,o),
(133,300,qs),
(133,212,o),
(231,106,qs),
(329,0,l),
(392,0,l),
(392,909,l),
(201,1018,l),
(299,1216,l),
(392,1156,ls),
(429,1132,o),
(477,1132,qs),
(528,1132,o),
(554,1168,q),
(699,1243,l)
);
}
);
width = 721;
}
);
note = uni179C_17C5;
},
{
glyphname = uni179F_17B6;
layers = (
{
layerId = m01;
shapes = (
{
closed = 1;
nodes = (
(535,389,o),
(535,299,qs),
(535,236,o),
(449,143,qs),
(392,81,l),
(392,389,l),
(441,389,ls)
);
},
{
closed = 1;
nodes = (
(1645,1017,l),
(1983,1239,l),
(2494,1063,l),
(2494,0,l),
(2557,0,l),
(2557,1103,l),
(1986,1303,l),
(1589,1045,l),
(1589,985,l),
(1772,882,l),
(1772,233,ls),
(1772,53,o),
(1489,53,qs),
(1396,53,ls),
(1113,53,o),
(1113,233,qs),
(1113,698,ls),
(1113,931,o),
(791,931,qs),
(674,931,l),
(457,1075,l),
(603,1228,l),
(804,1102,ls),
(834,1084,o),
(866,1084,qs),
(897,1084,o),
(930,1145,q),
(860,1145,o),
(819,1170,qs),
(597,1303,l),
(386,1081,l),
(386,1054,l),
(587,928,l),
(329,907,o),
(329,698,qs),
(329,0,l),
(392,0,l),
(490,106,ls),
(588,212,o),
(588,300,qs),
(588,442,o),
(441,442,qs),
(392,442,l),
(392,698,ls),
(392,878,o),
(651,878,qs),
(791,878,ls),
(1051,878,o),
(1051,698,qs),
(1051,233,ls),
(1051,0,o),
(1396,0,qs),
(1489,0,ls),
(1835,0,o),
(1835,233,qs),
(1835,909,l)
);
}
);
width = 2164;
}
);
note = uni179F_17B6;
},
{
glyphname = uni179F_17C5;
layers = (
{
layerId = m01;
shapes = (
{
closed = 1;
nodes = (
(535,389,o),
(535,299,qs),
(535,236,o),
(449,143,qs),
(392,81,l),
(392,389,l),
(441,389,ls)
);
},
{
closed = 1;
nodes = (
(2586,1164,qs),
(2586,1536,ls),
(2586,1722,o),
(2449,1722,qs),
(2381,1722,o),
(2381,1679,q),
(2524,1679,o),
(2524,1536,qs),
(2524,1115,l),
(1986,1303,l),
(1589,1045,l),
(1589,985,l),
(1772,882,l),
(1772,233,ls),
(1772,53,o),
(1489,53,qs),
(1396,53,ls),
(1113,53,o),
(1113,233,qs),
(1113,698,ls),
(1113,931,o),
(791,931,qs),
(674,931,l),
(457,1075,l),
(603,1228,l),
(804,1102,ls),
(834,1084,o),
(866,1084,qs),
(897,1084,o),
(930,1145,q),
(860,1145,o),
(819,1170,qs),
(597,1303,l),
(386,1081,l),
(386,1054,l),
(587,928,l),
(329,907,o),
(329,698,qs),
(329,0,l),
(392,0,l),
(490,106,ls),
(588,212,o),
(588,300,qs),
(588,442,o),
(441,442,qs),
(392,442,l),
(392,698,ls),
(392,878,o),
(651,878,qs),
(791,878,ls),
(1051,878,o),
(1051,698,qs),
(1051,233,ls),
(1051,0,o),
(1396,0,qs),
(1489,0,ls),
(1835,0,o),
(1835,233,qs),
(1835,909,l),
(1645,1017,l),
(1983,1239,l),
(2494,1063,l),
(2494,0,l),
(2557,0,l),
(2557,1032,l),
(2586,1103,o)
);
}
);
width = 2164;
}
);
note = uni179F_17C5;
},
{
glyphname = uni17A0_17B6;
layers = (
{
layerId = m01;
shapes = (
{
closed = 1;
nodes = (
(2494,1068,l),
(2494,0,l),
(2557,0,l),
(2557,1103,l),
(2145,1303,l),
(1794,1126,l),
(1798,1116,l),
(1264,1303,l),
(867,1045,l),
(867,985,l),
(1050,882,l),
(1050,233,ls),
(1050,53,o),
(768,53,qs),
(675,53,ls),
(392,53,o),
(392,233,qs),
(392,909,l),
(221,1019,l),
(370,1216,l),
(428,1179,ls),
(485,1141,o),
(525,1141,qs),
(570,1141,o),
(595,1187,q),
(529,1187,o),
(485,1216,qs),
(353,1303,l),
(166,1045,l),
(166,985,l),
(329,882,l),
(329,233,ls),
(329,0,o),
(675,0,qs),
(768,0,ls),
(1113,0,o),
(1113,233,qs),
(1113,909,l),
(923,1017,l),
(1261,1239,l),
(1772,1063,l),
(1772,0,l),
(1835,0,l),
(1835,1085,l),
(2141,1243,l)
);
}
);
width = 2164;
}
);
note = uni17A0_17B6;
},
{
glyphname = uni17A0_17C5;
layers = (
{
layerId = m01;
shapes = (
{
closed = 1;
nodes = (
(2494,1068,l),
(2494,0,l),
(2557,0,l),
(2557,1032,l),
(2586,1103,o),
(2586,1164,qs),
(2586,1536,ls),
(2586,1722,o),
(2449,1722,qs),
(2381,1722,o),
(2381,1679,q),
(2524,1679,o),
(2524,1536,qs),
(2524,1119,l),
(2145,1303,l),
(1794,1126,l),
(1798,1116,l),
(1264,1303,l),
(867,1045,l),
(867,985,l),
(1050,882,l),
(1050,233,ls),
(1050,53,o),
(768,53,qs),
(675,53,ls),
(392,53,o),
(392,233,qs),
(392,909,l),
(221,1019,l),
(370,1216,l),
(428,1179,ls),
(485,1141,o),
(525,1141,qs),
(570,1141,o),
(595,1187,q),
(529,1187,o),
(485,1216,qs),
(353,1303,l),
(166,1045,l),
(166,985,l),
(329,882,l),
(329,233,ls),
(329,0,o),
(675,0,qs),
(768,0,ls),
(1113,0,o),
(1113,233,qs),
(1113,909,l),
(923,1017,l),
(1261,1239,l),
(1772,1063,l),
(1772,0,l),
(1835,0,l),
(1835,1085,l),
(2141,1243,l)
);
}
);
width = 2164;
}
);
note = uni17A0_17C5;
},
{
glyphname = uni17A1_17B6;
layers = (
{
layerId = m01;
shapes = (
{
closed = 1;
nodes = (
(954,-292,o),
(954,-255,qs),
(954,-199,o),
(1049,-154,q),
(1049,-292,l),
(1013,-292,ls)
);
},
{
closed = 1;
nodes = (
(1060,625,qs),
(1060,567,o),
(998,567,qs),
(932,567,l),
(932,682,o),
(988,682,qs),
(1060,682,o)
);
},
{
closed = 1;
nodes = (
(976,938,qs),
(891,938,o),
(891,1024,q),
(838,1024,o),
(838,974,qs),
(838,884,o),
(976,884,qs),
(1113,884,o),
(1113,1031,qs),
(1113,1303,o),
(721,1303,qs),
(329,1303,o),
(329,1031,qs),
(329,815,ls),
(329,514,o),
(722,514,qs),
(869,514,l),
(869,280,ls),
(869,53,o),
(697,53,qs),
(525,53,o),
(525,193,qs),
(525,280,ls),
(525,420,o),
(429,420,qs),
(373,420,o),
(373,367,q),
(462,367,o),
(462,280,qs),
(462,193,ls),
(462,0,o),
(697,0,qs),
(932,0,o),
(932,281,qs),
(932,514,l),
(998,514,ls),
(1113,514,o),
(1113,626,qs),
(1113,736,o),
(988,736,qs),
(869,736,o),
(869,567,q),
(722,567,ls),
(392,567,o),
(392,815,qs),
(392,1031,ls),
(392,1250,o),
(721,1250,qs),
(1051,1250,o),
(1051,1031,qs),
(1051,938,o)
);
},
{
closed = 1;
nodes = (
(1644,1017,l),
(1982,1239,l),
(2493,1063,l),
(2493,0,l),
(2556,0,l),
(2556,1103,l),
(1985,1303,l),
(1588,1045,l),
(1588,985,l),
(1771,882,l),
(1771,-607,l),
(1442,-375,l),
(1112,-607,l),
(1112,-93,l),
(1049,-93,l),
(1012,-113,ls),
(900,-172,o),
(900,-257,qs),
(900,-350,o),
(1013,-350,qs),
(1049,-350,l),
(1049,-673,l),
(1112,-673,l),
(1442,-441,l),
(1771,-673,l),
(1834,-673,l),
(1834,909,l)
);
}
);
width = 2164;
}
);
note = uni17A1_17B6;
},
{
glyphname = uni17A1_17C5;
layers = (
{
layerId = m01;
shapes = (
{
closed = 1;
nodes = (
(954,-292,o),
(954,-255,qs),
(954,-199,o),
(1049,-154,q),
(1049,-292,l),
(1013,-292,ls)
);
},
{
closed = 1;
nodes = (
(1060,625,qs),
(1060,567,o),
(998,567,qs),
(932,567,l),
(932,682,o),
(988,682,qs),
(1060,682,o)
);
},
{
closed = 1;
nodes = (
(976,938,qs),
(891,938,o),
(891,1024,q),
(838,1024,o),
(838,974,qs),
(838,884,o),
(976,884,qs),
(1113,884,o),
(1113,1031,qs),
(1113,1303,o),
(721,1303,qs),
(329,1303,o),
(329,1031,qs),
(329,815,ls),
(329,514,o),
(722,514,qs),
(869,514,l),
(869,280,ls),
(869,53,o),
(697,53,qs),
(525,53,o),
(525,193,qs),
(525,280,ls),
(525,420,o),
(429,420,qs),
(373,420,o),
(373,367,q),
(462,367,o),
(462,280,qs),
(462,193,ls),
(462,0,o),
(697,0,qs),
(932,0,o),
(932,281,qs),
(932,514,l),
(998,514,ls),
(1113,514,o),
(1113,626,qs),
(1113,736,o),
(988,736,qs),
(869,736,o),
(869,567,q),
(722,567,ls),
(392,567,o),
(392,815,qs),
(392,1031,ls),
(392,1250,o),
(721,1250,qs),
(1051,1250,o),
(1051,1031,qs),
(1051,938,o)
);
},
{
closed = 1;
nodes = (
(2586,1164,qs),
(2586,1536,ls),
(2586,1722,o),
(2449,1722,qs),
(2381,1722,o),
(2381,1679,q),
(2524,1679,o),
(2524,1536,qs),
(2524,1114,l),
(1985,1303,l),
(1588,1045,l),
(1588,985,l),
(1771,882,l),
(1771,-607,l),
(1442,-375,l),
(1112,-607,l),
(1112,-93,l),
(1049,-93,l),
(1012,-113,ls),
(900,-172,o),
(900,-257,qs),
(900,-350,o),
(1013,-350,qs),
(1049,-350,l),
(1049,-673,l),
(1112,-673,l),
(1442,-441,l),
(1771,-673,l),
(1834,-673,l),
(1834,909,l),
(1644,1017,l),
(1982,1239,l),
(2493,1063,l),
(2493,0,l),
(2556,0,l),
(2556,1029,l),
(2586,1102,o)
);
}
);
width = 2164;
}
);
note = uni17A1_17C5;
},
{
glyphname = uni17A2_17B6;
layers = (
{
layerId = m01;
shapes = (
{
closed = 1;
nodes = (
(272,143,ls),
(186,236,o),
(186,299,qs),
(186,389,o),
(280,389,qs),
(329,389,l),
(329,81,l)
);
},
{
closed = 1;
nodes = (
(993,143,ls),
(907,236,o),
(907,299,qs),
(907,389,o),
(1001,389,qs),
(1050,389,l),
(1050,81,l)
);
},
{
closed = 1;
nodes = (
(923,1017,l),
(1261,1239,l),
(1772,1063,l),
(1772,0,l),
(1835,0,l),
(1835,1103,l),
(1264,1303,l),
(867,1045,l),
(867,985,l),
(1050,882,l),
(1050,632,l),
(392,632,l),
(392,909,l),
(221,1019,l),
(370,1216,l),
(428,1179,ls),
(485,1141,o),
(525,1141,qs),
(570,1141,o),
(595,1187,q),
(529,1187,o),
(485,1216,qs),
(353,1303,l),
(166,1045,l),
(166,985,l),
(329,882,l),
(329,442,l),
(280,442,ls),
(133,442,o),
(133,300,qs),
(133,212,o),
(231,106,qs),
(329,0,l),
(392,0,l),
(392,579,l),
(1050,579,l),
(1050,442,l),
(1001,442,ls),
(854,442,o),
(854,300,qs),
(854,212,o),
(952,106,qs),
(1050,0,l),
(1113,0,l),
(1113,909,l)
);
}
);
width = 1442;
}
);
note = uni17A2_17B6;
},
{
glyphname = uni17A2_17C5;
layers = (
{
layerId = m01;
shapes = (
{
closed = 1;
nodes = (
(272,143,ls),
(186,236,o),
(186,299,qs),
(186,389,o),
(280,389,qs),
(329,389,l),
(329,81,l)
);
},
{
closed = 1;
nodes = (
(993,143,ls),
(907,236,o),
(907,299,qs),
(907,389,o),
(1001,389,qs),
(1050,389,l),
(1050,81,l)
);
},
{
closed = 1;
nodes = (
(1865,1164,qs),
(1865,1536,ls),
(1865,1722,o),
(1728,1722,qs),
(1660,1722,o),
(1660,1679,q),
(1803,1679,o),
(1803,1536,qs),
(1803,1114,l),
(1264,1303,l),
(867,1045,l),
(867,985,l),
(1050,882,l),
(1050,632,l),
(392,632,l),
(392,909,l),
(221,1019,l),
(370,1216,l),
(428,1179,ls),
(485,1141,o),
(525,1141,qs),
(570,1141,o),
(595,1187,q),
(529,1187,o),
(485,1216,qs),
(353,1303,l),
(166,1045,l),
(166,985,l),
(329,882,l),
(329,442,l),
(280,442,ls),
(133,442,o),
(133,300,qs),
(133,212,o),
(231,106,qs),
(329,0,l),
(392,0,l),
(392,579,l),
(1050,579,l),
(1050,442,l),
(1001,442,ls),
(854,442,o),
(854,300,qs),
(854,212,o),
(952,106,qs),
(1050,0,l),
(1113,0,l),
(1113,909,l),
(923,1017,l),
(1261,1239,l),
(1772,1063,l),
(1772,0,l),
(1835,0,l),
(1835,1029,l),
(1865,1102,o)
);
}
);
width = 1442;
}
);
note = uni17A2_17C5;
},
{
glyphname = uni17E0;
layers = (
{
layerId = m01;
shapes = (
{
closed = 1;
nodes = (
(1113,326,qs),
(1113,977,ls),
(1113,1303,o),
(721,1303,qs),
(329,1303,o),
(329,977,qs),
(329,326,ls),
(329,0,o),
(721,0,qs),
(1113,0,o)
);
},
{
closed = 1;
nodes = (
(1050,977,qs),
(1050,326,ls),
(1050,54,o),
(721,54,qs),
(392,54,o),
(392,326,qs),
(392,977,ls),
(392,1250,o),
(721,1250,qs),
(1050,1250,o)
);
}
);
width = 1442;
}
);
note = uni17E0;
unicode = 6112;
},
{
glyphname = uni17E1;
layers = (
{
layerId = m01;
shapes = (
{
closed = 1;
nodes = (
(1113,435,qs),
(1113,977,ls),
(1113,1303,o),
(721,1303,qs),
(329,1303,o),
(329,977,qs),
(329,869,ls),
(329,652,o),
(580,652,qs),
(785,652,o),
(785,815,qs),
(785,854,o),
(745,854,qs),
(706,854,o),
(706,815,qs),
(706,706,o),
(580,706,qs),
(392,706,o),
(392,869,qs),
(392,977,ls),
(392,1250,o),
(721,1250,qs),
(1051,1250,o),
(1051,977,qs),
(1051,435,ls),
(1051,54,o),
(721,54,qs),
(360,54,o),
(360,380,q),
(329,380,o),
(329,312,qs),
(329,0,o),
(721,0,qs),
(1113,0,o)
);
}
);
width = 1442;
}
);
note = uni17E1;
unicode = 6113;
},
{
glyphname = uni17E2;
layers = (
{
layerId = m01;
shapes = (
{
closed = 1;
nodes = (
(655,815,ls),
(655,698,o),
(768,698,qs),
(838,698,o),
(838,749,q),
(835,749,ls),
(718,749,o),
(718,815,qs),
(718,1189,l),
(939,1032,l),
(1145,1176,l),
(1145,217,ls),
(1145,54,o),
(768,54,qs),
(392,54,o),
(392,217,qs),
(392,1421,ls),
(392,1583,o),
(284,1583,qs),
(186,1583,o),
(186,1529,q),
(329,1529,o),
(329,1421,qs),
(329,217,ls),
(329,0,o),
(768,0,qs),
(1207,0,o),
(1207,217,qs),
(1207,1303,l),
(939,1112,l),
(655,1303,l)
);
}
);
width = 1536;
}
);
note = uni17E2;
unicode = 6114;
},
{
glyphname = uni17E3;
layers = (
{
layerId = m01;
shapes = (
{
closed = 1;
nodes = (
(535,389,o),
(535,299,qs),
(535,236,o),
(449,143,qs),
(392,81,l),
(392,389,l),
(441,389,ls)
);
},
{
closed = 1;
nodes = (
(392,0,l),
(490,106,ls),
(588,212,o),
(588,300,qs),
(588,442,o),
(441,442,qs),
(392,442,l),
(392,1055,l),
(623,1236,l),
(888,1030,l),
(888,0,l),
(950,0,l),
(950,1059,l),
(1169,1239,l),
(1423,1027,l),
(1423,0,l),
(1486,0,l),
(1486,1061,l),
(1190,1303,l),
(918,1084,l),
(636,1303,l),
(329,1056,l),
(329,0,l)
);
}
);
width = 1815;
}
);
note = uni17E3;
unicode = 6115;
},
{
glyphname = uni17E4;
layers = (
{
layerId = m01;
shapes = (
{
closed = 1;
nodes = (
(1060,652,qs),
(1060,543,o),
(950,543,q),
(950,832,l),
(1060,832,o)
);
},
{
closed = 1;
nodes = (
(1113,1086,o),
(1113,1303,qs),
(1113,1396,ls),
(1113,1529,o),
(1206,1529,q),
(1206,1583,o),
(1143,1583,qs),
(1050,1583,o),
(1050,1396,qs),
(1050,1303,ls),
(1050,1142,o),
(987,1142,q),
(610,1303,l),
(329,1086,l),
(329,217,ls),
(329,0,o),
(610,0,qs),
(1113,0,l),
(1113,86,l),
(950,369,l),
(950,489,l),
(1113,489,o),
(1113,652,qs),
(1113,884,o),
(950,884,qs),
(888,884,o),
(888,840,qs),
(888,380,l),
(1078,53,l),
(610,53,ls),
(392,53,o),
(392,217,qs),
(392,1069,l),
(617,1246,l),
(999,1086,l)
);
}
);
width = 1442;
}
);
note = uni17E4;
unicode = 6116;
},
{
glyphname = uni17E5;
layers = (
{
layerId = m01;
shapes = (
{
closed = 1;
nodes = (
(649,1199,o),
(622,1182,q),
(523,1213,o),
(469,1274,o),
(469,1315,qs),
(469,1437,o),
(582,1437,qs),
(696,1437,o),
(696,1315,qs),
(696,1251,o)
);
},
{
closed = 1;
nodes = (
(1060,522,qs),
(1060,413,o),
(950,413,q),
(950,702,l),
(1060,702,o)
);
},
{
closed = 1;
nodes = (
(329,0,o),
(610,0,qs),
(1113,0,l),
(1113,86,l),
(950,259,l),
(950,359,l),
(1113,359,o),
(1113,522,qs),
(1113,754,o),
(950,754,qs),
(888,754,o),
(888,710,qs),
(888,250,l),
(1078,53,l),
(610,53,ls),
(392,53,o),
(392,217,qs),
(392,949,l),
(626,1118,l),
(1000,987,l),
(1113,987,o),
(1113,1203,qs),
(1113,1426,ls),
(1113,1529,o),
(1236,1529,q),
(1236,1583,o),
(1163,1583,qs),
(1050,1583,o),
(1050,1426,qs),
(1051,1203,ls),
(1051,1044,o),
(998,1044,q),
(685,1157,l),
(721,1186,o),
(748,1257,o),
(748,1316,qs),
(748,1489,o),
(582,1489,qs),
(416,1489,o),
(416,1313,qs),
(416,1260,o),
(499,1176,o),
(570,1145,q),
(329,974,l),
(329,217,ls)
);
}
);
width = 1442;
}
);
note = uni17E5;
unicode = 6117;
},
{
glyphname = uni17E6;
layers = (
{
layerId = m01;
shapes = (
{
closed = 1;
nodes = (
(392,1443,ls),
(392,1583,o),
(314,1583,qs),
(236,1583,o),
(236,1529,q),
(329,1529,o),
(329,1443,qs),
(329,869,l),
(392,869,l),
(392,1098,l),
(703,1246,l),
(1051,1018,l),
(1051,326,ls),
(1051,54,o),
(721,54,qs),
(392,54,o),
(392,326,qs),
(392,435,ls),
(392,579,o),
(556,579,qs),
(674,579,o),
(674,489,qs),
(674,445,o),
(711,445,qs),
(747,445,o),
(747,489,qs),
(747,632,o),
(556,632,qs),
(329,632,o),
(329,435,qs),
(329,326,ls),
(329,0,o),
(721,0,qs),
(1113,0,o),
(1113,326,qs),
(1113,1054,l),
(721,1303,l),
(392,1148,l)
);
}
);
width = 1442;
}
);
note = uni17E6;
unicode = 6118;
},
{
glyphname = uni17E7;
layers = (
{
layerId = m01;
shapes = (
{
closed = 1;
nodes = (
(535,389,o),
(535,299,qs),
(535,236,o),
(449,143,qs),
(392,81,l),
(392,389,l),
(441,389,ls)
);
},
{
closed = 1;
nodes = (
(392,0,l),
(490,106,ls),
(588,212,o),
(588,300,qs),
(588,442,o),
(441,442,qs),
(392,442,l),
(392,1046,l),
(553,1233,l),
(722,1067,l),
(891,1233,l),
(1050,1045,l),
(1050,0,l),
(1256,0,ls),
(1439,0,o),
(1439,186,qs),
(1439,1443,ls),
(1439,1583,o),
(1336,1583,qs),
(1233,1583,o),
(1233,1529,q),
(1376,1529,o),
(1376,1443,qs),
(1376,186,ls),
(1376,54,o),
(1256,54,qs),
(1113,54,l),
(1113,1052,l),
(888,1303,l),
(722,1140,l),
(555,1303,l),
(329,1056,l),
(329,0,l)
);
}
);
width = 1768;
}
);
note = uni17E7;
unicode = 6119;
},
{
glyphname = uni17E8;
layers = (
{
layerId = m01;
shapes = (
{
closed = 1;
nodes = (
(941,698,qs),
(941,809,o),
(1051,809,q),
(1051,588,l),
(941,588,o)
);
},
{
closed = 1;
nodes = (
(888,698,qs),
(888,535,o),
(1051,535,q),
(1051,64,l),
(721,313,l),
(392,64,l),
(392,1059,l),
(630,1250,l),
(997,1096,l),
(1113,1096,o),
(1113,1303,qs),
(1113,1396,ls),
(1113,1529,o),
(1206,1529,q),
(1206,1583,o),
(1148,1583,qs),
(1050,1583,o),
(1050,1396,qs),
(1051,1303,ls),
(1051,1154,o),
(977,1154,q),
(635,1303,l),
(612,1303,l),
(329,1086,l),
(329,0,l),
(392,0,l),
(721,260,l),
(1051,0,l),
(1113,0,l),
(1113,801,ls),
(1113,861,o),
(1051,861,qs),
(888,861,o)
);
}
);
width = 1442;
}
);
note = uni17E8;
unicode = 6120;
},
{
glyphname = uni17E9;
layers = (
{
layerId = m01;
shapes = (
{
closed = 1;
nodes = (
(931,416,qs),
(931,506,o),
(1051,506,q),
(1051,306,l),
(931,306,o)
);
},
{
closed = 1;
nodes = (
(1051,559,qs),
(868,559,o),
(868,416,qs),
(868,253,o),
(1051,253,q),
(1021,54,o),
(776,54,qs),
(392,54,o),
(392,435,qs),
(392,812,o),
(832,812,qs),
(972,812,o),
(1058,748,q),
(1065,730,o),
(1086,730,qs),
(1113,730,o),
(1113,761,qs),
(1113,783,o),
(1071,804,q),
(972,864,o),
(832,864,qs),
(505,864,o),
(505,1068,qs),
(505,1250,o),
(776,1250,qs),
(1051,1250,o),
(1051,1031,qs),
(1051,977,o),
(1082,977,qs),
(1113,977,o),
(1113,1031,qs),
(1113,1396,ls),
(1113,1583,o),
(994,1583,qs),
(931,1583,o),
(931,1529,q),
(1050,1529,o),
(1050,1396,qs),
(1051,1182,l),
(962,1303,o),
(776,1303,qs),
(442,1303,o),
(442,1068,qs),
(442,885,o),
(635,845,q),
(447,793,o),
(329,577,o),
(329,435,qs),
(329,0,o),
(776,0,qs),
(1113,0,o),
(1113,306,qs),
(1113,515,ls),
(1113,559,o)
);
}
);
width = 1442;
}
);
note = uni17E9;
unicode = 6121;
},
{
glyphname = zero;
layers = (
{
layerId = m01;
shapes = (
{
closed = 1;
nodes = (
(1008,289,o),
(1008,574,qs),
(1008,882,ls),
(1008,1166,o),
(775,1477,o),
(564,1477,qs),
(353,1477,o),
(121,1166,o),
(121,882,qs),
(121,574,ls),
(121,290,o),
(355,-21,o),
(566,-21,qs),
(777,-21,o)
);
},
{
closed = 1;
nodes = (
(175,324,o),
(175,576,qs),
(175,882,ls),
(175,1136,o),
(374,1423,o),
(564,1423,qs),
(754,1423,o),
(954,1136,o),
(954,882,qs),
(954,576,ls),
(954,323,o),
(755,33,o),
(566,33,qs),
(376,33,o)
);
}
);
width = 1150;
}
);
note = zero;
unicode = 48;
},
{
glyphname = one;
layers = (
{
layerId = m01;
shapes = (
{
closed = 1;
nodes = (
(748,54,l),
(455,54,l),
(455,1464,l),
(63,1380,l),
(63,1330,l),
(401,1406,l),
(401,54,l),
(108,54,l),
(108,0,l),
(748,0,l)
);
}
);
width = 821;
}
);
note = one;
unicode = 49;
},
{
glyphname = two;
layers = (
{
layerId = m01;
shapes = (
{
closed = 1;
nodes = (
(977,293,l),
(923,293,l),
(923,54,l),
(184,54,l),
(182,59,l),
(599,546,ls),
(694,657,o),
(828,842,o),
(899,1005,o),
(899,1086,qs),
(899,1210,o),
(800,1385,o),
(620,1477,o),
(499,1477,qs),
(369,1477,o),
(176,1363,o),
(73,1170,o),
(76,1052,q),
(78,1046,l),
(124,1046,l),
(124,1213,o),
(320,1423,o),
(499,1423,qs),
(668,1423,o),
(844,1245,o),
(844,1086,qs),
(844,1021,o),
(789,878,o),
(674,709,o),
(583,604,qs),
(106,54,l),
(106,0,l),
(977,0,l)
);
}
);
width = 1104;
}
);
note = two;
unicode = 50;
},
{
glyphname = three;
layers = (
{
layerId = m01;
shapes = (
{
closed = 1;
nodes = (
(863,77,o),
(973,259,o),
(973,386,qs),
(973,526,o),
(815,710,o),
(673,745,q),
(796,785,o),
(941,967,o),
(941,1082,qs),
(941,1264,o),
(718,1477,o),
(530,1477,qs),
(409,1477,o),
(214,1377,o),
(103,1199,o),
(106,1081,q),
(108,1075,l),
(154,1075,l),
(154,1180,o),
(252,1337,o),
(422,1423,o),
(530,1423,qs),
(706,1423,o),
(887,1233,o),
(887,1086,qs),
(887,997,o),
(792,855,o),
(616,771,o),
(494,771,qs),
(383,771,l),
(383,715,l),
(494,715,ls),
(690,715,o),
(919,552,o),
(919,382,qs),
(919,218,o),
(719,33,o),
(539,33,qs),
(420,33,o),
(232,129,o),
(123,297,o),
(123,405,q),
(77,405,l),
(75,399,l),
(72,265,o),
(201,77,o),
(416,-21,o),
(539,-21,qs),
(667,-21,o)
);
}
);
width = 1098;
}
);
note = three;
unicode = 51;
},
{
glyphname = four;
layers = (
{
layerId = m01;
shapes = (
{
closed = 1;
nodes = (
(986,54,l),
(823,54,l),
(823,397,l),
(1075,397,l),
(1075,451,l),
(823,451,l),
(823,1456,l),
(758,1456,l),
(63,427,l),
(63,397,l),
(769,397,l),
(769,54,l),
(606,54,l),
(606,0,l),
(986,0,l)
);
},
{
closed = 1;
nodes = (
(763,1382,l),
(769,1380,l),
(769,451,l),
(147,451,l),
(685,1253,l)
);
}
);
width = 1170;
}
);
note = four;
unicode = 52;
},
{
glyphname = five;
layers = (
{
layerId = m01;
shapes = (
{
closed = 1;
nodes = (
(840,98,o),
(933,315,o),
(933,464,qs),
(933,603,o),
(830,809,o),
(649,919,o),
(533,916,qs),
(436,913,o),
(309,883,o),
(218,827,o),
(176,785,q),
(237,1403,l),
(834,1403,l),
(834,1265,l),
(888,1265,l),
(888,1456,l),
(188,1456,l),
(110,662,l),
(151,646,l),
(191,751,o),
(374,858,o),
(534,858,qs),
(697,858,o),
(878,646,o),
(878,462,qs),
(878,247,o),
(697,33,o),
(503,33,qs),
(338,33,o),
(146,211,o),
(146,383,q),
(99,383,l),
(97,377,l),
(94,246,o),
(199,69,o),
(385,-21,o),
(503,-21,qs),
(650,-21,o)
);
}
);
width = 1061;
}
);
note = five;
unicode = 53;
},
{
glyphname = six;
layers = (
{
layerId = m01;
shapes = (
{
closed = 1;
nodes = (
(875,105,o),
(986,322,o),
(986,460,qs),
(986,610,o),
(885,834,o),
(696,957,o),
(565,957,qs),
(429,957,o),
(222,815,o),
(175,706,q),
(175,881,ls),
(175,1154,o),
(399,1423,o),
(574,1423,qs),
(659,1423,o),
(772,1394,o),
(838,1356,q),
(859,1407,l),
(795,1444,o),
(650,1477,o),
(574,1477,qs),
(443,1477,o),
(238,1341,o),
(121,1075,o),
(121,880,qs),
(121,552,ls),
(121,370,o),
(231,114,o),
(426,-21,o),
(555,-21,qs),
(680,-21,o)
);
},
{
closed = 1;
nodes = (
(175,304,o),
(175,551,qs),
(175,554,ls),
(175,649,o),
(281,807,o),
(456,903,o),
(558,903,qs),
(740,903,o),
(932,662,o),
(932,460,qs),
(932,343,o),
(836,148,o),
(666,32,o),
(555,32,qs),
(383,32,o)
);
}
);
width = 1107;
}
);
note = six;
unicode = 54;
},
{
glyphname = seven;
layers = (
{
layerId = m01;
shapes = (
{
closed = 1;
nodes = (
(445,91,l),
(468,301,o),
(567,670,o),
(713,993,o),
(898,1277,o),
(1006,1402,q),
(1006,1456,l),
(76,1456,l),
(76,1163,l),
(130,1163,l),
(130,1402,l),
(941,1402,l),
(791,1224,o),
(564,817,o),
(420,354,o),
(391,91,q),
(385,0,l),
(439,0,l)
);
}
);
width = 1104;
}
);
note = seven;
unicode = 55;
},
{
glyphname = eight;
layers = (
{
layerId = m01;
shapes = (
{
closed = 1;
nodes = (
(901,72,o),
(1020,251,o),
(1020,379,qs),
(1020,511,o),
(847,707,o),
(708,745,q),
(829,782,o),
(978,964,o),
(978,1086,qs),
(978,1208,o),
(868,1383,o),
(677,1477,o),
(555,1477,qs),
(432,1477,o),
(241,1384,o),
(133,1209,o),
(133,1086,qs),
(133,963,o),
(279,782,o),
(401,745,q),
(261,708,o),
(92,512,o),
(92,379,qs),
(92,251,o),
(210,72,o),
(420,-21,o),
(557,-21,qs),
(692,-21,o)
);
},
{
closed = 1;
nodes = (
(146,213,o),
(146,374,qs),
(146,477,o),
(252,632,o),
(437,718,o),
(555,718,qs),
(671,718,o),
(857,632,o),
(965,477,o),
(965,374,qs),
(965,267,o),
(859,115,o),
(674,33,o),
(557,33,qs),
(376,33,o)
);
},
{
closed = 1;
nodes = (
(187,945,o),
(187,1091,qs),
(187,1242,o),
(394,1423,o),
(555,1423,qs),
(658,1423,o),
(826,1336,o),
(924,1186,o),
(924,1091,qs),
(924,994,o),
(828,851,o),
(662,772,o),
(557,772,qs),
(395,772,o)
);
}
);
width = 1123;
}
);
note = eight;
unicode = 56;
},
{
glyphname = nine;
layers = (
{
layerId = m01;
shapes = (
{
closed = 1;
nodes = (
(850,113,o),
(962,381,o),
(962,580,qs),
(962,923,ls),
(962,1111,o),
(852,1357,o),
(653,1477,o),
(520,1477,qs),
(393,1477,o),
(196,1337,o),
(84,1101,o),
(84,958,qs),
(84,823,o),
(194,600,o),
(387,468,o),
(512,468,qs),
(639,468,o),
(844,592,o),
(900,701,q),
(900,578,ls),
(900,309,o),
(689,33,o),
(501,33,qs),
(415,33,o),
(279,65,o),
(204,99,q),
(188,42,l),
(267,11,o),
(423,-21,o),
(501,-21,qs),
(643,-21,o)
);
},
{
closed = 1;
nodes = (
(237,641,o),
(146,839,o),
(146,958,qs),
(146,1081,o),
(242,1293,o),
(412,1423,o),
(524,1423,qs),
(695,1423,o),
(900,1178,o),
(900,922,qs),
(900,811,l),
(860,692,o),
(660,521,o),
(512,521,qs),
(401,521,o)
);
}
);
width = 1125;
}
);
note = nine;
unicode = 57;
},
{
glyphname = .notdef;
layers = (
{
layerId = m01;
shapes = (
{
closed = 1;
nodes = (
(102,0,l),
(922,0,l),
(922,1462,l),
(102,1462,l)
);
},
{
closed = 1;
nodes = (
(201,98,l),
(201,1364,l),
(823,1364,l),
(823,98,l)
);
}
);
userData = {
assembly = "NPUSHB[ ]	/* 39 values pushed */
4 1 1 0 2 3 1 2 103 0 3 0 0 3 87 0 3 3 0 95 0 0 3 0 79 0 0 7 6 5 4 0 3 0 3 17 5 6 23 
CALL[ ]	/* CallFunction */";
};
width = 1024;
}
);
note = ".notdef";
},
{
glyphname = uni17D4;
layers = (
{
layerId = m01;
shapes = (
{
closed = 1;
nodes = (
(512,977,qs),
(619,977,o),
(767,1031,o),
(1050,1237,q),
(1050,163,ls),
(1050,54,o),
(884,54,q),
(884,0,o),
(966,0,qs),
(1113,0,o),
(1113,163,qs),
(1113,1303,l),
(1051,1303,l),
(729,1076,o),
(607,1031,o),
(512,1031,qs),
(392,1031,o),
(392,1141,qs),
(392,1260,o),
(582,1260,q),
(582,1303,o),
(486,1303,qs),
(329,1303,o),
(329,1140,qs),
(329,977,o)
);
}
);
width = 1442;
}
);
note = uni17D4;
unicode = 6100;
},
{
glyphname = uni17D5;
layers = (
{
layerId = m01;
shapes = (
{
closed = 1;
nodes = (
(1210,0,q),
(1393,0,o),
(1393,140,qs),
(1393,1303,l),
(1333,1303,l),
(1333,140,ls),
(1333,30,o)
);
},
{
closed = 1;
nodes = (
(512,977,qs),
(619,977,o),
(767,1031,o),
(1050,1237,q),
(1050,163,ls),
(1050,54,o),
(884,54,q),
(884,0,o),
(966,0,qs),
(1113,0,o),
(1113,163,qs),
(1113,1303,l),
(1051,1303,l),
(729,1076,o),
(607,1031,o),
(512,1031,qs),
(392,1031,o),
(392,1141,qs),
(392,1260,o),
(582,1260,q),
(582,1303,o),
(486,1303,qs),
(329,1303,o),
(329,1140,qs),
(329,977,o)
);
}
);
width = 1722;
}
);
note = uni17D5;
unicode = 6101;
},
{
glyphname = uni17D6;
layers = (
{
layerId = m01;
shapes = (
{
closed = 1;
nodes = (
(186,625,l),
(791,625,l),
(791,678,l),
(186,678,l)
);
},
{
closed = 1;
nodes = (
(372,1212,qs),
(411,1251,o),
(488,1251,qs),
(566,1251,o),
(605,1212,qs),
(645,1171,o),
(645,1094,qs),
(645,1015,o),
(605,976,qs),
(566,938,o),
(488,938,qs),
(411,938,o),
(372,976,qs),
(332,1015,o),
(332,1094,qs),
(332,1171,o)
);
},
{
closed = 1;
nodes = (
(646,1251,qs),
(594,1303,o),
(488,1303,qs),
(383,1303,o),
(331,1251,qs),
(279,1199,o),
(279,1094,qs),
(279,989,o),
(331,936,qs),
(383,884,o),
(488,884,qs),
(594,884,o),
(646,936,qs),
(698,989,o),
(698,1094,qs),
(698,1199,o)
);
},
{
closed = 1;
nodes = (
(372,326,qs),
(411,366,o),
(488,366,qs),
(566,366,o),
(605,326,qs),
(645,287,o),
(645,209,qs),
(645,132,o),
(605,93,qs),
(566,53,o),
(488,53,qs),
(411,53,o),
(372,93,qs),
(332,132,o),
(332,209,qs),
(332,287,o)
);
},
{
closed = 1;
nodes = (
(646,367,qs),
(594,419,o),
(488,419,qs),
(383,419,o),
(331,367,qs),
(279,315,o),
(279,209,qs),
(279,104,o),
(331,52,qs),
(383,0,o),
(488,0,qs),
(594,0,o),
(646,52,qs),
(698,104,o),
(698,209,qs),
(698,315,o)
);
}
);
width = 977;
}
);
note = uni17D6;
unicode = 6102;
},
{
glyphname = uni17D7;
layers = (
{
layerId = m01;
shapes = (
{
closed = 1;
nodes = (
(610,963,qs),
(610,1024,o),
(555,1024,q),
(555,927,o),
(501,927,qs),
(392,927,o),
(392,1032,q),
(539,1223,l),
(778,991,l),
(1051,1213,l),
(1051,326,ls),
(1051,54,o),
(776,54,qs),
(451,54,o),
(451,271,q),
(410,271,o),
(410,193,qs),
(410,0,o),
(776,0,qs),
(1113,0,o),
(1113,326,qs),
(1113,1302,l),
(1075,1302,l),
(776,1058,l),
(532,1303,l),
(358,1099,o),
(329,1032,q),
(329,862,o),
(501,862,qs),
(610,862,o)
);
}
);
width = 1442;
}
);
note = uni17D7;
unicode = 6103;
},
{
glyphname = uni17D8;
layers = (
{
layerId = m01;
shapes = (
{
closed = 1;
nodes = (
(4120,977,qs),
(4227,977,o),
(4375,1031,o),
(4658,1237,q),
(4658,163,ls),
(4658,54,o),
(4492,54,q),
(4492,0,o),
(4574,0,qs),
(4721,0,o),
(4721,163,qs),
(4721,1303,l),
(4659,1303,l),
(4337,1076,o),
(4215,1031,o),
(4120,1031,qs),
(4000,1031,o),
(4000,1141,qs),
(4000,1260,o),
(4190,1260,q),
(4190,1303,o),
(4094,1303,qs),
(3937,1303,o),
(3937,1140,qs),
(3937,977,o)
);
},
{
closed = 1;
nodes = (
(512,977,qs),
(619,977,o),
(767,1031,o),
(1050,1237,q),
(1050,163,ls),
(1050,54,o),
(884,54,q),
(884,0,o),
(966,0,qs),
(1113,0,o),
(1113,163,qs),
(1113,1303,l),
(1051,1303,l),
(729,1076,o),
(607,1031,o),
(512,1031,qs),
(392,1031,o),
(392,1141,qs),
(392,1260,o),
(582,1260,q),
(582,1303,o),
(486,1303,qs),
(329,1303,o),
(329,1140,qs),
(329,977,o)
);
},
{
closed = 1;
nodes = (
(1978,389,o),
(1978,299,qs),
(1978,236,o),
(1892,143,qs),
(1835,81,l),
(1835,389,l),
(1884,389,ls)
);
},
{
closed = 1;
nodes = (
(3087,1018,l),
(3205,1216,l),
(3298,1156,ls),
(3335,1132,o),
(3363,1132,qs),
(3406,1132,o),
(3431,1187,q),
(3421,1186,o),
(3411,1186,qs),
(3367,1186,o),
(3329,1211,qs),
(3189,1303,l),
(3032,1045,l),
(3032,985,l),
(3215,882,l),
(3215,233,ls),
(3215,53,o),
(2932,53,qs),
(2839,53,ls),
(2556,53,o),
(2556,233,qs),
(2556,1103,l),
(2164,1303,l),
(1772,1104,l),
(1772,0,l),
(1835,0,l),
(1933,106,ls),
(2031,212,o),
(2031,300,qs),
(2031,442,o),
(1884,442,qs),
(1835,442,l),
(1835,1081,l),
(2143,1241,l),
(2493,1066,l),
(2493,233,ls),
(2493,0,o),
(2839,0,qs),
(2932,0,ls),
(3278,0,o),
(3278,233,qs),
(3278,909,l)
);
}
);
width = 5050;
}
);
note = uni17D8;
unicode = 6104;
},
{
glyphname = uni17D9;
layers = (
{
layerId = m01;
shapes = (
{
closed = 1;
nodes = (
(1338,163,qs),
(1500,325,o),
(1500,650,qs),
(1500,975,o),
(1338,1138,qs),
(1174,1300,o),
(850,1300,qs),
(526,1300,o),
(363,1138,qs),
(200,975,o),
(200,650,qs),
(200,325,o),
(363,163,qs),
(526,0,o),
(850,0,qs),
(1174,0,o)
);
},
{
closed = 1;
nodes = (
(1440,650,qs),
(1440,60,o),
(850,60,qs),
(260,60,o),
(260,650,qs),
(260,1240,o),
(850,1240,qs),
(1440,1240,o)
);
},
{
closed = 1;
nodes = (
(1129,371,qs),
(1221,464,o),
(1221,650,qs),
(1221,836,o),
(1129,929,qs),
(1037,1021,o),
(850,1021,qs),
(663,1021,o),
(571,929,qs),
(479,836,o),
(479,650,qs),
(479,464,o),
(571,371,qs),
(663,279,o),
(850,279,qs),
(1037,279,o)
);
},
{
closed = 1;
nodes = (
(1083,884,qs),
(1161,806,o),
(1161,650,qs),
(1161,495,o),
(1083,417,qs),
(1004,339,o),
(850,339,qs),
(696,339,o),
(617,417,qs),
(539,495,o),
(539,650,qs),
(539,806,o),
(617,884,qs),
(696,961,o),
(850,961,qs),
(1004,961,o)
);
}
);
width = 1700;
}
);
note = uni17D9;
unicode = 6105;
},
{
glyphname = uni17DA;
layers = (
{
layerId = m01;
shapes = (
{
closed = 1;
nodes = (
(3298,638,o),
(3153,585,q),
(3126,616,o),
(3067,669,qs),
(3025,707,o),
(3007,725,q),
(3067,768,o),
(3117,831,o),
(3117,864,qs),
(3117,910,o),
(3053,968,o),
(3004,968,qs),
(2954,968,o),
(2890,910,o),
(2890,864,qs),
(2890,797,o),
(2940,734,q),
(2887,699,o),
(2825,662,qs),
(2808,652,ls),
(2704,589,o),
(2654,553,q),
(2616,596,o),
(2529,675,qs),
(2461,737,o),
(2433,766,q),
(2487,816,o),
(2547,906,o),
(2547,946,qs),
(2547,998,o),
(2473,1065,o),
(2417,1065,qs),
(2361,1065,o),
(2286,998,o),
(2286,946,qs),
(2286,863,o),
(2371,768,q),
(2322,726,o),
(2226,652,qs),
(2113,564,o),
(2070,527,q),
(2030,560,o),
(1950,619,qs),
(1868,679,o),
(1830,710,q),
(1892,793,o),
(1963,921,o),
(1963,950,qs),
(1963,999,o),
(1919,1077,o),
(1841,1121,o),
(1792,1121,qs),
(1743,1121,o),
(1664,1077,o),
(1620,999,o),
(1620,950,qs),
(1620,886,o),
(1700,763,o),
(1772,701,q),
(1656,552,o),
(1347,267,o),
(996,74,o),
(836,74,qs),
(686,74,o),
(535,376,o),
(535,682,qs),
(535,948,o),
(747,1209,o),
(963,1209,qs),
(1132,1209,o),
(1296,1065,o),
(1296,919,qs),
(1296,768,o),
(1164,618,o),
(1016,597,qs),
(996,594,o),
(996,575,qs),
(996,572,ls),
(998,552,o),
(1016,552,qs),
(1021,552,l),
(1186,574,o),
(1341,751,o),
(1341,919,qs),
(1341,1085,o),
(1150,1254,o),
(963,1254,qs),
(728,1254,o),
(490,966,o),
(490,682,qs),
(490,29,o),
(836,29,qs),
(1002,29,o),
(1363,226,o),
(1682,519,o),
(1804,674,q),
(1848,638,o),
(1924,583,qs),
(1996,531,o),
(2037,497,q),
(1916,383,o),
(1916,300,qs),
(1916,233,o),
(2003,147,o),
(2070,147,qs),
(2137,147,o),
(2223,233,o),
(2223,300,qs),
(2223,350,o),
(2161,447,o),
(2104,498,q),
(2126,518,o),
(2211,584,qs),
(2253,617,ls),
(2360,701,o),
(2400,736,q),
(2431,704,o),
(2499,642,qs),
(2584,565,o),
(2618,527,q),
(2508,441,o),
(2508,368,qs),
(2508,314,o),
(2577,242,o),
(2629,242,qs),
(2679,242,o),
(2743,312,o),
(2743,368,qs),
(2743,438,o),
(2682,519,q),
(2736,558,o),
(2848,624,qs),
(2939,679,o),
(2969,699,q),
(2991,677,o),
(3037,635,qs),
(3084,594,o),
(3109,566,q),
(2994,510,o),
(2994,427,qs),
(2994,378,o),
(3058,314,o),
(3107,314,qs),
(3156,314,o),
(3221,378,o),
(3221,427,qs),
(3221,488,o),
(3182,547,q),
(3318,593,o),
(3538,593,qs),
(3561,593,o),
(3561,616,qs),
(3561,638,o),
(3538,638,q),
(3538,638,l),
(3538,638,l)
);
},
{
closed = 1;
nodes = (
(1666,1006,o),
(1736,1076,o),
(1792,1076,qs),
(1848,1076,o),
(1918,1006,o),
(1918,950,qs),
(1918,926,o),
(1855,811,o),
(1799,736,q),
(1735,791,o),
(1666,896,o),
(1666,950,q),
(1666,950,l),
(1666,950,l)
);
},
{
closed = 1;
nodes = (
(2332,979,o),
(2379,1020,o),
(2417,1020,qs),
(2455,1020,o),
(2503,979,o),
(2503,946,qs),
(2503,915,o),
(2452,842,o),
(2404,797,q),
(2369,837,o),
(2332,910,o),
(2332,946,q),
(2332,946,l),
(2332,946,l)
);
},
{
closed = 1;
nodes = (
(2934,891,o),
(2972,923,o),
(3004,923,qs),
(3035,923,o),
(3073,891,o),
(3073,864,qs),
(3073,844,o),
(3029,795,o),
(2977,758,q),
(2934,813,o),
(2934,864,q),
(2934,864,l),
(2934,864,l)
);
},
{
closed = 1;
nodes = (
(3175,396,o),
(3138,359,o),
(3107,359,qs),
(3076,359,o),
(3039,396,o),
(3039,427,qs),
(3039,457,o),
(3090,510,o),
(3138,531,q),
(3175,480,o),
(3175,427,q),
(3175,427,l),
(3175,427,l)
);
},
{
closed = 1;
nodes = (
(2699,331,o),
(2661,287,o),
(2629,287,qs),
(2596,287,o),
(2554,333,o),
(2554,368,qs),
(2554,421,o),
(2646,493,q),
(2699,423,o),
(2699,368,q),
(2699,368,l),
(2699,368,l)
);
},
{
closed = 1;
nodes = (
(2179,252,o),
(2118,192,o),
(2070,192,qs),
(2021,192,o),
(1960,252,o),
(1960,300,qs),
(1960,336,o),
(2018,420,o),
(2071,469,q),
(2123,422,o),
(2179,340,o),
(2179,300,q),
(2179,300,l),
(2179,300,l)
);
}
);
width = 3850;
}
);
note = uni17DA;
unicode = 6106;
},
{
glyphname = hyphen;
layers = (
{
layerId = m01;
shapes = (
{
closed = 1;
nodes = (
(624,653,l),
(154,653,l),
(154,599,l),
(624,599,l)
);
}
);
width = 789;
}
);
note = hyphen;
unicode = 45;
},
{
glyphname = underscore;
layers = (
{
layerId = m01;
shapes = (
{
closed = 1;
nodes = (
(965,0,l),
(119,0,l),
(119,-54,l),
(965,-54,l)
);
}
);
width = 1134;
}
);
note = underscore;
unicode = 95;
},
{
glyphname = parenleft;
layers = (
{
layerId = m01;
shapes = (
{
closed = 1;
nodes = (
(547,-427,l),
(471,-376,o),
(334,-175,o),
(228,96,o),
(168,405,o),
(168,564,qs),
(168,590,ls),
(168,748,o),
(228,1057,o),
(334,1328,o),
(471,1529,o),
(547,1580,q),
(531,1616,l),
(525,1616,l),
(440,1565,o),
(291,1358,o),
(178,1079,o),
(114,755,o),
(114,586,qs),
(114,566,ls),
(114,389,o),
(177,64,o),
(290,-209,o),
(439,-410,o),
(525,-463,q),
(531,-463,l)
);
}
);
width = 615;
}
);
note = parenleft;
unicode = 40;
},
{
glyphname = parenright;
layers = (
{
layerId = m01;
shapes = (
{
closed = 1;
nodes = (
(119,-410,o),
(268,-209,o),
(380,64,o),
(444,389,o),
(444,566,qs),
(444,586,ls),
(444,755,o),
(380,1079,o),
(266,1358,o),
(117,1565,o),
(33,1616,q),
(27,1616,l),
(11,1580,l),
(87,1529,o),
(224,1328,o),
(329,1057,o),
(390,748,o),
(390,590,qs),
(390,564,ls),
(390,405,o),
(329,96,o),
(224,-175,o),
(87,-376,o),
(11,-427,q),
(27,-463,l),
(33,-463,l)
);
}
);
width = 608;
}
);
note = parenright;
unicode = 41;
},
{
glyphname = braceleft;
layers = (
{
layerId = m01;
shapes = (
{
closed = 1;
nodes = (
(508,-346,o),
(367,-134,o),
(367,20,qs),
(367,265,ls),
(367,384,o),
(263,550,o),
(156,576,q),
(263,601,o),
(367,765,o),
(367,885,qs),
(367,1132,ls),
(367,1287,o),
(504,1506,o),
(647,1552,q),
(632,1597,l),
(459,1542,o),
(313,1303,o),
(313,1132,qs),
(313,885,ls),
(313,753,o),
(191,609,o),
(63,609,q),
(63,543,l),
(191,543,o),
(313,397,o),
(313,265,qs),
(313,20,ls),
(313,-150,o),
(459,-386,o),
(632,-441,q),
(652,-395,l)
);
}
);
width = 693;
}
);
note = braceleft;
unicode = 123;
},
{
glyphname = braceright;
layers = (
{
layerId = m01;
shapes = (
{
closed = 1;
nodes = (
(365,-151,o),
(365,20,qs),
(365,265,ls),
(365,396,o),
(487,543,o),
(615,543,q),
(615,609,l),
(487,609,o),
(365,753,o),
(365,885,qs),
(365,1132,ls),
(365,1303,o),
(218,1542,o),
(46,1597,q),
(32,1552,l),
(174,1506,o),
(311,1287,o),
(311,1132,qs),
(311,885,ls),
(311,765,o),
(414,601,o),
(522,576,q),
(414,550,o),
(311,384,o),
(311,265,qs),
(311,20,ls),
(311,-134,o),
(170,-346,o),
(27,-395,q),
(46,-441,l),
(219,-386,o)
);
}
);
width = 692;
}
);
note = braceright;
unicode = 125;
},
{
glyphname = bracketleft;
layers = (
{
layerId = m01;
shapes = (
{
closed = 1;
nodes = (
(440,-258,l),
(211,-258,l),
(211,1610,l),
(440,1610,l),
(440,1664,l),
(157,1664,l),
(157,-312,l),
(440,-312,l)
);
}
);
width = 527;
}
);
note = bracketleft;
unicode = 91;
},
{
glyphname = bracketright;
layers = (
{
layerId = m01;
shapes = (
{
closed = 1;
nodes = (
(306,1664,l),
(23,1664,l),
(23,1610,l),
(251,1610,l),
(251,-258,l),
(23,-258,l),
(23,-312,l),
(306,-312,l)
);
}
);
width = 505;
}
);
note = bracketright;
unicode = 93;
},
{
glyphname = guillemotleft;
layers = (
{
layerId = m01;
shapes = (
{
closed = 1;
nodes = (
(176,525,l),
(470,905,l),
(400,905,l),
(105,535,l),
(105,516,l),
(400,146,l),
(470,146,l)
);
},
{
closed = 1;
nodes = (
(463,525,l),
(757,905,l),
(687,905,l),
(392,535,l),
(392,516,l),
(687,146,l),
(757,146,l)
);
}
);
width = 905;
}
);
note = guillemotleft;
unicode = 171;
},
{
glyphname = guillemotright;
layers = (
{
layerId = m01;
shapes = (
{
closed = 1;
nodes = (
(469,541,l),
(469,560,l),
(175,940,l),
(105,940,l),
(398,550,l),
(105,171,l),
(175,171,l)
);
},
{
closed = 1;
nodes = (
(759,541,l),
(759,560,l),
(465,940,l),
(395,940,l),
(688,550,l),
(395,171,l),
(465,171,l)
);
}
);
width = 897;
}
);
note = guillemotright;
unicode = 187;
},
{
glyphname = quotedbl;
layers = (
{
layerId = m01;
shapes = (
{
closed = 1;
nodes = (
(236,1391,l),
(236,1560,l),
(181,1560,l),
(181,1389,l),
(166,1122,l),
(216,1122,l)
);
},
{
closed = 1;
nodes = (
(417,1391,l),
(417,1560,l),
(362,1560,l),
(362,1389,l),
(347,1122,l),
(397,1122,l)
);
}
);
width = 602;
}
);
note = quotedbl;
unicode = 34;
},
{
glyphname = quotesingle;
layers = (
{
layerId = m01;
shapes = (
{
closed = 1;
nodes = (
(236,1391,l),
(236,1560,l),
(181,1560,l),
(181,1389,l),
(166,1122,l),
(216,1122,l)
);
}
);
width = 421;
}
);
note = quotesingle;
unicode = 39;
},
{
glyphname = period;
layers = (
{
layerId = m01;
shapes = (
{
closed = 1;
nodes = (
(231,130,l),
(145,130,l),
(145,0,l),
(231,0,l)
);
}
);
width = 444;
}
);
note = period;
unicode = 46;
},
{
glyphname = comma;
layers = (
{
layerId = m01;
shapes = (
{
closed = 1;
nodes = (
(235,-61,o),
(235,27,qs),
(235,159,l),
(181,159,l),
(181,25,ls),
(181,-49,o),
(138,-162,o),
(92,-223,q),
(129,-255,l),
(179,-201,o)
);
}
);
width = 383;
}
);
note = comma;
unicode = 44;
},
{
glyphname = colon;
layers = (
{
layerId = m01;
shapes = (
{
closed = 1;
nodes = (
(204,130,l),
(118,130,l),
(118,0,l),
(204,0,l)
);
},
{
closed = 1;
nodes = (
(204,1079,l),
(118,1079,l),
(118,949,l),
(204,949,l)
);
}
);
width = 364;
}
);
note = colon;
unicode = 58;
},
{
glyphname = semicolon;
layers = (
{
layerId = m01;
shapes = (
{
closed = 1;
nodes = (
(211,1082,l),
(125,1082,l),
(125,952,l),
(211,952,l)
);
},
{
closed = 1;
nodes = (
(219,-61,o),
(219,27,qs),
(219,159,l),
(165,159,l),
(165,25,ls),
(165,-49,o),
(122,-162,o),
(76,-223,q),
(113,-255,l),
(163,-201,o)
);
}
);
width = 364;
}
);
note = semicolon;
unicode = 59;
},
{
glyphname = exclam;
layers = (
{
layerId = m01;
shapes = (
{
closed = 1;
nodes = (
(217,1456,l),
(163,1456,l),
(163,478,l),
(217,478,l)
);
},
{
closed = 1;
nodes = (
(238,134,l),
(143,134,l),
(143,0,l),
(238,0,l)
);
}
);
width = 437;
}
);
note = exclam;
unicode = 33;
},
{
glyphname = question;
layers = (
{
layerId = m01;
shapes = (
{
closed = 1;
nodes = (
(416,467,o),
(429,548,o),
(472,612,o),
(515,650,qs),
(601,727,o),
(713,865,o),
(768,1016,o),
(768,1110,qs),
(768,1275,o),
(579,1477,o),
(415,1477,qs),
(312,1477,o),
(153,1394,o),
(64,1235,o),
(65,1122,q),
(68,1116,l),
(114,1116,l),
(117,1255,o),
(273,1424,o),
(415,1424,qs),
(558,1424,o),
(714,1258,o),
(714,1112,qs),
(714,1018,o),
(668,888,o),
(568,769,o),
(487,692,qs),
(445,653,o),
(395,595,o),
(370,536,o),
(362,459,o),
(362,400,q),
(416,400,l)
);
},
{
closed = 1;
nodes = (
(440,106,l),
(358,106,l),
(358,0,l),
(440,0,l)
);
}
);
width = 901;
}
);
note = question;
unicode = 63;
},
{
glyphname = asterisk;
layers = (
{
layerId = m01;
shapes = (
{
closed = 1;
nodes = (
(508,1014,l),
(868,1151,l),
(848,1204,l),
(496,1061,l),
(503,1456,l),
(447,1456,l),
(446,1062,l),
(84,1195,l),
(66,1141,l),
(429,1017,l),
(195,693,l),
(240,661,l),
(468,986,l),
(710,664,l),
(757,697,l)
);
}
);
width = 948;
}
);
note = asterisk;
unicode = 42;
},
{
glyphname = numbersign;
layers = (
{
layerId = m01;
shapes = (
{
closed = 1;
nodes = (
(390,410,l),
(754,410,l),
(679,0,l),
(735,0,l),
(810,410,l),
(1104,410,l),
(1104,462,l),
(819,462,l),
(915,986,l),
(1179,986,l),
(1179,1040,l),
(925,1040,l),
(1001,1456,l),
(945,1456,l),
(869,1040,l),
(504,1040,l),
(580,1456,l),
(524,1456,l),
(449,1040,l),
(139,1040,l),
(139,986,l),
(439,986,l),
(344,462,l),
(63,462,l),
(63,410,l),
(334,410,l),
(260,0,l),
(316,0,l)
);
},
{
closed = 1;
nodes = (
(859,986,l),
(763,462,l),
(400,462,l),
(494,986,l)
);
}
);
width = 1246;
}
);
note = numbersign;
unicode = 35;
},
{
glyphname = slash;
layers = (
{
layerId = m01;
shapes = (
{
closed = 1;
nodes = (
(667,1456,l),
(608,1456,l),
(0,-125,l),
(59,-125,l)
);
}
);
width = 776;
}
);
note = slash;
unicode = 47;
},
{
glyphname = backslash;
layers = (
{
layerId = m01;
shapes = (
{
closed = 1;
nodes = (
(94,1456,l),
(36,1456,l),
(644,-125,l),
(702,-125,l)
);
}
);
width = 784;
}
);
note = backslash;
unicode = 92;
},
{
glyphname = uni17DB;
layers = (
{
layerId = m01;
shapes = (
{
closed = 1;
nodes = (
(272,143,ls),
(186,236,o),
(186,299,qs),
(186,389,o),
(280,389,qs),
(329,389,l),
(329,81,l)
);
},
{
closed = 1;
nodes = (
(201,1018,l),
(319,1216,l),
(412,1156,ls),
(449,1132,o),
(477,1132,qs),
(520,1132,o),
(545,1187,q),
(535,1186,o),
(525,1186,qs),
(481,1186,o),
(443,1211,qs),
(303,1303,l),
(146,1045,l),
(146,985,l),
(329,882,l),
(329,632,l),
(116,632,l),
(116,579,l),
(329,579,l),
(329,442,l),
(280,442,ls),
(133,442,o),
(133,300,qs),
(133,212,o),
(231,106,qs),
(329,0,l),
(392,0,l),
(392,579,l),
(575,579,l),
(575,632,l),
(392,632,l),
(392,909,l)
);
}
);
width = 721;
}
);
note = uni17DB;
unicode = 6107;
},
{
glyphname = dollar;
layers = (
{
layerId = m01;
shapes = (
{
closed = 1;
nodes = (
(576,-20,l),
(749,-10,o),
(957,185,o),
(957,346,qs),
(957,456,o),
(870,601,o),
(689,705,o),
(549,754,qs),
(400,803,o),
(239,901,o),
(178,1025,o),
(178,1112,qs),
(178,1241,o),
(361,1424,o),
(535,1424,qs),
(705,1424,o),
(895,1213,o),
(895,1047,q),
(942,1047,l),
(944,1052,l),
(947,1245,o),
(746,1466,o),
(565,1476,q),
(565,1663,l),
(510,1663,l),
(510,1476,l),
(333,1469,o),
(124,1270,o),
(124,1110,qs),
(124,999,o),
(209,853,o),
(389,749,o),
(532,702,qs),
(674,651,o),
(836,552,o),
(903,431,o),
(903,344,qs),
(903,259,o),
(813,117,o),
(651,32,o),
(542,32,qs),
(430,32,o),
(243,110,o),
(131,276,o),
(131,409,q),
(85,409,l),
(83,403,l),
(80,260,o),
(194,75,o),
(395,-17,o),
(521,-21,q),
(521,-208,l),
(576,-208,l)
);
}
);
width = 1086;
}
);
note = dollar;
unicode = 36;
},
{
glyphname = plus;
layers = (
{
layerId = m01;
shapes = (
{
closed = 1;
nodes = (
(590,649,l),
(1071,649,l),
(1071,702,l),
(590,702,l),
(590,1206,l),
(535,1206,l),
(535,702,l),
(73,702,l),
(73,649,l),
(535,649,l),
(535,146,l),
(590,146,l)
);
}
);
width = 1145;
}
);
note = plus;
unicode = 43;
},
{
glyphname = equal;
layers = (
{
layerId = m01;
shapes = (
{
closed = 1;
nodes = (
(981,897,l),
(147,897,l),
(147,843,l),
(981,843,l)
);
},
{
closed = 1;
nodes = (
(981,490,l),
(147,490,l),
(147,436,l),
(981,436,l)
);
}
);
width = 1127;
}
);
note = equal;
unicode = 61;
},
{
glyphname = greater;
layers = (
{
layerId = m01;
shapes = (
{
closed = 1;
nodes = (
(961,566,l),
(125,944,l),
(125,886,l),
(785,582,l),
(903,545,l),
(903,539,l),
(785,503,l),
(125,196,l),
(125,137,l),
(961,516,l)
);
}
);
width = 1052;
}
);
note = greater;
unicode = 62;
},
{
glyphname = less;
layers = (
{
layerId = m01;
shapes = (
{
closed = 1;
nodes = (
(252,498,l),
(133,534,l),
(133,540,l),
(252,577,l),
(913,885,l),
(913,943,l),
(76,565,l),
(76,515,l),
(913,136,l),
(913,195,l)
);
}
);
width = 1027;
}
);
note = less;
unicode = 60;
},
{
glyphname = asciitilde;
layers = (
{
layerId = m01;
shapes = (
{
closed = 1;
nodes = (
(1147,524,o),
(1216,659,o),
(1216,740,q),
(1155,753,l),
(1155,637,o),
(1038,496,o),
(952,496,qs),
(889,496,o),
(773,552,o),
(706,614,qs),
(614,695,o),
(469,774,o),
(383,774,qs),
(306,774,o),
(188,695,o),
(121,559,o),
(121,474,q),
(180,462,l),
(180,584,o),
(294,720,o),
(383,720,qs),
(444,720,o),
(563,661,o),
(631,602,qs),
(722,519,o),
(865,443,o),
(952,443,qs),
(1027,443,o)
);
}
);
width = 1368;
}
);
note = asciitilde;
unicode = 126;
},
{
glyphname = asciicircum;
layers = (
{
layerId = m01;
shapes = (
{
closed = 1;
nodes = (
(349,1272,l),
(392,1386,l),
(398,1386,l),
(438,1272,l),
(660,729,l),
(721,729,l),
(422,1456,l),
(370,1456,l),
(71,729,l),
(130,729,l)
);
}
);
width = 828;
}
);
note = asciicircum;
unicode = 94;
},
{
glyphname = percent;
layers = (
{
layerId = m01;
shapes = (
{
closed = 1;
nodes = (
(1054,1300,l),
(343,162,l),
(388,131,l),
(1099,1269,l)
);
},
{
closed = 1;
nodes = (
(1307,59,o),
(1376,195,o),
(1376,279,qs),
(1376,357,ls),
(1376,441,o),
(1307,577,o),
(1184,657,o),
(1104,657,qs),
(1024,657,o),
(902,576,o),
(833,440,o),
(833,357,qs),
(833,279,ls),
(833,195,o),
(902,59,o),
(1025,-21,o),
(1106,-21,qs),
(1185,-21,o)
);
},
{
closed = 1;
nodes = (
(888,178,o),
(888,279,qs),
(888,357,ls),
(888,462,o),
(1001,602,o),
(1104,602,qs),
(1209,602,o),
(1321,463,o),
(1321,357,qs),
(1321,279,ls),
(1321,178,o),
(1209,34,o),
(1106,34,qs),
(1000,34,o)
);
},
{
closed = 1;
nodes = (
(551,880,o),
(620,1015,o),
(620,1099,qs),
(620,1176,ls),
(620,1260,o),
(551,1397,o),
(428,1477,o),
(349,1477,qs),
(269,1477,o),
(146,1397,o),
(77,1260,o),
(77,1176,qs),
(77,1099,ls),
(77,1015,o),
(146,880,o),
(270,800,o),
(351,800,qs),
(430,800,o)
);
},
{
closed = 1;
nodes = (
(132,999,o),
(132,1099,qs),
(132,1176,ls),
(132,1275,o),
(246,1422,o),
(349,1422,qs),
(452,1422,o),
(565,1276,o),
(565,1176,qs),
(565,1099,ls),
(565,999,o),
(453,855,o),
(351,855,qs),
(245,855,o)
);
}
);
width = 1457;
}
);
note = percent;
unicode = 37;
},
{
glyphname = at;
layers = (
{
layerId = m01;
shapes = (
{
closed = 1;
nodes = (
(1159,-404,o),
(1221,-364,q),
(1197,-320,l),
(1135,-356,o),
(962,-398,o),
(863,-398,qs),
(619,-398,o),
(287,-175,o),
(127,221,o),
(140,478,qs),
(154,743,o),
(365,1138,o),
(722,1357,o),
(954,1357,qs),
(1331,1357,o),
(1687,919,o),
(1667,523,qs),
(1656,303,o),
(1475,34,o),
(1317,34,qs),
(1277,34,o),
(1205,79,o),
(1166,192,o),
(1173,293,qs),
(1220,831,l),
(1222,858,l),
(1159,913,o),
(1055,968,o),
(972,968,qs),
(858,968,o),
(671,831,o),
(551,583,o),
(535,416,qs),
(516,217,o),
(650,-21,o),
(786,-21,qs),
(1008,-21,o),
(1118,209,q),
(1127,101,o),
(1231,-21,o),
(1314,-21,qs),
(1442,-21,o),
(1620,129,o),
(1718,377,o),
(1724,523,qs),
(1736,803,o),
(1568,1200,o),
(1220,1411,o),
(958,1411,qs),
(706,1411,o),
(322,1180,o),
(98,761,o),
(86,478,qs),
(74,190,o),
(255,-227,o),
(609,-453,o),
(857,-453,qs),
(954,-453,o)
);
},
{
closed = 1;
nodes = (
(570,249,o),
(589,416,qs),
(615,660,o),
(827,913,o),
(969,913,qs),
(1033,913,o),
(1130,870,o),
(1164,831,q),
(1124,371,ls),
(1123,364,o),
(1123,352,o),
(1122,345,q),
(1064,166,o),
(892,33,o),
(784,33,qs),
(671,33,o)
);
}
);
width = 1799;
}
);
note = at;
unicode = 64;
},
{
glyphname = ampersand;
layers = (
{
layerId = m01;
shapes = (
{
closed = 1;
nodes = (
(855,98,o),
(931,177,q),
(1088,0,l),
(1148,0,l),
(1150,5,l),
(965,216,l),
(1028,302,o),
(1098,507,o),
(1098,632,q),
(1043,632,l),
(1043,523,o),
(982,333,o),
(928,257,q),
(453,797,l),
(655,958,ls),
(725,1014,o),
(802,1131,o),
(802,1215,qs),
(802,1294,o),
(737,1412,o),
(614,1477,o),
(526,1477,qs),
(431,1477,o),
(295,1405,o),
(221,1266,o),
(221,1167,qs),
(221,1076,o),
(299,906,o),
(381,803,q),
(368,793,o),
(343,773,o),
(330,762,qs),
(209,660,o),
(74,466,o),
(74,352,qs),
(74,237,o),
(179,70,o),
(373,-21,o),
(508,-21,qs),
(654,-21,o)
);
},
{
closed = 1;
nodes = (
(128,218,o),
(128,352,qs),
(128,430,o),
(224,605,o),
(361,723,q),
(413,764,l),
(896,216,l),
(820,128,o),
(618,33,o),
(508,33,qs),
(324,33,o)
);
},
{
closed = 1;
nodes = (
(276,1090,o),
(276,1169,qs),
(276,1278,o),
(406,1423,o),
(526,1423,qs),
(633,1423,o),
(746,1309,o),
(746,1215,qs),
(746,1157,o),
(690,1050,o),
(630,1000,qs),
(421,834,l),
(346,922,o)
);
}
);
width = 1253;
}
);
note = ampersand;
unicode = 38;
},
{
glyphname = bar;
layers = (
{
layerId = m01;
shapes = (
{
closed = 1;
nodes = (
(204,1456,l),
(150,1456,l),
(150,-270,l),
(204,-270,l)
);
}
);
width = 405;
}
);
note = bar;
unicode = 124;
},
{
glyphname = uni17B7;
layers = (
{
layerId = m01;
shapes = (
{
closed = 1;
nodes = (
(-915,1536,qs),
(-329,1536,l),
(-329,1589,l),
(-418,1667,ls),
(-641,1862,o),
(-828,1862,qs),
(-1054,1862,o),
(-1054,1629,qs),
(-1054,1536,o)
);
},
{
closed = 1;
nodes = (
(-461,1633,qs),
(-410,1589,l),
(-915,1589,ls),
(-995,1589,o),
(-995,1629,qs),
(-995,1802,o),
(-828,1802,qs),
(-657,1802,o)
);
}
);
width = 0;
}
);
note = uni17B7;
unicode = 6071;
},
{
glyphname = uni17B7_17CD;
layers = (
{
layerId = m01;
shapes = (
{
closed = 1;
nodes = (
(-335,1709,qs),
(-335,1740,o),
(-361,1740,qs),
(-388,1740,o),
(-388,1709,qs),
(-388,1679,o),
(-415,1664,q),
(-418,1667,ls),
(-510,1748,o),
(-596,1795,q),
(-585,1890,o),
(-493,1890,qs),
(-398,1890,o),
(-333,1790,q),
(-304,1790,o),
(-272,1801,q),
(-207,1838,o),
(-153,1887,qs),
(-101,1937,o),
(-61,2000,q),
(-51,2010,o),
(-51,2024,qs),
(-51,2038,o),
(-67,2057,o),
(-83,2057,q),
(-93,2055,l),
(-130,1993,o),
(-251,1866,o),
(-309,1851,q),
(-368,1950,o),
(-493,1950,qs),
(-625,1950,o),
(-646,1820,q),
(-741,1862,o),
(-828,1862,qs),
(-1054,1862,o),
(-1054,1629,qs),
(-1054,1536,o),
(-915,1536,qs),
(-329,1536,l),
(-329,1589,l),
(-369,1624,l),
(-335,1654,o)
);
},
{
closed = 1;
nodes = (
(-461,1633,qs),
(-410,1589,l),
(-915,1589,ls),
(-995,1589,o),
(-995,1629,qs),
(-995,1802,o),
(-828,1802,qs),
(-657,1802,o)
);
}
);
width = 0;
}
);
note = uni17B7_17CD;
},
{
glyphname = uni17B8;
layers = (
{
layerId = m01;
shapes = (
{
closed = 1;
nodes = (
(-461,1633,qs),
(-410,1589,l),
(-915,1589,ls),
(-995,1589,o),
(-995,1629,qs),
(-995,1802,o),
(-828,1802,qs),
(-657,1802,o)
);
},
{
closed = 1;
nodes = (
(-641,1862,o),
(-828,1862,qs),
(-1054,1862,o),
(-1054,1629,qs),
(-1054,1536,o),
(-915,1536,qs),
(-329,1536,l),
(-329,1908,l),
(-382,1908,l),
(-382,1635,l),
(-418,1667,ls)
);
}
);
width = 0;
}
);
note = uni17B8;
unicode = 6072;
},
{
glyphname = uni17B9;
layers = (
{
layerId = m01;
shapes = (
{
closed = 1;
nodes = (
(-828,1862,qs),
(-1054,1862,o),
(-1054,1629,qs),
(-1054,1536,o),
(-915,1536,qs),
(-329,1536,l),
(-329,1589,l),
(-400,1651,l),
(-382,1660,o),
(-369,1673,qs),
(-329,1713,o),
(-329,1793,qs),
(-329,1873,o),
(-369,1912,qs),
(-408,1952,o),
(-489,1952,qs),
(-569,1952,o),
(-608,1912,qs),
(-641,1880,o),
(-647,1820,q),
(-741,1862,o)
);
},
{
closed = 1;
nodes = (
(-568,1873,qs),
(-541,1899,o),
(-489,1899,qs),
(-436,1899,o),
(-409,1873,qs),
(-382,1846,o),
(-382,1793,qs),
(-382,1739,o),
(-409,1713,qs),
(-424,1698,o),
(-447,1691,q),
(-523,1754,o),
(-595,1794,q),
(-595,1846,o)
);
},
{
closed = 1;
nodes = (
(-461,1633,qs),
(-410,1589,l),
(-915,1589,ls),
(-995,1589,o),
(-995,1629,qs),
(-995,1802,o),
(-828,1802,qs),
(-657,1802,o)
);
}
);
width = 0;
}
);
note = uni17B9;
unicode = 6073;
},
{
glyphname = uni17BA;
layers = (
{
layerId = m01;
shapes = (
{
closed = 1;
nodes = (
(-592,1944,l),
(-592,1793,l),
(-716,1862,o),
(-828,1862,qs),
(-1054,1862,o),
(-1054,1629,qs),
(-1054,1536,o),
(-915,1536,qs),
(-329,1536,l),
(-329,1908,l),
(-382,1908,l),
(-382,1635,l),
(-418,1667,ls),
(-480,1721,o),
(-539,1760,q),
(-539,1944,l)
);
},
{
closed = 1;
nodes = (
(-461,1633,qs),
(-410,1589,l),
(-915,1589,ls),
(-995,1589,o),
(-995,1629,qs),
(-995,1802,o),
(-828,1802,qs),
(-657,1802,o)
);
}
);
width = 0;
}
);
note = uni17BA;
unicode = 6074;
},
{
glyphname = uni17BB;
layers = (
{
layerId = m01;
shapes = (
{
closed = 1;
nodes = (
(-328,-100,o),
(-413,-100,qs),
(-488,-100,o),
(-488,-153,q),
(-391,-153,o),
(-391,-199,qs),
(-391,-658,l),
(-328,-658,l),
(-328,-193,ls)
);
}
);
width = 0;
}
);
note = uni17BB;
unicode = 6075;
},
{
glyphname = uni17BC;
layers = (
{
layerId = m01;
shapes = (
{
closed = 1;
nodes = (
(-744,-153,q),
(-667,-153,o),
(-667,-181,qs),
(-667,-239,o),
(-762,-327,o),
(-891,-391,o),
(-891,-421,qs),
(-891,-527,o),
(-810,-613,o),
(-749,-613,q),
(-630,-580,o),
(-528,-491,qs),
(-425,-400,o),
(-367,-253,qs),
(-334,-169,o),
(-308,-144,o),
(-308,-123,qs),
(-308,-100,o),
(-321,-100,qs),
(-346,-100,o),
(-397,-165,o),
(-485,-384,o),
(-658,-538,o),
(-749,-560,q),
(-828,-560,o),
(-828,-421,q),
(-762,-388,o),
(-679,-313,o),
(-660,-289,qs),
(-604,-210,o),
(-604,-165,qs),
(-604,-100,o),
(-669,-100,qs),
(-744,-100,o)
);
}
);
width = 0;
}
);
note = uni17BC;
unicode = 6076;
},
{
glyphname = uni17BD;
layers = (
{
layerId = m01;
shapes = (
{
closed = 1;
nodes = (
(-744,-153,q),
(-667,-153,o),
(-667,-191,qs),
(-667,-247,o),
(-725,-290,qs),
(-784,-331,o),
(-891,-379,q),
(-891,-432,ls),
(-891,-482,o),
(-823,-612,o),
(-746,-612,q),
(-643,-519,l),
(-591,-612,l),
(-508,-599,o),
(-365,-389,o),
(-327,-193,qs),
(-318,-147,o),
(-318,-123,qs),
(-319,-100,o),
(-330,-100,qs),
(-341,-100,o),
(-369,-146,o),
(-422,-347,o),
(-500,-500,o),
(-569,-549,q),
(-629,-446,l),
(-753,-549,l),
(-828,-549,o),
(-828,-411,q),
(-679,-333,o),
(-605,-241,o),
(-605,-191,qs),
(-605,-100,o),
(-689,-100,qs),
(-744,-100,o)
);
}
);
width = 0;
}
);
note = uni17BD;
unicode = 6077;
},
{
glyphname = uni17BE;
layers = (
{
layerId = m01;
shapes = (
{
closed = 1;
nodes = (
(-461,1633,qs),
(-410,1589,l),
(-915,1589,ls),
(-995,1589,o),
(-995,1629,qs),
(-995,1802,o),
(-828,1802,qs),
(-657,1802,o)
);
},
{
closed = 1;
nodes = (
(-641,1862,o),
(-828,1862,qs),
(-1054,1862,o),
(-1054,1629,qs),
(-1054,1536,o),
(-915,1536,qs),
(-329,1536,l),
(-329,1908,l),
(-382,1908,l),
(-382,1635,l),
(-418,1667,ls)
);
}
);
width = 0;
}
);
note = uni17BE;
unicode = 6078;
},
{
glyphname = uni17C6;
layers = (
{
layerId = m01;
shapes = (
{
closed = 1;
nodes = (
(-744,1817,qs),
(-705,1856,o),
(-628,1856,qs),
(-550,1856,o),
(-511,1817,qs),
(-471,1776,o),
(-471,1699,qs),
(-471,1620,o),
(-511,1581,qs),
(-550,1543,o),
(-628,1543,qs),
(-705,1543,o),
(-744,1581,qs),
(-784,1620,o),
(-784,1699,qs),
(-784,1776,o)
);
},
{
closed = 1;
nodes = (
(-470,1856,qs),
(-522,1908,o),
(-628,1908,qs),
(-733,1908,o),
(-785,1856,qs),
(-837,1804,o),
(-837,1699,qs),
(-837,1594,o),
(-785,1542,qs),
(-733,1489,o),
(-628,1489,qs),
(-522,1489,o),
(-470,1542,qs),
(-418,1594,o),
(-418,1699,qs),
(-418,1804,o)
);
}
);
width = 0;
}
);
note = uni17C6;
unicode = 6086;
},
{
glyphname = uni17C9;
layers = (
{
layerId = m01;
shapes = (
{
closed = 1;
nodes = (
(-806,1925,l),
(-806,1536,l),
(-779,1489,l),
(-753,1536,l),
(-753,1925,l)
);
},
{
closed = 1;
nodes = (
(-498,1925,l),
(-498,1536,l),
(-472,1489,l),
(-445,1536,l),
(-445,1925,l)
);
}
);
width = 0;
}
);
note = uni17C9;
unicode = 6089;
},
{
glyphname = uni17CA;
layers = (
{
layerId = m01;
shapes = (
{
closed = 1;
nodes = (
(-1149,1398,l),
(-920,1518,l),
(-704,1363,l),
(-526,1514,l),
(-421,1438,ls),
(-317,1362,o),
(-292,1362,qs),
(-227,1362,o),
(-204,1460,q),
(-229,1423,o),
(-259,1419,q),
(-265,1419,ls),
(-295,1419,o),
(-346,1457,qs),
(-515,1582,l),
(-692,1428,l),
(-903,1582,l),
(-1214,1418,l),
(-1214,1372,l),
(-1181,1349,l),
(-1080,1349,l)
);
}
);
width = 0;
}
);
note = uni17CA;
unicode = 6090;
},
{
glyphname = uni17CB;
layers = (
{
layerId = m01;
shapes = (
{
closed = 1;
nodes = (
(-747,1922,l),
(-747,1555,l),
(-721,1489,l),
(-694,1555,l),
(-694,1922,l)
);
}
);
width = 0;
}
);
note = uni17CB;
unicode = 6091;
},
{
glyphname = uni17CC;
layers = (
{
layerId = m01;
shapes = (
{
closed = 1;
nodes = (
(-748,1600,o),
(-577,1600,qs),
(-536,1600,o),
(-457,1562,o),
(-367,1460,o),
(-351,1460,qs),
(-335,1460,o),
(-306,1475,q),
(-306,1491,o),
(-469,1660,o),
(-577,1660,qs),
(-643,1660,o),
(-665,1655,q),
(-587,1702,o),
(-460,1919,o),
(-460,1998,qs),
(-460,2060,o),
(-490,2060,qs),
(-520,2060,o),
(-520,1998,qs),
(-520,1943,o),
(-614,1755,o),
(-735,1686,qs),
(-970,1545,ls),
(-993,1532,o),
(-993,1516,qs),
(-993,1508,o),
(-987,1500,qs),
(-979,1486,o),
(-965,1486,qs),
(-951,1486,o),
(-932,1498,qs),
(-820,1563,l)
);
}
);
width = 0;
}
);
note = uni17CC;
unicode = 6092;
},
